<svg fill="#000000" width="800px" height="800px" viewBox="0 0 24 24" role="img" xmlns="http://www.w3.org/2000/svg"><title>D3.js icon</title><path d="m18.2 19.6-3.2-3.2c-1.2 0-2.3.1-3.4.4-1 .3-1.8.7-2.6 1.3l-1.8 1.1 2.3 2.7 1.7-1c.6-.4 1.3-.7 2-1 .8-.2 1.6-.3 2.4-.3l3.6 3.6zM11.6.2c-1.3 0-2.5.2-3.6.5s-2.1.8-3 1.4L2.8 3.8 4 6.3l2.2-1.7c.6-.4 1.3-.7 2-1 .8-.2 1.6-.3 2.4-.3s1.7.1 2.4.3c.8.2 1.5.5 2.1 1l2.2 1.7L19 3.8l-2.2-1.7c-.8-.6-1.8-1-3-1.4s-2.3-.6-3.6-.5zm9.5 15.1-3.6-3.6c0-.8.1-1.6.3-2.4.2-.8.5-1.5 1-2.1l1.7-2.2-2.5-2-1.7 2.2c-.4.6-.7 1.3-1 2.1-.2.8-.3 1.7-.3 2.4l3.6 3.6zM2.9 14.7l3.6 3.6c.8 0 1.6-.1 2.4-.3.8-.2 1.5-.5 2.1-1l1.7-1 2.5 2-1.7 1c-.6.4-1.3.7-2 1-.8.2-1.7.3-2.4.3l-3.6-3.6z"/></svg>