<?xml version="1.0" encoding="UTF-8"?>
<svg version="1.1" xmlns="http://www.w3.org/2000/svg" width="460" height="460">
<path d="M0 0 C5.97712909 -0.22345479 11.95179991 -0.38623704 17.93212891 -0.49438477 C19.96348442 -0.53948648 21.9945503 -0.60078898 24.02490234 -0.67895508 C40.93870688 -1.31353382 40.93870688 -1.31353382 46.07226562 1.95776367 C48.07146581 4.2164142 49.53498395 6.37527725 51 9 C51.825 9.804375 52.65 10.60875 53.5 11.4375 C64 22.2 64 22.2 64 27 C65.485 27.495 65.485 27.495 67 28 C70.54599517 32.38632216 76 39.23738265 76 45 C76.66 45 77.32 45 78 45 C78.51949219 46.12277344 79.03898437 47.24554688 79.57421875 48.40234375 C83.90773214 57.84683253 83.90773214 57.84683253 88.8125 67 C90.36257146 69.68222464 91.50748412 72.2479754 92.4453125 75.19921875 C93.44027873 78.27823162 94.45969687 81.34265385 95.53515625 84.39453125 C96.04427083 85.8671875 96.55338542 87.33984375 97.0625 88.8125 C97.31837891 89.52986328 97.57425781 90.24722656 97.83789062 90.98632812 C99.64035793 96.25472229 100.6815131 101.45675584 101.52416992 106.95727539 C101.97168879 109.81896224 102.50556864 112.64776472 103.0703125 115.48828125 C108.15570831 142.66043306 107.91519995 171.13437705 102.52880859 198.23632812 C101.96279221 201.19445622 101.50428988 204.15999619 101.046875 207.13671875 C100.19007363 212.33344191 98.87407245 217.16480993 97.125 222.125 C96.88136719 222.84558594 96.63773437 223.56617188 96.38671875 224.30859375 C93.04797704 234.04803201 88.99583828 243.40005268 84.5625 252.6875 C83.86543945 254.17733398 83.86543945 254.17733398 83.15429688 255.69726562 C81.11234986 259.98336082 79.10004809 264.06571448 76.27734375 267.89453125 C73.9737481 270.75683872 73.9737481 270.75683872 73.0390625 273.45703125 C71.45875489 277.3246262 68.90980666 280.39049782 66.375 283.6875 C65.83738037 284.39430908 65.29976074 285.10111816 64.74584961 285.8293457 C52.69508267 301.62131081 52.69508267 301.62131081 47 307 C46.4956543 307.69577148 45.99130859 308.39154297 45.47167969 309.10839844 C41.63098393 312.0477219 37.90580921 311.49616331 33.203125 311.390625 C32.25435486 311.38496521 31.30558472 311.37930542 30.32806396 311.37347412 C27.30152664 311.35110609 24.27617871 311.30090858 21.25 311.25 C19.1966317 311.22993557 17.14324481 311.2116847 15.08984375 311.1953125 C10.05943844 311.15123981 5.02992079 311.08220891 0 311 C4.64273649 303.90962838 4.64273649 303.90962838 8 301 C8.66 301 9.32 301 10 301 C10.14308594 300.11634766 10.14308594 300.11634766 10.2890625 299.21484375 C11.15202033 296.5263982 12.30307349 295.45520924 14.375 293.5625 C17.18577774 290.87145112 19.08812978 288.40811648 21 285 C21.88257878 283.80261605 22.78031726 282.61635244 23.6875 281.4375 C29.04412395 274.37103099 34.24991407 267.09297031 38.01171875 259.0390625 C39.21151779 256.56358779 40.57680743 254.20318517 41.9375 251.8125 C45.2609112 245.7600408 47.66163364 239.48430425 50 233 C50.2997876 232.23534424 50.5995752 231.47068848 50.90844727 230.68286133 C53.66657159 223.4917275 55.54563952 216.18357184 57.23754883 208.68237305 C57.69114028 206.67136071 58.15426873 204.66272874 58.61914062 202.65429688 C61.13331563 191.88351332 61.13331563 191.88351332 62.31640625 180.91015625 C62.35846191 179.96906006 62.40051758 179.02796387 62.44384766 178.05834961 C62.50258057 176.57540405 62.50258057 176.57540405 62.5625 175.0625 C62.6042334 174.0319751 62.6459668 173.0014502 62.68896484 171.93969727 C62.99540393 163.94914181 63.16843808 155.99679846 63 148 C62.99274902 147.21931152 62.98549805 146.43862305 62.97802734 145.63427734 C62.69729469 120.68713622 57.73125277 94.92701505 47.40625 72.1171875 C46.14190603 69.31455837 45.02139478 66.50081761 43.9375 63.625 C42.40831582 59.72845956 40.50267247 56.34309557 38.1484375 52.88671875 C37 51 37 51 36.1484375 48.73046875 C34.6034012 45.05706612 32.47629156 41.91861281 30.25 38.625 C29.80261475 37.95742676 29.35522949 37.28985352 28.89428711 36.60205078 C25.85722638 32.12355219 22.60196449 28.04122845 19 24 C18.60039062 23.27425781 18.20078125 22.54851562 17.7890625 21.80078125 C14.77331609 17.07962367 10.71361975 13.27730258 6.83007812 9.26367188 C6.21197266 8.61591797 5.59386719 7.96816406 4.95703125 7.30078125 C4.10588745 6.42160034 4.10588745 6.42160034 3.23754883 5.5246582 C2 4 2 4 2 2 C1.34 2 0.68 2 0 2 C0 1.34 0 0.68 0 0 Z " fill="#990E7E" transform="translate(312,74)"/>
<path d="M0 0 C0.94594025 0.00707474 1.89188049 0.01414948 2.8664856 0.0214386 C5.87274962 0.04931435 8.87711631 0.11204009 11.8828125 0.17578125 C13.92705634 0.20087293 15.97132952 0.22368458 18.015625 0.24414062 C23.01374623 0.29911877 28.01045825 0.38534424 33.0078125 0.48828125 C31.77286784 1.96533203 30.53792318 3.44238281 29.30297852 4.91943359 C28.16289798 6.30042465 27.05169962 7.70515219 25.9453125 9.11328125 C24.08396609 11.39493168 22.08775193 13.40834182 20.0078125 15.48828125 C19.4715625 16.23078125 18.9353125 16.97328125 18.3828125 17.73828125 C17.9290625 18.31578125 17.4753125 18.89328125 17.0078125 19.48828125 C16.3478125 19.48828125 15.6878125 19.48828125 15.0078125 19.48828125 C14.7603125 20.02453125 14.5128125 20.56078125 14.2578125 21.11328125 C12.30100883 24.83120823 9.90861352 28.22532613 7.47265625 31.640625 C-2.65707559 45.87762852 -11.96694055 60.94035312 -17.125 77.73828125 C-18.24482276 81.28943089 -19.63369408 84.70049956 -21.0625 88.13671875 C-38.26321028 131.64439769 -35.17609289 191.37717656 -17.4921875 234.11328125 C-16.9971875 235.22703125 -16.5021875 236.34078125 -15.9921875 237.48828125 C-15.75371094 238.14054688 -15.51523438 238.7928125 -15.26953125 239.46484375 C-12.98733532 245.64269507 -10.04914782 251.41645165 -6.9921875 257.23828125 C-6.35108032 258.46272949 -6.35108032 258.46272949 -5.69702148 259.71191406 C-3.83306293 263.2207954 -1.96043801 266.62241213 0.3203125 269.87890625 C2.0078125 272.48828125 2.0078125 272.48828125 2.0078125 275.48828125 C2.6678125 275.48828125 3.3278125 275.48828125 4.0078125 275.48828125 C5.296875 276.94921875 5.296875 276.94921875 6.6328125 278.86328125 C7.07882813 279.48976563 7.52484375 280.11625 7.984375 280.76171875 C9.0078125 282.48828125 9.0078125 282.48828125 9.0078125 284.48828125 C9.6678125 284.48828125 10.3278125 284.48828125 11.0078125 284.48828125 C12.01520996 286.15048706 13.01304205 287.81848799 14.0078125 289.48828125 C16.64549001 292.83492988 19.45725277 295.95148551 22.5078125 298.92578125 C25.19972411 301.68499065 27.41770967 304.60273038 29.67578125 307.71875 C31.03029765 309.6038832 31.03029765 309.6038832 33.0078125 311.48828125 C26.99856455 311.86304246 20.99628515 312.13294181 14.97802734 312.31225586 C12.93840992 312.38706435 10.89957977 312.48897204 8.86279297 312.61987305 C-8.92963331 313.73353743 -8.92963331 313.73353743 -15.38989258 308.28686523 C-19.02708054 304.66304866 -22.05323493 300.68490673 -24.9921875 296.48828125 C-25.81014646 295.40725374 -26.63315284 294.33001473 -27.46264648 293.2578125 C-29.39578703 290.72028061 -31.20262757 288.12848402 -32.9921875 285.48828125 C-34.26127814 283.67456061 -35.53206434 281.862025 -36.8046875 280.05078125 C-37.34738281 279.26832031 -37.89007813 278.48585938 -38.44921875 277.6796875 C-39.44741635 276.26199421 -40.48491284 274.87084628 -41.56640625 273.515625 C-43.15436229 271.25768203 -43.98483875 269.05453091 -44.9921875 266.48828125 C-46.10889264 264.51319312 -47.25677785 262.55551873 -48.4296875 260.61328125 C-50.96609803 256.31968735 -53.13745871 252.12510323 -54.9921875 247.48828125 C-55.76496001 245.8467288 -56.53994958 244.20621931 -57.31640625 242.56640625 C-60.10471229 236.45183295 -62.18764288 230.21182544 -64.1796875 223.80078125 C-64.52193359 222.72505859 -64.86417969 221.64933594 -65.21679688 220.54101562 C-77.83391741 180.53371886 -79.05578612 130.35323424 -64.72705078 90.59667969 C-63.98031906 88.45422946 -63.33163054 86.30206359 -62.70703125 84.12109375 C-60.62647593 76.88603938 -58.15876293 70.33836932 -54.33203125 63.8046875 C-52.60142748 60.81271072 -51.34559416 57.66584471 -49.9921875 54.48828125 C-48.77731964 52.21970147 -47.51566161 49.98225365 -46.2421875 47.74609375 C-45.09249277 45.66945765 -44.06496355 43.57261785 -43.0546875 41.42578125 C-41.68019782 38.6417272 -40.13927959 36.22397135 -38.25 33.76171875 C-37.71995361 33.0658667 -37.18990723 32.37001465 -36.64379883 31.65307617 C-36.09876709 30.93869385 -35.55373535 30.22431152 -34.9921875 29.48828125 C-33.95505435 28.09782654 -32.91987549 26.70591186 -31.88671875 25.3125 C-30.859375 23.93359375 -29.83203125 22.5546875 -28.8046875 21.17578125 C-28.28455078 20.47388672 -27.76441406 19.77199219 -27.22851562 19.04882812 C-26.72384766 18.37271484 -26.21917969 17.69660156 -25.69921875 17 C-25.2503833 16.39631592 -24.80154785 15.79263184 -24.33911133 15.1706543 C-22.97643812 13.46860951 -21.63028493 11.9291367 -19.9921875 10.48828125 C-19.3321875 10.48828125 -18.6721875 10.48828125 -17.9921875 10.48828125 C-17.7859375 9.76640625 -17.5796875 9.04453125 -17.3671875 8.30078125 C-13.48048635 0.35071072 -8.06816966 -0.2289023 0 0 Z " fill="#990E7E" transform="translate(117.9921875,73.51171875)"/>
<path d="M0 0 C9.24 0 18.48 0 28 0 C28.33 39.93 28.66 79.86 29 121 C59.36 90.64 89.72 60.28 121 29 C126.20209134 31.60104567 129.37353356 35.22983343 133.0625 39.625 C135.17702822 42.13292882 137.23283819 44.1907019 140 46 C138.48249326 49.52476555 136.41643113 51.89437888 133.7718811 54.65704346 C132.88403931 55.58809906 131.99619751 56.51915466 131.08145142 57.47842407 C130.09438474 58.50306858 129.1071033 59.52750623 128.11962891 60.55175781 C127.08081169 61.63586457 126.04222285 62.72019021 125.00384521 63.80471802 C115.49179076 73.72185785 105.88716956 83.55007396 96.25982094 93.35518265 C89.79813379 99.93884201 83.36531429 106.54611797 76.99951172 113.22265625 C71.43537604 119.05838362 65.82241723 124.84165273 60.14676225 130.56905627 C57.15032552 133.59601594 54.18200971 136.64144752 51.27086258 139.75070953 C48.51917613 142.68767964 45.70522673 145.54836045 42.8345871 148.36901474 C41.80545977 149.40257415 40.79915492 150.45959054 39.82213211 151.54253769 C36.02081347 155.73315528 33.38693702 157.03162048 28 160 C18.76 160 9.52 160 0 160 C0 107.2 0 54.4 0 0 Z " fill="#980E7D" transform="translate(198,93)"/>
</svg>
