<svg xmlns="http://www.w3.org/2000/svg" width="24" height="24" viewBox="0 0 24 24" fill="none" stroke="currentColor" stroke-width="2" stroke-linecap="round" stroke-linejoin="round" class="lucide lucide-message-square"><path d="M5.8 11.3a1 1 0 0 1 1.8 0l.2.3c.3.5.4 1.1.4 1.7 0 .6-.1 1.2-.4 1.7l-.2.3a1 1 0 0 1-1.8 0l-.2-.3a3.5 3.5 0 0 1 0-3.4l.2-.3Z"/><path d="M18.2 11.3a1 1 0 0 0-1.8 0l-.2.3a3.5 3.5 0 0 0 0 3.4l.2.3a1 1 0 0 0 1.8 0l.2-.3c.3-.5.4-1.1.4-1.7 0-.6-.1-1.2-.4-1.7l-.2-.3Z"/><path d="M22 12c0 5.5-4.5 10-10 10S2 17.5 2 12c0-5.2 4-9.5 9-10 .3 0 .5.2.5.5v1.4c0 .3-.3.5-.5.5-2.8.2-5 2.5-5 5.3 0 2.8 2.2 5.1 5 5.3.3 0 .5.2.5.5v1.4c0 .3-.2.5-.5.5-5-.5-9-4.8-9-10s4-10 9.5-10c5.5 0 10.5 4.5 10.5 10Z"/></svg>