<svg width="256" height="256" viewBox="0 0 256 256" fill="none" xmlns="http://www.w3.org/2000/svg">
<path d="M128 245.76C193.313 245.76 245.76 193.313 245.76 128C245.76 62.6866 193.313 10.24 128 10.24C62.6866 10.24 10.24 62.6866 10.24 128C10.24 193.313 62.6866 245.76 128 245.76Z" fill="#232323"/>
<path d="M112.64 194.56H99.8399V61.44H112.64V194.56Z" fill="url(#paint0_linear_1_2)"/>
<path d="M168.96 61.44H128V84.48L156.16 61.44H168.96Z" fill="url(#paint1_linear_1_2)"/>
<path d="M128 171.52V194.56H168.96L140.8 171.52H128Z" fill="url(#paint2_linear_1_2)"/>
<path d="M128 128L168.96 87.04V171.52L128 128Z" fill="url(#paint3_linear_1_2)"/>
<defs>
<linearGradient id="paint0_linear_1_2" x1="106.24" y1="61.44" x2="106.24" y2="194.56" gradientUnits="userSpaceOnUse">
<stop stop-color="#FF3A5E"/>
<stop offset="1" stop-color="#FF7A3A"/>
</linearGradient>
<linearGradient id="paint1_linear_1_2" x1="128" y1="72.96" x2="168.96" y2="72.96" gradientUnits="userSpaceOnUse">
<stop stop-color="#1DD0E1"/>
<stop offset="1" stop-color="#22E4D2"/>
</linearGradient>
<linearGradient id="paint2_linear_1_2" x1="128" y1="183.04" x2="168.96" y2="183.04" gradientUnits="userSpaceOnUse">
<stop stop-color="#FFC544"/>
<stop offset="1" stop-color="#FFE144"/>
</linearGradient>
<linearGradient id="paint3_linear_1_2" x1="128" y1="128" x2="168.96" y2="128" gradientUnits="userSpaceOnUse">
<stop stop-color="#A583FF"/>
<stop offset="1" stop-color="#D183FF"/>
</linearGradient>
</defs>
</svg>
