<?xml version="1.0" encoding="UTF-8"?>
<svg version="1.1" xmlns="http://www.w3.org/2000/svg" width="225" height="225">
<path d="M0 0 C74.25 0 148.5 0 225 0 C225 74.25 225 148.5 225 225 C150.75 225 76.5 225 0 225 C0 150.75 0 76.5 0 0 Z " fill="#010101" transform="translate(0,0)"/>
<path d="M0 0 C35.14501797 2.51035843 35.14501797 2.51035843 46.6015625 13.32421875 C51.18450299 18.81606643 53.0902937 25.01205331 53.19287109 32.06884766 C53.20893402 33.07734772 53.22499695 34.08584778 53.24154663 35.12490845 C53.28629034 39.73967626 53.32707587 44.35430384 53.35009766 48.96923828 C53.36662671 51.39576834 53.39387593 53.82225033 53.43212891 56.24853516 C53.48718857 59.7622991 53.50881886 63.27492393 53.5234375 66.7890625 C53.54610687 67.86233795 53.56877625 68.9356134 53.59213257 70.04141235 C53.57204737 77.28195053 52.27112627 83.03094233 48 89 C34.4602224 100.33342199 17.66889354 95 0 95 C0 63.65 0 32.3 0 0 Z " fill="#F8F8F8" transform="translate(71,12)"/>
<path d="M0 0 C1.14726563 -0.01224609 2.29453125 -0.02449219 3.4765625 -0.03710938 C12.83313667 -0.05309441 22.01435487 -0.05053761 29.5 6.1875 C34.71127557 11.83304853 35.95605218 16.87379071 35.82421875 24.3984375 C35.15622834 30.14476466 32.1570292 34.79906496 28.5 39.1875 C29.4075 39.8475 30.315 40.5075 31.25 41.1875 C35.992686 45.24463187 38.15458412 49.2303171 38.8828125 55.46484375 C39.16791702 64.21755249 38.32150503 71.53382792 32.65234375 78.4375 C22.1828853 88.77395262 4.5092456 91.2142247 -9.78222656 91.21972656 C-11.0090918 91.2090918 -12.23595703 91.19845703 -13.5 91.1875 C-14.55650065 72.63382396 -14.62392457 54.12489091 -14.56866455 35.54956055 C-14.5582376 31.6599992 -14.55382646 27.77043081 -14.54882812 23.88085938 C-14.53826133 16.31638777 -14.52130858 8.75194981 -14.5 1.1875 C-10.26492615 -0.93003692 -4.65147143 0.00254457 0 0 Z " fill="#F9F9F9" transform="translate(86.5,121.8125)"/>
<path d="M0 0 C6.16160265 3.54516846 9.8932952 8.23102061 12.5 14.875 C12.95258658 18.90207439 12.94418847 22.90779421 12.93359375 26.95703125 C12.9388356 28.12578293 12.94407745 29.29453461 12.94947815 30.498703 C12.9558908 32.96730761 12.9545712 35.4359428 12.94604492 37.90454102 C12.93755278 41.66413407 12.9662811 45.4221982 12.99804688 49.18164062 C12.99965958 51.58593705 12.99908004 53.99023614 12.99609375 56.39453125 C13.01294472 58.06839653 13.01294472 58.06839653 13.03013611 59.77607727 C12.97089094 66.47726893 12.26663037 72.17892572 8.5 77.875 C2.15696955 83.90460919 -4.3632963 84.39891026 -12.75390625 84.21875 C-19.38071921 83.61065872 -23.08222264 80.66037788 -27.375 75.8125 C-30.56725453 71.39967756 -31.74785168 68.71149515 -31.80639648 63.22363281 C-31.82238388 62.08855286 -31.83837128 60.9534729 -31.85484314 59.78399658 C-31.86020584 58.56105896 -31.86556854 57.33812134 -31.87109375 56.078125 C-31.88012222 54.81538757 -31.8891507 53.55265015 -31.89845276 52.25164795 C-31.91296476 49.57842762 -31.92263908 46.90563484 -31.92553711 44.23242188 C-31.93090781 40.82496673 -31.9685376 37.41870453 -32.01428127 34.01158524 C-32.05138362 30.74217062 -32.05257534 27.47272172 -32.05859375 24.203125 C-32.07812607 22.9882843 -32.09765839 21.7734436 -32.11778259 20.52178955 C-32.07998872 13.38497832 -31.37696995 8.29788491 -26.5 2.875 C-19.00168384 -3.99242653 -9.06575035 -4.16753897 0 0 Z " fill="#F9F9F9" transform="translate(160.5,24.125)"/>
<path d="M0 0 C4.64515079 2.30614983 7.66741958 5.33483916 10 10 C10.10948012 11.43796376 10.15900142 12.88074085 10.17700195 14.32275391 C10.19625481 15.6652269 10.19625481 15.6652269 10.21589661 17.03482056 C10.22328354 18.0055954 10.23067047 18.97637024 10.23828125 19.9765625 C10.246353 20.97577728 10.25442474 21.97499207 10.26274109 23.00448608 C10.27659093 25.12455507 10.28730904 27.24464643 10.29516602 29.36474609 C10.3123206 32.59125818 10.35619219 35.81673012 10.40039062 39.04296875 C10.4105227 41.10415914 10.41903719 43.16535824 10.42578125 45.2265625 C10.44328934 46.18519196 10.46079742 47.14382141 10.47883606 48.13150024 C10.45599612 55.26628758 8.96124408 60.64392338 4.18359375 66.05859375 C3.60738281 66.51363281 3.03117187 66.96867187 2.4375 67.4375 C1.85871094 67.91058594 1.27992188 68.38367188 0.68359375 68.87109375 C-4.15175092 72.11335502 -10.43946279 71.6748937 -16 71 C-19.23193357 69.37798091 -21.36169892 67.27660215 -23 64 C-23.11047862 62.37287731 -23.15912921 60.74136679 -23.17700195 59.1105957 C-23.18983719 58.09226151 -23.20267242 57.07392731 -23.21589661 56.0247345 C-23.22328354 54.91957993 -23.23067047 53.81442535 -23.23828125 52.67578125 C-23.246353 51.54101852 -23.25442474 50.4062558 -23.26274109 49.23710632 C-23.27659209 46.83036837 -23.28730968 44.42361069 -23.29516602 42.0168457 C-23.3123487 38.34483261 -23.35622374 34.67372668 -23.40039062 31.00195312 C-23.41052001 28.66406912 -23.41903534 26.32617746 -23.42578125 23.98828125 C-23.44328934 22.89324783 -23.46079742 21.79821442 -23.47883606 20.66999817 C-23.45557142 12.44668768 -21.84034855 8.42298415 -16.5625 2.0625 C-11.97506649 -1.50158295 -5.45533715 -0.81932473 0 0 Z " fill="#020202" transform="translate(157,126)"/>
<path d="M0 0 C0 8.25 0 16.5 0 25 C-54.78 25 -109.56 25 -166 25 C-166 24.67 -166 24.34 -166 24 C-159.61833351 23.0358604 -153.2360186 22.07609995 -146.85327148 21.11914062 C-144.6897145 20.79426197 -142.52629845 20.46844303 -140.36303711 20.14160156 C-128.71085177 18.38176259 -117.07176605 16.68450622 -105.35571289 15.40771484 C-101.68754744 14.96203741 -98.13144264 14.27132482 -94.5234375 13.4921875 C-90.89680452 12.78482565 -87.2433794 12.34771467 -83.5793457 11.87963867 C-77.72463357 11.11967544 -71.89520772 10.22484219 -66.0625 9.3125 C-53.67570255 7.38440716 -41.27549421 5.5504632 -28.87179565 3.73471069 C-26.66703048 3.41177996 -24.46237917 3.08807081 -22.25784302 2.76358032 C-19.13184858 2.30372562 -16.00544518 1.84676118 -12.87890625 1.390625 C-11.92689331 1.25019272 -10.97488037 1.10976044 -9.99401855 0.96507263 C-9.11628784 0.83770218 -8.23855713 0.71033173 -7.33422852 0.57910156 C-6.56659683 0.46681213 -5.79896515 0.35452271 -5.0080719 0.23883057 C-3 0 -3 0 0 0 Z " fill="#FAFAFA" transform="translate(225,200)"/>
<path d="M0 0 C55.11 0 110.22 0 167 0 C167 7.92 167 15.84 167 24 C161.18998376 24 156.92639601 23.77103862 151.390625 22.6875 C140.89723062 20.71905486 130.3350357 19.37110936 119.75 18 C80.71418808 12.9057768 80.71418808 12.9057768 67.359375 10.46875 C59.16300616 8.97336203 50.9354814 7.85668265 42.67144775 6.8074646 C38.53254442 6.28192518 34.3952809 5.74373032 30.2578125 5.20703125 C29.45362885 5.1030452 28.64944519 4.99905914 27.82089233 4.891922 C18.53390746 3.68751783 9.26442574 2.36633617 0 1 C0 0.67 0 0.34 0 0 Z " fill="#FAFAFA" transform="translate(58,0)"/>
<path d="M0 0 C4.2054558 1.8304558 4.2054558 1.8304558 5.4375 3.0625 C5.03591673 7.14526326 4.58897536 11.11458447 3.4375 15.0625 C2.674375 14.7325 1.91125 14.4025 1.125 14.0625 C-3.7468375 12.74132373 -8.53852044 12.50428005 -13.5625 13.0625 C-15.8576652 14.90867187 -15.8576652 14.90867187 -15.6875 17.75 C-13.50452609 24.17764541 -7.46771101 27.53816213 -1.9375 31.0625 C2.36490647 33.86165602 5.48446263 36.87080257 8.4375 41.0625 C8.85128906 41.63355469 9.26507813 42.20460937 9.69140625 42.79296875 C13.51355135 49.03891319 13.24105097 55.97136981 12.4375 63.0625 C10.76859656 69.30360635 6.73253128 73.51200339 1.4375 77.0625 C-4.60773935 79.07757978 -11.47742792 79.22511128 -17.46484375 76.96875 C-22.60542876 74.06219366 -27.26191257 70.65119115 -29.5625 65.0625 C-30.2177533 61.6720606 -30.4199091 58.53221195 -30.5625 55.0625 C-24.6225 54.5675 -24.6225 54.5675 -18.5625 54.0625 C-17.61848958 56.08072917 -16.67447917 58.09895833 -15.73046875 60.1171875 C-14.56782903 62.36792806 -14.56782903 62.36792806 -11.5625 64.0625 C-7.52981397 64.28166772 -3.75800286 63.96818399 -0.5 61.5 C0.91557589 57.8195027 1.44591102 54.86084818 0.4375 51.0625 C-3.85636543 43.86839214 -10.49299811 40.08656136 -17.55859375 35.9765625 C-22.56706214 32.78521073 -26.33225371 28.63315962 -28.5625 23.0625 C-29.21139804 17.22241761 -29.41376223 11.85960915 -26.875 6.5 C-18.81036385 -2.00056243 -11.11372839 -4.38490001 0 0 Z " fill="#F8F8F8" transform="translate(205.5625,30.9375)"/>
<path d="M0 0 C10.27642276 0 10.27642276 0 14.3125 1.625 C15.51326172 2.07746094 15.51326172 2.07746094 16.73828125 2.5390625 C19.79656756 4.51453586 21.57687028 6.6911588 23 10 C23.59281407 13.72247465 23.58455945 17.40047126 23.56640625 21.1640625 C23.57570412 22.76850723 23.57570412 22.76850723 23.58518982 24.40536499 C23.5922755 26.659557 23.58913596 28.91380149 23.57641602 31.16796875 C23.56251705 34.6207651 23.59668221 38.07086844 23.63476562 41.5234375 C23.63571653 43.7161465 23.63385954 45.90885889 23.62890625 48.1015625 C23.64216446 49.13391022 23.65542267 50.16625793 23.66908264 51.22988892 C23.65654953 52.19123749 23.64401642 53.15258606 23.63110352 54.14306641 C23.62966087 55.4083165 23.62966087 55.4083165 23.62818909 56.6991272 C23 59 23 59 18 63 C12.06 63 6.12 63 0 63 C0 42.21 0 21.42 0 0 Z " fill="#010101" transform="translate(87,30)"/>
<path d="M0 0 C3.56618328 2.72086576 5.85184785 6.1204494 7.58203125 10.20703125 C7.85618591 12.63957214 7.85618591 12.63957214 7.88842773 15.38354492 C7.90441513 16.41529343 7.92040253 17.44704193 7.93687439 18.51005554 C7.94223709 19.62048721 7.94759979 20.73091888 7.953125 21.875 C7.96666771 23.59907829 7.96666771 23.59907829 7.98048401 25.35798645 C7.99499228 27.79144689 8.00387467 30.22494638 8.00756836 32.65844727 C8.0194318 36.36347172 8.06858763 40.06681298 8.11914062 43.77148438 C8.12860894 46.13931482 8.13584202 48.50715546 8.140625 50.875 C8.16015732 51.97531052 8.17968964 53.07562103 8.19981384 54.20927429 C8.15232551 62.39398959 6.27653982 68.34167836 0.5546875 74.328125 C-0.07566406 74.76253906 -0.70601562 75.19695312 -1.35546875 75.64453125 C-1.98324219 76.09699219 -2.61101562 76.54945313 -3.2578125 77.015625 C-10.00241672 80.73552425 -16.88437224 81.08089165 -24.41796875 80.20703125 C-29.42433796 78.51196136 -31.72558222 76.33289281 -34.4921875 71.83422852 C-37.12810611 66.42852021 -36.9759244 61.21207592 -36.9140625 55.296875 C-36.91624535 53.60746544 -36.91624535 53.60746544 -36.91847229 51.88392639 C-36.91681881 49.51300457 -36.90531966 47.1420714 -36.88452148 44.77124023 C-36.85553152 41.15236638 -36.8639327 37.53495613 -36.87695312 33.91601562 C-36.87071599 31.60546167 -36.86232525 29.29491231 -36.8515625 26.984375 C-36.85449814 25.90816391 -36.85743378 24.83195282 -36.86045837 23.72312927 C-36.74564391 14.53801745 -34.6261096 8.72964677 -28.28515625 1.94140625 C-20.92155403 -4.8984251 -8.46648228 -5.04424102 0 0 Z M-26.05078125 7.30859375 C-30.70651309 13.77340996 -30.88528646 19.2226634 -30.88671875 26.95703125 C-30.89433228 28.08850586 -30.9019458 29.21998047 -30.90979004 30.38574219 C-30.92057279 32.77276406 -30.92345159 35.15983303 -30.91894531 37.546875 C-30.91797201 41.19481032 -30.95963887 44.8406488 -31.00390625 48.48828125 C-31.00911278 50.81119354 -31.01180145 53.13411313 -31.01171875 55.45703125 C-31.02811401 56.54467773 -31.04450928 57.63232422 -31.06140137 58.75292969 C-31.04344887 65.28953188 -31.04344887 65.28953188 -28.00585938 70.87890625 C-23.57555932 74.86450449 -20.19600788 74.49021553 -14.39453125 74.4140625 C-8.79869376 74.02485071 -5.82504823 71.84781948 -2.16796875 67.83203125 C2.82333372 61.95517511 2.90082452 56.27415334 2.91796875 48.8671875 C2.92462555 47.86747421 2.93128235 46.86776093 2.93814087 45.8377533 C2.94824851 43.72722204 2.95295847 41.61665895 2.95263672 39.50610352 C2.95701143 36.28413109 2.99335597 33.06352729 3.03125 29.84179688 C3.03711829 27.78776509 3.0410876 25.73372681 3.04296875 23.6796875 C3.05733978 22.72014664 3.07171082 21.76060577 3.08651733 20.77198792 C3.0387589 13.75278717 1.58138517 10.6862818 -2.98046875 5.39453125 C-6.89037763 2.16460652 -12.38566823 2.75953559 -17.17578125 2.796875 C-21.2407948 3.3111237 -23.17476672 4.49218574 -26.05078125 7.30859375 Z " fill="#F0F0F0" transform="translate(164.41796875,122.79296875)"/>
<path d="M0 0 C3.06700597 1.72439547 5.40263593 3.80527187 7 7 C7.10894693 8.35661238 7.15893147 9.71824153 7.17700195 11.07910156 C7.18983719 11.92047668 7.20267242 12.76185181 7.21589661 13.62872314 C7.22328354 14.54015076 7.23067047 15.45157837 7.23828125 16.390625 C7.246353 17.327995 7.25442474 18.26536499 7.26274109 19.23114014 C7.27658686 21.21836495 7.28730681 23.20561359 7.29516602 25.19287109 C7.31235312 28.22409545 7.35623164 31.2542219 7.40039062 34.28515625 C7.41051983 36.21613781 7.41903522 38.14712865 7.42578125 40.078125 C7.44328934 40.98145569 7.46079742 41.88478638 7.47883606 42.81549072 C7.45772612 48.97755776 6.45994403 52.54005597 2 57 C-0.109375 57.2734375 -0.109375 57.2734375 -2.75 57.375 C-3.61109375 57.42398438 -4.4721875 57.47296875 -5.359375 57.5234375 C-9.33747455 56.73487931 -10.56005604 55.23226715 -13 52 C-13.73565544 48.3846601 -13.67712378 44.83128823 -13.62890625 41.15234375 C-13.63131821 40.10349503 -13.63373016 39.0546463 -13.63621521 37.97401428 C-13.63523732 35.76087658 -13.62185765 33.54771425 -13.59692383 31.3347168 C-13.56258216 27.94560828 -13.57627736 24.55910244 -13.59570312 21.16992188 C-13.58880558 19.01821806 -13.57913403 16.86652098 -13.56640625 14.71484375 C-13.57136612 13.70123276 -13.57632599 12.68762177 -13.58143616 11.64329529 C-13.46407043 4.64303582 -13.46407043 4.64303582 -11.09887695 1.36572266 C-7.48344747 -0.98680875 -4.14675588 -0.85374386 0 0 Z " fill="#050505" transform="translate(155,37)"/>
<path d="M0 0 C2.31 0 4.62 0 7 0 C7.62829712 1.26444946 7.62829712 1.26444946 8.26928711 2.55444336 C9.82009945 5.67308154 11.3726918 8.79081988 12.92651367 11.90795898 C13.59943418 13.25883755 14.27163718 14.61007378 14.94311523 15.96166992 C15.90681845 17.90116709 16.87307068 19.83937536 17.83984375 21.77734375 C18.42113037 22.94515381 19.00241699 24.11296387 19.60131836 25.31616211 C20.75226248 27.85235201 20.75226248 27.85235201 22 29 C22.41362793 28.22809326 22.82725586 27.45618652 23.25341797 26.66088867 C24.79160088 23.79207603 26.33113422 20.92399351 27.87158203 18.05639648 C28.53748769 16.81612694 29.20285736 15.57556947 29.86767578 14.3347168 C30.82443064 12.54920344 31.78312056 10.76474103 32.7421875 8.98046875 C33.60626221 7.37014771 33.60626221 7.37014771 34.48779297 5.72729492 C36 3 36 3 38 0 C40.625 -0.1875 40.625 -0.1875 43 0 C41.6166772 4.56881622 39.76138607 8.56058668 37.48828125 12.75390625 C36.80607633 14.03290229 36.12445272 15.31220855 35.44335938 16.59179688 C34.37623282 18.58542471 33.30492684 20.57640534 32.22338867 22.56225586 C31.17383919 24.4945595 30.14241674 26.43567193 29.11328125 28.37890625 C28.18189331 30.10475952 28.18189331 30.10475952 27.23168945 31.86547852 C25.87099249 35.32831068 25.75723685 36.55325503 27 40 C27.87895638 41.80341128 28.83117947 43.57212668 29.8359375 45.30859375 C30.40570313 46.30310547 30.97546875 47.29761719 31.5625 48.32226562 C32.160625 49.35029297 32.75875 50.37832031 33.375 51.4375 C43 68.13414301 43 68.13414301 43 71 C41.02 71 39.04 71 37 71 C35.41524955 68.00074658 33.83246479 65.00045992 32.25 62 C31.8065625 61.16082031 31.363125 60.32164062 30.90625 59.45703125 C30.46796875 58.62558594 30.0296875 57.79414063 29.578125 56.9375 C29.14306641 56.1125 28.70800781 55.2875 28.25976562 54.4375 C27.06329047 52.1224597 25.92685329 49.78550683 24.796875 47.4375 C23.40557419 43.9588327 23.40557419 43.9588327 21 43 C20.73646729 43.85682373 20.47293457 44.71364746 20.20141602 45.59643555 C18.97449825 49.07224546 17.47985588 52.18948889 15.77734375 55.45703125 C15.47180069 56.0454631 15.16625763 56.63389496 14.85145569 57.24015808 C14.21057734 58.47230137 13.56759896 59.70335446 12.92260742 60.93334961 C11.93242204 62.82218651 10.94911013 64.71448098 9.96679688 66.60742188 C5.15269328 75.84730672 5.15269328 75.84730672 4 77 C2.00041636 77.04080783 -0.00045254 77.04254356 -2 77 C-0.65615691 72.63996667 1.04370683 68.72669839 3.15234375 64.68359375 C3.45314346 64.10464859 3.75394318 63.52570343 4.06385803 62.92921448 C4.69635432 61.71386059 5.33094229 60.49959317 5.9675293 59.28637695 C6.93547888 57.4413525 7.89699035 55.59308791 8.85742188 53.74414062 C13.77231375 44.3154151 13.77231375 44.3154151 15.76782227 41.55102539 C17.51470695 37.93438223 16.96509093 35.86294626 16 32 C14.87655706 29.42653388 13.72979726 27.02958785 12.40234375 24.5703125 C12.04862198 23.89451141 11.69490021 23.21871033 11.33045959 22.52243042 C10.20919031 20.38466515 9.07394935 18.25472777 7.9375 16.125 C6.80046798 13.97239219 5.66634668 11.81828536 4.53382874 9.66329956 C3.83041848 8.32720463 3.12382583 6.99277949 2.4138031 5.66018677 C0 1.10839997 0 1.10839997 0 0 Z " fill="#F2F2F2" transform="translate(174,121)"/>
<path d="M0 0 C18.72887704 6.49469123 37.36279702 13.24789794 56 20 C56 20.33 56 20.66 56 21 C37.52 21 19.04 21 0 21 C0 14.07 0 7.14 0 0 Z " fill="#FCFCFC" transform="translate(0,204)"/>
<path d="M0 0 C2.22698735 3.34048103 2.2711921 4.53285581 2.25 8.4375 C2.25515625 9.38496094 2.2603125 10.33242187 2.265625 11.30859375 C1.98877448 14.11374094 1.59148061 15.68603771 0 18 C-1.83984375 19.23046875 -1.83984375 19.23046875 -3.9375 20.1875 C-4.62714844 20.51105469 -5.31679687 20.83460938 -6.02734375 21.16796875 C-11.72323674 23.5703949 -13.56403913 23 -21 23 C-21 14.75 -21 6.5 -21 -2 C-6.66502463 -4.38916256 -6.66502463 -4.38916256 0 0 Z " fill="#030303" transform="translate(108,175)"/>
<path d="M0 0 C18.15 0 36.3 0 55 0 C52.65613573 2.34386427 51.37521225 2.57506627 48.1875 3.33203125 C47.20249512 3.57083008 46.21749023 3.80962891 45.20263672 4.05566406 C43.61733154 4.43029785 43.61733154 4.43029785 42 4.8125 C39.81465654 5.34321225 37.62976374 5.87578345 35.4453125 6.41015625 C34.35766602 6.67586426 33.27001953 6.94157227 32.14941406 7.21533203 C27.70439353 8.32279684 23.2866935 9.51718301 18.875 10.75 C17.80378906 11.04741089 17.80378906 11.04741089 16.7109375 11.35083008 C13.70791894 12.19506811 10.75738684 13.08703077 7.8203125 14.140625 C5 15 5 15 0 15 C0 10.05 0 5.1 0 0 Z " fill="#FAFAFA" transform="translate(0,0)"/>
<path d="M0 0 C2.0625 -0.04125 4.125 -0.0825 6.25 -0.125 C7.99023438 -0.15980469 7.99023438 -0.15980469 9.765625 -0.1953125 C12.84681133 -0.00925052 14.4785909 0.28304047 17 2 C18.34283649 4.68567297 18.24287519 6.87746853 18.3125 9.875 C18.34988281 10.92429688 18.38726562 11.97359375 18.42578125 13.0546875 C17.89873684 16.70048092 16.87397173 17.77267191 14 20 C8.89580751 21.92611038 5.6620419 22 0 22 C0 14.74 0 7.48 0 0 Z " fill="#030303" transform="translate(87,137)"/>
</svg>
