<svg width="256" height="256" viewBox="0 0 256 256" fill="none" xmlns="http://www.w3.org/2000/svg">
<rect width="256" height="256" rx="30" fill="black"/>
<path d="M46 170.2L85.2 129.8L46 89.4V170.2Z" fill="white"/>
<path d="M102.3 129.8L121.9 148.9L141.5 129.8L121.9 110.7L102.3 129.8Z" fill="white"/>
<path d="M210 178C197.8 178 188.7 167.9 188.7 157.2C188.7 146.5 197.8 136.4 210 136.4C213.9 136.4 216.7 137.1 218.9 138.2L222.1 129.8C218.9 128.4 214.9 127.7 210 127.7C191.8 127.7 179.3 140.9 179.3 157.2C179.3 173.5 191.8 186.7 210 186.7C214.9 186.7 218.9 186 222.1 184.6L218.9 176.2C216.7 177.3 213.9 178 210 178Z" fill="white"/>
<path d="M129.2 119.8L114.7 105.8L93 129.8L114.7 153.8L129.2 139.8L107.5 129.8L129.2 119.8Z" fill="#888888"/>
<path d="M185.3 105.8L170.8 119.8L192.5 129.8L170.8 139.8L185.3 153.8L207 129.8L185.3 105.8Z" fill="white"/>
</svg>