<?xml version="1.0" encoding="UTF-8"?>
<svg version="1.1" xmlns="http://www.w3.org/2000/svg" width="284" height="284">
<path d="M0 0 C93.72 0 187.44 0 284 0 C284 93.72 284 187.44 284 284 C190.28 284 96.56 284 0 284 C0 190.28 0 96.56 0 0 Z " fill="#FCFAFE" transform="translate(0,0)"/>
<path d="M0 0 C0.94875 0.495 1.8975 0.99 2.875 1.5 C2.875 2.16 2.875 2.82 2.875 3.5 C3.865 3.87125 3.865 3.87125 4.875 4.25 C10.94818161 6.78049234 16.43826167 9.8144237 22 13.3125 C28.74441124 17.52676869 35.70599975 21.06059958 42.875 24.5 C42.875 25.16 42.875 25.82 42.875 26.5 C43.6071875 26.78617188 44.339375 27.07234375 45.09375 27.3671875 C53.1226651 30.63739169 60.42436569 34.98056468 67.75390625 39.58203125 C70.42190394 41.22156425 73.10684226 42.72742346 75.875 44.1875 C82.31124996 47.71211307 86.54552364 52.51157091 88.875 59.5 C88.98225844 62.55194768 89.03227831 65.58139069 89.03613281 68.63378906 C89.04109772 69.56907944 89.04606262 70.50436981 89.05117798 71.46800232 C89.06580193 74.56721733 89.0726025 77.66638113 89.078125 80.765625 C89.08387688 82.91933188 89.08963461 85.07303875 89.09539795 87.22674561 C89.10590903 91.74605549 89.11175079 96.26534758 89.11523438 100.78466797 C89.12071502 106.56949133 89.14473357 112.35407882 89.17320633 118.13882828 C89.19185177 122.58956585 89.19703936 127.04024687 89.19857025 131.4910202 C89.2015937 133.62322019 89.20961182 135.75541925 89.22275543 137.88758087 C89.23985322 140.87477929 89.23792627 143.861405 89.23144531 146.84863281 C89.2406601 147.72577438 89.24987488 148.60291595 89.2593689 149.50663757 C89.22247112 154.94912602 88.34781542 158.64095004 85.875 163.5 C85.42125 164.428125 84.9675 165.35625 84.5 166.3125 C82.55513858 168.93058268 80.95988284 169.58287267 77.875 170.5 C77.875 171.16 77.875 171.82 77.875 172.5 C77.16730469 172.76554688 76.45960938 173.03109375 75.73046875 173.3046875 C71.73830364 174.97582638 68.06369781 177.12939691 64.30078125 179.2578125 C61.875 180.5 61.875 180.5 59.875 180.5 C59.875 181.16 59.875 181.82 59.875 182.5 C58.9571875 182.94730469 58.039375 183.39460937 57.09375 183.85546875 C51.28943321 186.70612829 45.58359975 189.53919294 40.16015625 193.07421875 C36.98207158 195.05712628 33.70903993 196.86498582 30.4375 198.6875 C23.83119182 202.36971735 17.29827666 206.16167294 10.81079102 210.04956055 C-6.32139409 220.24096058 -6.32139409 220.24096058 -16.125 218.5 C-20.66629316 216.51354307 -24.86303266 214.02095117 -29.125 211.5 C-31.22482204 210.34622412 -33.32865583 209.19970168 -35.4375 208.0625 C-37.00020012 207.20869951 -38.56278119 206.35468083 -40.125 205.5 C-40.125 204.84 -40.125 204.18 -40.125 203.5 C-41.775 203.17 -43.425 202.84 -45.125 202.5 C-45.125 201.84 -45.125 201.18 -45.125 200.5 C-45.81078125 200.41105469 -46.4965625 200.32210937 -47.203125 200.23046875 C-50.79656759 199.3321081 -53.71768682 197.68172935 -56.875 195.8125 C-57.49189697 195.45454346 -58.10879395 195.09658691 -58.74438477 194.7277832 C-63.00099509 192.23387108 -67.09120757 189.54713908 -71.15234375 186.74609375 C-73.0976468 185.51727856 -74.99617959 184.61443011 -77.125 183.75 C-80.125 182.5 -80.125 182.5 -81.125 180.5 C-82.73287616 179.81579738 -84.34268577 179.13585024 -85.9609375 178.4765625 C-95.36343838 174.23355669 -103.57812404 168.93055754 -108.125 159.5 C-109.41746773 154.83341345 -109.28694096 150.14316547 -109.30200195 145.33862305 C-109.30857315 144.42415405 -109.31514435 143.50968506 -109.32191467 142.56750488 C-109.34158443 139.54890859 -109.35329511 136.53036186 -109.36328125 133.51171875 C-109.36939454 131.96143447 -109.36939454 131.96143447 -109.37563133 130.37983131 C-109.39646338 124.91118191 -109.41077847 119.44255741 -109.42016602 113.97387695 C-109.43123485 108.33486546 -109.46564871 102.69624805 -109.50533772 97.05737591 C-109.53151338 92.71211527 -109.53985863 88.36694853 -109.54344749 84.02161598 C-109.54830959 81.94325913 -109.55991276 79.86490637 -109.57848549 77.78662682 C-109.60290075 74.87395516 -109.60190763 71.96230376 -109.5949707 69.04956055 C-109.60778076 68.19785782 -109.62059082 67.34615509 -109.63378906 66.46864319 C-109.57599186 59.78386661 -107.6997849 54.7567205 -103.546875 49.50390625 C-97.43952065 44.23845355 -90.44156908 40.58225358 -83.39599609 36.75195312 C-79.43397486 34.56777285 -75.53281421 32.27929407 -71.625 30 C-64.96976287 26.12990818 -58.28170424 22.32553229 -51.56176758 18.5690918 C-47.94223096 16.54014581 -44.36024986 14.46569409 -40.8125 12.3125 C-11.97773735 -5.18220473 -11.97773735 -5.18220473 0 0 Z " fill="#FAF9FC" transform="translate(152.125,31.5)"/>
<path d="M0 0 C0.94875 0.495 1.8975 0.99 2.875 1.5 C2.875 2.16 2.875 2.82 2.875 3.5 C3.865 3.87125 3.865 3.87125 4.875 4.25 C10.94818161 6.78049234 16.43826167 9.8144237 22 13.3125 C28.74441124 17.52676869 35.70599975 21.06059958 42.875 24.5 C42.875 25.16 42.875 25.82 42.875 26.5 C43.6071875 26.78617188 44.339375 27.07234375 45.09375 27.3671875 C53.1226651 30.63739169 60.42436569 34.98056468 67.75390625 39.58203125 C70.42190394 41.22156425 73.10684226 42.72742346 75.875 44.1875 C82.31124996 47.71211307 86.54552364 52.51157091 88.875 59.5 C88.98225844 62.55194768 89.03227831 65.58139069 89.03613281 68.63378906 C89.04109772 69.56907944 89.04606262 70.50436981 89.05117798 71.46800232 C89.06580193 74.56721733 89.0726025 77.66638113 89.078125 80.765625 C89.08387688 82.91933188 89.08963461 85.07303875 89.09539795 87.22674561 C89.10590903 91.74605549 89.11175079 96.26534758 89.11523438 100.78466797 C89.12071502 106.56949133 89.14473357 112.35407882 89.17320633 118.13882828 C89.19185177 122.58956585 89.19703936 127.04024687 89.19857025 131.4910202 C89.2015937 133.62322019 89.20961182 135.75541925 89.22275543 137.88758087 C89.23985322 140.87477929 89.23792627 143.861405 89.23144531 146.84863281 C89.2406601 147.72577438 89.24987488 148.60291595 89.2593689 149.50663757 C89.22247112 154.94912602 88.34781542 158.64095004 85.875 163.5 C85.42125 164.428125 84.9675 165.35625 84.5 166.3125 C82.55513858 168.93058268 80.95988284 169.58287267 77.875 170.5 C77.875 171.16 77.875 171.82 77.875 172.5 C77.16730469 172.76554688 76.45960938 173.03109375 75.73046875 173.3046875 C71.73830364 174.97582638 68.06369781 177.12939691 64.30078125 179.2578125 C61.875 180.5 61.875 180.5 59.875 180.5 C59.875 181.16 59.875 181.82 59.875 182.5 C58.9571875 182.94730469 58.039375 183.39460937 57.09375 183.85546875 C51.28943321 186.70612829 45.58359975 189.53919294 40.16015625 193.07421875 C36.98207158 195.05712628 33.70903993 196.86498582 30.4375 198.6875 C23.83119182 202.36971735 17.29827666 206.16167294 10.81079102 210.04956055 C-6.32139409 220.24096058 -6.32139409 220.24096058 -16.125 218.5 C-20.66629316 216.51354307 -24.86303266 214.02095117 -29.125 211.5 C-31.22482204 210.34622412 -33.32865583 209.19970168 -35.4375 208.0625 C-37.00020012 207.20869951 -38.56278119 206.35468083 -40.125 205.5 C-40.125 204.84 -40.125 204.18 -40.125 203.5 C-41.775 203.17 -43.425 202.84 -45.125 202.5 C-45.125 201.84 -45.125 201.18 -45.125 200.5 C-45.81078125 200.41105469 -46.4965625 200.32210937 -47.203125 200.23046875 C-50.79656759 199.3321081 -53.71768682 197.68172935 -56.875 195.8125 C-57.49189697 195.45454346 -58.10879395 195.09658691 -58.74438477 194.7277832 C-63.00099509 192.23387108 -67.09120757 189.54713908 -71.15234375 186.74609375 C-73.0976468 185.51727856 -74.99617959 184.61443011 -77.125 183.75 C-80.125 182.5 -80.125 182.5 -81.125 180.5 C-82.73287616 179.81579738 -84.34268577 179.13585024 -85.9609375 178.4765625 C-95.36343838 174.23355669 -103.57812404 168.93055754 -108.125 159.5 C-109.41746773 154.83341345 -109.28694096 150.14316547 -109.30200195 145.33862305 C-109.30857315 144.42415405 -109.31514435 143.50968506 -109.32191467 142.56750488 C-109.34158443 139.54890859 -109.35329511 136.53036186 -109.36328125 133.51171875 C-109.36939454 131.96143447 -109.36939454 131.96143447 -109.37563133 130.37983131 C-109.39646338 124.91118191 -109.41077847 119.44255741 -109.42016602 113.97387695 C-109.43123485 108.33486546 -109.46564871 102.69624805 -109.50533772 97.05737591 C-109.53151338 92.71211527 -109.53985863 88.36694853 -109.54344749 84.02161598 C-109.54830959 81.94325913 -109.55991276 79.86490637 -109.57848549 77.78662682 C-109.60290075 74.87395516 -109.60190763 71.96230376 -109.5949707 69.04956055 C-109.60778076 68.19785782 -109.62059082 67.34615509 -109.63378906 66.46864319 C-109.57599186 59.78386661 -107.6997849 54.7567205 -103.546875 49.50390625 C-97.43952065 44.23845355 -90.44156908 40.58225358 -83.39599609 36.75195312 C-79.43397486 34.56777285 -75.53281421 32.27929407 -71.625 30 C-64.96976287 26.12990818 -58.28170424 22.32553229 -51.56176758 18.5690918 C-47.94223096 16.54014581 -44.36024986 14.46569409 -40.8125 12.3125 C-11.97773735 -5.18220473 -11.97773735 -5.18220473 0 0 Z M-15.9375 23.3125 C-19.5983968 25.57675409 -23.25658225 27.60694451 -27.125 29.5 C-30.13805057 31.14348213 -33.13330613 32.81800322 -36.125 34.5 C-36.125 35.16 -36.125 35.82 -36.125 36.5 C-36.63675781 36.58765625 -37.14851563 36.6753125 -37.67578125 36.765625 C-41.12770873 37.8006527 -44.16570817 39.52864443 -47.3125 41.25 C-47.97652832 41.60980957 -48.64055664 41.96961914 -49.32470703 42.34033203 C-50.64935719 43.05920688 -51.97295039 43.78003325 -53.29541016 44.50292969 C-54.88320353 45.36822834 -56.47810421 46.22046078 -58.07421875 47.0703125 C-58.87472656 47.50085938 -59.67523438 47.93140625 -60.5 48.375 C-61.18835938 48.74367188 -61.87671875 49.11234375 -62.5859375 49.4921875 C-64.2996595 50.42991859 -64.2996595 50.42991859 -65.125 52.5 C-66.73084692 53.18333912 -68.33897178 53.8617288 -69.95703125 54.515625 C-74.22488075 56.45345937 -78.14256613 59.04139131 -82.125 61.5 C-82.988405 61.85230179 -83.85181 62.20460358 -84.74137878 62.56758118 C-87.52851103 64.38880073 -87.52851103 64.38880073 -87.72627258 68.20158386 C-87.74078733 69.7739293 -87.72742573 71.34667385 -87.69262695 72.91870117 C-87.69335709 73.77745346 -87.69408722 74.63620575 -87.69483948 75.52098083 C-87.69135322 78.36228385 -87.65244384 81.20195182 -87.61328125 84.04296875 C-87.6039568 86.01165369 -87.59683895 87.98035022 -87.59184265 89.9490509 C-87.57274391 95.13284286 -87.5236181 100.31593529 -87.46832275 105.49945068 C-87.4171924 110.78794897 -87.39434189 116.07656021 -87.36914062 121.36523438 C-87.31550234 131.74379708 -87.23015457 142.12184039 -87.125 152.5 C-86.135 152.5 -85.145 152.5 -84.125 152.5 C-84.125 153.16 -84.125 153.82 -84.125 154.5 C-83.44695312 154.86351562 -82.76890625 155.22703125 -82.0703125 155.6015625 C-76.33531378 158.699415 -70.72669016 161.9112676 -65.21875 165.3984375 C-63.07681281 166.73280516 -63.07681281 166.73280516 -60.125 166.5 C-60.125 167.16 -60.125 167.82 -60.125 168.5 C-58.87764433 169.1509259 -57.62698168 169.79551669 -56.375 170.4375 C-55.67890625 170.79714844 -54.9828125 171.15679687 -54.265625 171.52734375 C-52.22275567 172.45558182 -50.31384624 173.03166578 -48.125 173.5 C-48.125 174.16 -48.125 174.82 -48.125 175.5 C-46.97 176.056875 -45.815 176.61375 -44.625 177.1875 C-41.59457812 178.68930199 -38.76561404 180.33441194 -35.9375 182.1875 C-33.020788 184.06294007 -30.64218629 185.17026379 -27.125 185.5 C-27.125 186.16 -27.125 186.82 -27.125 187.5 C-26.3 187.891875 -25.475 188.28375 -24.625 188.6875 C-21.28123088 190.41909472 -18.36795944 192.37781341 -15.34765625 194.609375 C-11.92838667 195.97948654 -9.67843162 195.36334678 -6.125 194.5 C-3.33718878 193.25468686 -0.74278723 191.75466189 1.875 190.1875 C2.88433594 189.6006543 2.88433594 189.6006543 3.9140625 189.00195312 C5.26066068 188.21817059 6.60443837 187.42952164 7.9453125 186.63598633 C9.72306924 185.58944001 11.51712243 184.57070799 13.3125 183.5546875 C18.36501276 180.67827824 23.2773728 177.56537543 28.203125 174.47851562 C32.65263918 171.72783806 37.00776169 169.42230024 41.875 167.5 C41.875 166.84 41.875 166.18 41.875 165.5 C42.66426376 165.26017899 43.45352753 165.02035797 44.26670837 164.77326965 C58.02575315 160.16664901 58.02575315 160.16664901 67.97751999 150.40973282 C69.68975881 144.53576957 69.3628618 138.5111232 69.15234375 132.45703125 C69.14735667 130.51894192 69.14906515 128.58082498 69.15711975 126.64274597 C69.15355731 122.59588088 69.08543947 118.55707617 68.9675293 114.51196289 C68.81974045 109.34098507 68.80978117 104.18105745 68.8450079 99.00844288 C68.86121388 95.01219193 68.81694166 91.01842067 68.75335884 87.0227108 C68.72786478 85.11757475 68.71801672 83.21215937 68.72450066 81.30686378 C69.00060965 70.61550308 69.00060965 70.61550308 64.21234131 61.58224487 C61.16840195 59.52185682 58.24312056 57.95568229 54.875 56.5 C53.62781378 55.81105588 52.38438327 55.11516149 51.1484375 54.40625 C50.19195312 53.9421875 49.23546875 53.478125 48.25 53 C46.77660156 52.27296875 46.77660156 52.27296875 45.2734375 51.53125 C43.00389715 50.3683325 43.00389715 50.3683325 40.875 50.5 C40.875 49.84 40.875 49.18 40.875 48.5 C40.0603125 48.10167969 39.245625 47.70335938 38.40625 47.29296875 C34.33924628 45.22797461 30.35734264 43.03518306 26.375 40.8125 C25.58762451 40.37405762 24.80024902 39.93561523 23.98901367 39.48388672 C16.29436705 35.19119032 8.62089782 30.85698449 1.01293945 26.41210938 C-3.32452041 23.85953594 -3.32452041 23.85953594 -8.125 22.5 C-8.125 21.84 -8.125 21.18 -8.125 20.5 C-11.71131804 20.5 -12.93760161 21.41855493 -15.9375 23.3125 Z " fill="#040404" transform="translate(152.125,31.5)"/>
<path d="M0 0 C0.66 0 1.32 0 2 0 C2.83661862 2.7907207 3.66942737 5.58248012 4.5 8.375 C4.73847656 9.1690625 4.97695312 9.963125 5.22265625 10.78125 C5.44824219 11.54179688 5.67382812 12.30234375 5.90625 13.0859375 C6.22045898 14.1385376 6.22045898 14.1385376 6.54101562 15.21240234 C7 17 7 17 7 19 C7.66 19 8.32 19 9 19 C10.33203125 20.79296875 10.33203125 20.79296875 11.8125 23.1875 C14.23261559 26.93194034 16.66742089 30.0006788 20 33 C20.4846875 33.44214844 20.969375 33.88429687 21.46875 34.33984375 C24.46877396 36.98017096 27.19464146 38.76885459 31 40 C31 40.66 31 41.32 31 42 C39.91 43.98 39.91 43.98 49 46 C49 46.66 49 47.32 49 48 C47.741875 48.268125 46.48375 48.53625 45.1875 48.8125 C39.73879894 50.0185023 34.37221011 51.49377287 29 53 C29 53.66 29 54.32 29 55 C27.35178756 56.03013277 25.67888441 57.02065076 24 58 C17.62070762 62.13719799 10.60308736 67.7288314 8.30859375 75.2734375 C8.20675781 75.84320313 8.10492188 76.41296875 8 77 C7.34 77 6.68 77 6 77 C5.81824219 77.81791016 5.81824219 77.81791016 5.6328125 78.65234375 C3.81640625 86.82617188 3.81640625 86.82617188 2 95 C1.34 95 0.68 95 0 95 C-0.14695313 94.11699219 -0.29390625 93.23398438 -0.4453125 92.32421875 C-1.8475095 84.82165893 -3.74926724 78.75432524 -7.6953125 72.20703125 C-9 70 -9 70 -10 67 C-10.99 66.67 -11.98 66.34 -13 66 C-14.19401393 64.52395174 -15.38713236 63.04715292 -16.57226562 61.56396484 C-18.89406638 59.02062427 -21.75554433 57.43131246 -24.75 55.8125 C-25.36544678 55.47081787 -25.98089355 55.12913574 -26.61499023 54.77709961 C-32.83274564 51.4057921 -39.0171352 49.12626852 -46 48 C-45.67 47.34 -45.34 46.68 -45 46 C-43.26441553 45.5631115 -41.50959278 45.20204473 -39.75 44.875 C-33.05297853 43.34126966 -28.25876189 40.39881636 -22.6171875 36.64453125 C-20 35 -20 35 -18 35 C-17.731875 34.360625 -17.46375 33.72125 -17.1875 33.0625 C-16 31 -16 31 -13 30 C-12.505 28.515 -12.505 28.515 -12 27 C-11.34 27 -10.68 27 -10 27 C-9.7525 26.319375 -9.505 25.63875 -9.25 24.9375 C-8 22 -8 22 -6.125 19.125 C-2.71002073 13.38629424 -1.55776418 6.43820619 0 0 Z " fill="#040304" transform="translate(141,93)"/>
<path d="M0 0 C0.66 0.33 1.32 0.66 2 1 C1.34 2.65 0.68 4.3 0 6 C-0.33 5.34 -0.66 4.68 -1 4 C-1.33 4.66 -1.66 5.32 -2 6 C-2.66 6 -3.32 6 -4 6 C-4.33 6.66 -4.66 7.32 -5 8 C-4.34 8.33 -3.68 8.66 -3 9 C-4.62171239 9.38897161 -6.24754925 9.76078298 -7.875 10.125 C-8.77992187 10.33382812 -9.68484375 10.54265625 -10.6171875 10.7578125 C-11.40351562 10.83773437 -12.18984375 10.91765625 -13 11 C-13.66 10.34 -14.32 9.68 -15 9 C-11.66666667 7 -8.33333333 5 -5 3 C-4.10667969 2.41863281 -3.21335937 1.83726563 -2.29296875 1.23828125 C-1.15794922 0.62533203 -1.15794922 0.62533203 0 0 Z " fill="#232223" transform="translate(95,53)"/>
<path d="M0 0 C0.99 0.33 1.98 0.66 3 1 C-2.0459364 9.65017668 -2.0459364 9.65017668 -4.875 10.6875 C-5.57625 10.790625 -6.2775 10.89375 -7 11 C-7.9075 11.185625 -8.815 11.37125 -9.75 11.5625 C-10.4925 11.706875 -11.235 11.85125 -12 12 C-12.33 11.34 -12.66 10.68 -13 10 C-11.71186658 9.16121545 -10.41936744 8.32913217 -9.125 7.5 C-8.40570313 7.0359375 -7.68640625 6.571875 -6.9453125 6.09375 C-5 5 -5 5 -3 5 C-2.690625 4.360625 -2.38125 3.72125 -2.0625 3.0625 C-1 1 -1 1 0 0 Z " fill="#1A1A1B" transform="translate(126,123)"/>
<path d="M0 0 C4.29 0.66 8.58 1.32 13 2 C13 2.66 13 3.32 13 4 C3.58997722 6.11161731 3.58997722 6.11161731 -1 7 C-0.67 4.69 -0.34 2.38 0 0 Z " fill="#1D1B1E" transform="translate(177,137)"/>
<path d="M0 0 C0.66 0 1.32 0 2 0 C2.99 4.29 3.98 8.58 5 13 C2.03 12.505 2.03 12.505 -1 12 C-1.99 12.495 -1.99 12.495 -3 13 C-2.01 8.71 -1.02 4.42 0 0 Z " fill="#262426" transform="translate(141,93)"/>
<path d="M0 0 C0.66 0.33 1.32 0.66 2 1 C2 1.99 2 2.98 2 4 C-7.41002278 8.59225513 -7.41002278 8.59225513 -12 8 C-8.20182235 4.77730382 -4.42608146 2.25479622 0 0 Z " fill="#E5E3E7" transform="translate(166,239)"/>
<path d="M0 0 C0.99 0.33 1.98 0.66 3 1 C2.01 3.97 1.02 6.94 0 10 C-0.66 9.67 -1.32 9.34 -2 9 C-2.99 9.495 -2.99 9.495 -4 10 C-4.99 9.67 -5.98 9.34 -7 9 C-4.69 6.03 -2.38 3.06 0 0 Z " fill="#E4E3E5" transform="translate(158,155)"/>
<path d="M0 0 C0.99 0 1.98 0 3 0 C3 0.66 3 1.32 3 2 C3.598125 2.103125 4.19625 2.20625 4.8125 2.3125 C7.28243264 3.08876455 8.32251235 4.07088921 10 6 C8.35 6.66 6.7 7.32 5 8 C4.67 7.34 4.34 6.68 4 6 C1.97536745 5.34786708 1.97536745 5.34786708 0 5 C-0.5625 3.0625 -0.5625 3.0625 -1 1 C-0.67 0.67 -0.34 0.34 0 0 Z " fill="#121013" transform="translate(65,184)"/>
<path d="M0 0 C2 1 2 1 5 3 C5 3.66 5 4.32 5 5 C7.475 5.99 7.475 5.99 10 7 C10 7.99 10 8.98 10 10 C7 10 7 10 4.5625 7.625 C3.716875 6.75875 2.87125 5.8925 2 5 C-0.16620544 3.70480005 -0.16620544 3.70480005 -2 3 C-1.34 2.01 -0.68 1.02 0 0 Z " fill="#EAE8EB" transform="translate(229,73)"/>
<path d="M0 0 C2.44860063 0.86421199 4.12800001 2.10960715 6.125 3.75 C4.125 5.75 4.125 5.75 1 5.875 C0.05125 5.83375 -0.8975 5.7925 -1.875 5.75 C-2.535 4.1 -3.195 2.45 -3.875 0.75 C-1.875 -0.25 -1.875 -0.25 0 0 Z " fill="#141317" transform="translate(97.875,202.25)"/>
<path d="M0 0 C1 3 1 3 0 6 C-0.99 6 -1.98 6 -3 6 C-3.33 7.32 -3.66 8.64 -4 10 C-5.8125 10.625 -5.8125 10.625 -8 11 C-8.99 10.34 -9.98 9.68 -11 9 C-9.35 8.67 -7.7 8.34 -6 8 C-6 7.34 -6 6.68 -6 6 C-5.195625 5.7525 -4.39125 5.505 -3.5625 5.25 C-0.828919 4.27761141 -0.828919 4.27761141 -0.1875 1.875 C-0.125625 1.25625 -0.06375 0.6375 0 0 Z " fill="#D8D8D9" transform="translate(236,196)"/>
<path d="M0 0 C0.66 0.33 1.32 0.66 2 1 C2.73075648 3.3140622 3.40138258 5.64828869 4 8 C3.34 8.66 2.68 9.32 2 10 C0.02 7.36 -1.96 4.72 -4 2 C-2.68 1.34 -1.36 0.68 0 0 Z " fill="#E2E2E4" transform="translate(157,116)"/>
<path d="M0 0 C0.66 0.33 1.32 0.66 2 1 C1.375 2.875 1.375 2.875 0 5 C-3.81058817 6.73961634 -6.03483443 7.19298271 -10 6 C-8.70903219 5.18639005 -7.41720125 4.37414954 -6.125 3.5625 C-5.04605469 2.88380859 -5.04605469 2.88380859 -3.9453125 2.19140625 C-2 1 -2 1 0 0 Z " fill="#D8D8D8" transform="translate(206,216)"/>
<path d="M0 0 C3.3 1.65 6.6 3.3 10 5 C6 7 6 7 3.875 6.8125 C2 6 2 6 0 3 C0 2.01 0 1.02 0 0 Z " fill="#0D0D0E" transform="translate(217,70)"/>
<path d="M0 0 C0.66 0.33 1.32 0.66 2 1 C1.01 3.31 0.02 5.62 -1 8 C-2.32 7.67 -3.64 7.34 -5 7 C-5 7.99 -5 8.98 -5 10 C-5.66 10 -6.32 10 -7 10 C-5.6062718 5.56541027 -3.39417765 3.12621626 0 0 Z " fill="#222122" transform="translate(52,78)"/>
<path d="M0 0 C0.66 0.33 1.32 0.66 2 1 C-4.125 7.125 -4.125 7.125 -8 8 C-7.34 7.67 -6.68 7.34 -6 7 C-6.99 6.34 -7.98 5.68 -9 5 C-7.54735962 4.1361871 -6.0876837 3.28419546 -4.625 2.4375 C-3.40683594 1.72400391 -3.40683594 1.72400391 -2.1640625 0.99609375 C-1.44992188 0.66738281 -0.73578125 0.33867187 0 0 Z " fill="#D6D4D6" transform="translate(194,223)"/>
<path d="M0 0 C1.4606285 2.64738916 2 3.89448334 2 7 C1.34 7 0.68 7 0 7 C-0.33 7.99 -0.66 8.98 -1 10 C-1.99 10 -2.98 10 -4 10 C-3.67 8.35 -3.34 6.7 -3 5 C-2.34 5 -1.68 5 -1 5 C-0.67 3.35 -0.34 1.7 0 0 Z " fill="#DCDBDC" transform="translate(150,165)"/>
<path d="M0 0 C0.66 0.33 1.32 0.66 2 1 C-1.3 3.64 -4.6 6.28 -8 9 C-9.32 8.34 -10.64 7.68 -12 7 C-10.04754815 5.80285445 -8.08785003 4.61751926 -6.125 3.4375 C-5.03445312 2.77621094 -3.94390625 2.11492187 -2.8203125 1.43359375 C-1.88960937 0.96050781 -0.95890625 0.48742187 0 0 Z " fill="#262628" transform="translate(177,207)"/>
<path d="M0 0 C2.83833554 1.13533421 4.80962228 2.29083424 7.125 4.25 C3.12971255 5.58176248 1.02644863 4.66870859 -2.875 3.25 C-3.535 2.26 -4.195 1.27 -4.875 0.25 C-2.875 -0.75 -2.875 -0.75 0 0 Z " fill="#141416" transform="translate(84.875,194.75)"/>
<path d="M0 0 C0.66 1.32 1.32 2.64 2 4 C1.030625 4.28875 0.06125 4.5775 -0.9375 4.875 C-4.10664203 5.64214682 -4.10664203 5.64214682 -5 8 C-5.66 7.67 -6.32 7.34 -7 7 C-6.875 5.1875 -6.875 5.1875 -6 3 C-2.9375 1.25 -2.9375 1.25 0 0 Z " fill="#DEDCDF" transform="translate(94,79)"/>
<path d="M0 0 C3 1.375 3 1.375 4.375 4 C4.58125 4.78375 4.7875 5.5675 5 6.375 C4.34 6.375 3.68 6.375 3 6.375 C3 5.715 3 5.055 3 4.375 C2.236875 4.271875 1.47375 4.16875 0.6875 4.0625 C-2.17059424 3.33135961 -3.15742885 2.60548087 -5 0.375 C-3 -0.625 -3 -0.625 0 0 Z " fill="#DDDCDD" transform="translate(192,51.625)"/>
<path d="M0 0 C-0.33 0.66 -0.66 1.32 -1 2 C-1.99 2.33 -2.98 2.66 -4 3 C-4.33 3.66 -4.66 4.32 -5 5 C-7.475 4.01 -7.475 4.01 -10 3 C-10 2.01 -10 1.02 -10 0 C-3.375 -1.125 -3.375 -1.125 0 0 Z " fill="#E7E5E9" transform="translate(183,42)"/>
<path d="M0 0 C0.66 0.33 1.32 0.66 2 1 C1 4 1 4 -2.375 5.8125 C-4.169375 6.4003125 -4.169375 6.4003125 -6 7 C-6.99 6.34 -7.98 5.68 -9 5 C-7.54735962 4.1361871 -6.0876837 3.28419546 -4.625 2.4375 C-3.40683594 1.72400391 -3.40683594 1.72400391 -2.1640625 0.99609375 C-1.44992188 0.66738281 -0.73578125 0.33867188 0 0 Z " fill="#242425" transform="translate(118,40)"/>
<path d="M0 0 C0 3 0 3 -1 6 C-3.375 6.625 -3.375 6.625 -6 7 C-6.66 6.34 -7.32 5.68 -8 5 C-6.68 4.67 -5.36 4.34 -4 4 C-4 3.34 -4 2.68 -4 2 C-2.68 1.34 -1.36 0.68 0 0 Z " fill="#D9D8DC" transform="translate(120,64)"/>
<path d="M0 0 C0.928125 0.20625 1.85625 0.4125 2.8125 0.625 C0.63865436 2.79884564 -1.50020474 4.14698761 -4.1875 5.625 C-4.8475 5.625 -5.5075 5.625 -6.1875 5.625 C-6.1875 4.305 -6.1875 2.985 -6.1875 1.625 C-3.1875 -0.375 -3.1875 -0.375 0 0 Z " fill="#ECECED" transform="translate(168.1875,210.375)"/>
<path d="M0 0 C0.99 0.66 1.98 1.32 3 2 C3 2.66 3 3.32 3 4 C0.7272325 5.49524178 -1.5679943 6.78399715 -4 8 C-4 7.34 -4 6.68 -4 6 C-4.66 5.67 -5.32 5.34 -6 5 C-2.25 2 -2.25 2 0 2 C0 1.34 0 0.68 0 0 Z " fill="#1D1B1E" transform="translate(167,144)"/>
<path d="M0 0 C4.44870215 -0.39253254 7.14243493 0.84694043 11 3 C8 5 8 5 6.0625 4.75 C3.94325972 3.97936717 1.98677042 3.0643413 0 2 C0 1.34 0 0.68 0 0 Z " fill="#1E1E1E" transform="translate(161,130)"/>
<path d="M0 0 C3.465 1.485 3.465 1.485 7 3 C6.67 3.66 6.34 4.32 6 5 C5.34 5 4.68 5 4 5 C4 6.65 4 8.3 4 10 C1.16625119 6.79663178 0.4794463 4.21912747 0 0 Z " fill="#DCDADE" transform="translate(145,102)"/>
<path d="M0 0 C-1.39121745 2.7824349 -3.30164212 3.55210065 -6 5 C-6.66 5 -7.32 5 -8 5 C-8.33 4.01 -8.66 3.02 -9 2 C-8.34 2 -7.68 2 -7 2 C-7 1.34 -7 0.68 -7 0 C-3.86650268 -1.04449911 -3.01031744 -0.93423645 0 0 Z " fill="#EFEEF1" transform="translate(114,42)"/>
<path d="M0 0 C-4.30769231 4.92307692 -4.30769231 4.92307692 -7.8125 5.3125 C-8.8953125 5.1578125 -8.8953125 5.1578125 -10 5 C-10 4.34 -10 3.68 -10 3 C-6.58168085 0.4606772 -4.24223102 -0.3636198 0 0 Z " fill="#EFEDF0" transform="translate(59,73)"/>
<path d="M0 0 C3.68754757 0.49831724 5.60490662 1.10067643 8 4 C7.67 4.66 7.34 5.32 7 6 C4.0625 5.25 4.0625 5.25 1 4 C0.125 1.875 0.125 1.875 0 0 Z " fill="#DEDCDD" transform="translate(199,57)"/>
<path d="M0 0 C2.64 1.32 5.28 2.64 8 4 C7.01 4.66 6.02 5.32 5 6 C1.3125 4.625 1.3125 4.625 -2 3 C-1.34 2.67 -0.68 2.34 0 2 C0 1.34 0 0.68 0 0 Z " fill="#151515" transform="translate(179,48)"/>
<path d="M0 0 C5.53846154 -0.36923077 5.53846154 -0.36923077 7.875 1.5 C8.24625 1.995 8.6175 2.49 9 3 C7.02 3.66 5.04 4.32 3 5 C2.01 3.35 1.02 1.7 0 0 Z " fill="#EBE9EC" transform="translate(90,226)"/>
<path d="M0 0 C0.66 0.33 1.32 0.66 2 1 C-1.78756477 4.61139896 -1.78756477 4.61139896 -4 6 C-6.875 5.8125 -6.875 5.8125 -9 5 C-6.06626269 3.04417512 -3.21783702 1.43775696 0 0 Z " fill="#2B2B2C" transform="translate(150,223)"/>
<path d="M0 0 C0.99 0.33 1.98 0.66 3 1 C3 1.66 3 2.32 3 3 C3.804375 3.12375 4.60875 3.2475 5.4375 3.375 C6.7059375 3.684375 6.7059375 3.684375 8 4 C8.33 4.66 8.66 5.32 9 6 C6 7 6 7 2.8125 5.5625 C1.884375 5.046875 0.95625 4.53125 0 4 C0 2.68 0 1.36 0 0 Z " fill="#2A2A2B" transform="translate(122,216)"/>
<path d="M0 0 C0.66 0.33 1.32 0.66 2 1 C-1.7375 6.0375 -1.7375 6.0375 -6 7 C-6.33 6.01 -6.66 5.02 -7 4 C-1.7265625 0.77734375 -1.7265625 0.77734375 0 0 Z " fill="#29272A" transform="translate(64,71)"/>
<path d="M0 0 C2.64 1.65 5.28 3.3 8 5 C6.68 5.99 5.36 6.98 4 8 C4 7.34 4 6.68 4 6 C3.01 5.67 2.02 5.34 1 5 C0.67 3.35 0.34 1.7 0 0 Z " fill="#E0E0E1" transform="translate(51,200)"/>
<path d="M0 0 C2.6875 0.875 2.6875 0.875 5 2 C1.375 5 1.375 5 -2 5 C-2.33 4.01 -2.66 3.02 -3 2 C-2.01 1.34 -1.02 0.68 0 0 Z " fill="#E0DEE1" transform="translate(107,132)"/>
<path d="M0 0 C0.86625 0.3403125 0.86625 0.3403125 1.75 0.6875 C0.43 2.0075 -0.89 3.3275 -2.25 4.6875 C-3.57 4.0275 -4.89 3.3675 -6.25 2.6875 C-2.80384615 -0.38942308 -2.80384615 -0.38942308 0 0 Z " fill="#121212" transform="translate(72.25,89.3125)"/>
<path d="M0 0 C2.4375 1.3125 2.4375 1.3125 3.25 3.4375 C3.311875 4.05625 3.37375 4.675 3.4375 5.3125 C0.06246331 4.1266763 -2.20972731 3.03676311 -4.5625 0.3125 C-2.5625 -0.6875 -2.5625 -0.6875 0 0 Z " fill="#161616" transform="translate(188.5625,74.6875)"/>
<path d="M0 0 C1.98 0.99 3.96 1.98 6 3 C6 3.66 6 4.32 6 5 C4.35 5.33 2.7 5.66 1 6 C-0.0625 4.125 -0.0625 4.125 -1 2 C-0.67 1.34 -0.34 0.68 0 0 Z " fill="#0C0A0B" transform="translate(168,42)"/>
<path d="M0 0 C0.99 0.33 1.98 0.66 3 1 C-0.32307692 4.93846154 -0.32307692 4.93846154 -3.75 5.25 C-4.4925 5.1675 -5.235 5.085 -6 5 C-5.195625 4.360625 -4.39125 3.72125 -3.5625 3.0625 C-1.7249496 1.59396498 -1.7249496 1.59396498 0 0 Z " fill="#DBDBDC" transform="translate(160,242)"/>
<path d="M0 0 C3.96 1.98 3.96 1.98 8 4 C7.01 4.66 6.02 5.32 5 6 C3.02 5.01 1.04 4.02 -1 3 C-0.67 2.01 -0.34 1.02 0 0 Z " fill="#E2E1E3" transform="translate(163,64)"/>
<path d="M0 0 C0.66 0.33 1.32 0.66 2 1 C0.375 3.5 0.375 3.5 -2 6 C-5.25 6.3125 -5.25 6.3125 -8 6 C-5.63404067 3.38499232 -3.13950774 1.61000397 0 0 Z " fill="#C3C2C3" transform="translate(81,86)"/>
<path d="M0 0 C2.91517292 1.07401108 4.77810176 1.77810176 7 4 C6.01 5.485 6.01 5.485 5 7 C4.67 5.68 4.34 4.36 4 3 C2.35 3.33 0.7 3.66 -1 4 C-0.67 2.68 -0.34 1.36 0 0 Z " fill="#F2F0F2" transform="translate(195,83)"/>
<path d="M0 0 C0 0.66 0 1.32 0 2 C0.99 2.33 1.98 2.66 3 3 C1.02 3.33 -0.96 3.66 -3 4 C-3 3.34 -3 2.68 -3 2 C-3.99 2 -4.98 2 -6 2 C-6 1.34 -6 0.68 -6 0 C-3.50907189 -1.24546405 -2.58919267 -0.7767578 0 0 Z " fill="#F6F4F9" transform="translate(149,25)"/>
<path d="M0 0 C2 1 2 1 3 3 C1.03533587 4.06775224 -0.96855359 5.06553465 -3 6 C-3.66 5.67 -4.32 5.34 -5 5 C-3.35 3.35 -1.7 1.7 0 0 Z " fill="#0D0D0D" transform="translate(157,152)"/>
<path d="M0 0 C1.2065625 0.0309375 1.2065625 0.0309375 2.4375 0.0625 C0.07457344 2.58838702 -1.22712511 3.95070837 -4.5625 5.0625 C-3.43829114 0.08386076 -3.43829114 0.08386076 0 0 Z " fill="#ECECEC" transform="translate(67.5625,66.9375)"/>
<path d="M0 0 C1.98 0 3.96 0 6 0 C6.33 0.99 6.66 1.98 7 3 C5.35 3.66 3.7 4.32 2 5 C1.34 3.35 0.68 1.7 0 0 Z " fill="#0F0F0F" transform="translate(136,49)"/>
<path d="M0 0 C0.33 0.66 0.66 1.32 1 2 C-1.31 2.66 -3.62 3.32 -6 4 C-6 2.68 -6 1.36 -6 0 C-2.25 -1.125 -2.25 -1.125 0 0 Z " fill="#E9E7EB" transform="translate(137,29)"/>
<path d="M0 0 C0.66 0.33 1.32 0.66 2 1 C1.67 3.64 1.34 6.28 1 9 C0.34 9 -0.32 9 -1 9 C-1.125 2.25 -1.125 2.25 0 0 Z " fill="#28262B" transform="translate(142,179)"/>
<path d="M0 0 C0.8353125 0.556875 0.8353125 0.556875 1.6875 1.125 C-0.6225 1.785 -2.9325 2.445 -5.3125 3.125 C-5.9725 2.465 -6.6325 1.805 -7.3125 1.125 C-2.88173077 -1.09038462 -2.88173077 -1.09038462 0 0 Z " fill="#151314" transform="translate(87.3125,60.875)"/>
<path d="M0 0 C0.66 0 1.32 0 2 0 C2 0.66 2 1.32 2 2 C2.66 2 3.32 2 4 2 C4.33 3.32 4.66 4.64 5 6 C0.125 4.25 0.125 4.25 -1 2 C-0.67 1.34 -0.34 0.68 0 0 Z " fill="#181617" transform="translate(193,56)"/>
<path d="M0 0 C0.66 0.33 1.32 0.66 2 1 C0.875 3 0.875 3 -1 5 C-4.1875 5.25 -4.1875 5.25 -7 5 C-5.47058649 1.94117299 -3.05780454 1.31048766 0 0 Z " fill="#302E32" transform="translate(160,217)"/>
<path d="M0 0 C2.6875 0.3125 2.6875 0.3125 5 1 C4.67 1.66 4.34 2.32 4 3 C1.69 3 -0.62 3 -3 3 C-1.8125 1.4375 -1.8125 1.4375 0 0 Z " fill="#2F2D30" transform="translate(187,201)"/>
<path d="M0 0 C1.32 0.66 2.64 1.32 4 2 C3.67 3.32 3.34 4.64 3 6 C2.34 6 1.68 6 1 6 C1 5.34 1 4.68 1 4 C0.01 3.67 -0.98 3.34 -2 3 C-1.34 2.34 -0.68 1.68 0 1 C0 0.67 0 0.34 0 0 Z " fill="#E6E6E7" transform="translate(91,194)"/>
<path d="M0 0 C0.99 0.33 1.98 0.66 3 1 C2.67 2.32 2.34 3.64 2 5 C0.68 5.33 -0.64 5.66 -2 6 C-2 5.01 -2 4.02 -2 3 C-1.34 3 -0.68 3 0 3 C0 2.01 0 1.02 0 0 Z " fill="#0F0F0F" transform="translate(236,190)"/>
<path d="M0 0 C0.86625 0.556875 0.86625 0.556875 1.75 1.125 C-0.23 2.115 -2.21 3.105 -4.25 4.125 C-4.25 3.465 -4.25 2.805 -4.25 2.125 C-4.91 1.795 -5.57 1.465 -6.25 1.125 C-2.80384615 -1.09038462 -2.80384615 -1.09038462 0 0 Z " fill="#EDECED" transform="translate(115.25,147.875)"/>
<path d="M0 0 C0.99 0 1.98 0 3 0 C2.34 1.98 1.68 3.96 1 6 C0.01 6 -0.98 6 -2 6 C-1.34 4.02 -0.68 2.04 0 0 Z " fill="#110F10" transform="translate(138,106)"/>
<path d="M0 0 C-2 1 -2 1 -4 2 C-4.70125 2.391875 -5.4025 2.78375 -6.125 3.1875 C-6.74375 3.455625 -7.3625 3.72375 -8 4 C-8.66 3.67 -9.32 3.34 -10 3 C-3.375 -1.125 -3.375 -1.125 0 0 Z " fill="#D0D0D1" transform="translate(111,72)"/>
</svg>
