<svg width="800px" height="800px" viewBox="0 0 24 24" xmlns="http://www.w3.org/2000/svg">
  <path
    fill="currentColor"
    d="M12 2a10 10 0 1 0 10 10A10 10 0 0 0 12 2M9.36 14.67a.5.5 0 0 1-.49.52a.51.51 0 0 1-.52-.49c0-.29.13-.67.38-1.12c.31-.56.63-1.09.63-1.55a.69.69 0 0 0-.7-.71a.81.81 0 0 0-.84.76v.05a.5.5 0 0 1-1 .09V12a2 2 0 0 1 2.2-1.92a1.86 1.86 0 0 1 2 1.81c0 .73-.41 1.55-.78 2.22c-.22.4-.33.72-.33 1.05a.49.49 0 0 1-.02.1zm2.33.25a.8.8 0 0 0 .82-.76v-.05a.5.5 0 0 1 1-.09V14a2 2 0 0 1-2.2 1.92A1.86 1.86 0 0 1 9.47 14c0-.73.41-1.55.78-2.22c.22-.4.33-.72.33-1.05a.5.5 0 0 1 .49-.52a.51.51 0 0 1 .52.49c0 .29-.13.67-.38 1.12c-.31.56-.63 1.09-.63 1.55a.69.69 0 0 0 .7.71m5-2.82c-.1-.13-.2-.25-.3-.36l-.37-.41a.48.48 0 0 1 0-.7l.36-.4a1.33 1.33 0 0 1 .3-.35a.5.5 0 0 1 .7.05a.51.51 0 0 1 .06.7l-.37.4a.53.53 0 0 1-.36.16a.48.48 0 0 1-.35-.16l-.08-.09l.45.5a.5.5 0 0 1 0 .7a.49.49 0 0 1-.7.04M9.54 8.76a1 1 0 1 1-1-1a1 1 0 0 1 1 1"
  />
</svg>
