<?xml version="1.0" encoding="UTF-8"?>
<svg version="1.1" xmlns="http://www.w3.org/2000/svg" width="1200" height="628">
<path d="M0 0 C396 0 792 0 1200 0 C1200 207.24 1200 414.48 1200 628 C804 628 408 628 0 628 C0 420.76 0 213.52 0 0 Z " fill="#FAFBFC" transform="translate(0,0)"/>
<path d="M0 0 C2.31704629 0.74684872 4.63475087 1.49165841 6.953125 2.234375 C8.05076172 2.58951172 9.14839844 2.94464844 10.27929688 3.31054688 C13.74972159 4.40803161 17.22205502 5.3558204 20.75 6.25 C36.85393738 10.40880977 52.68019718 15.71423702 68.5090332 20.8046875 C75.01860865 22.88871647 81.55932067 24.84306496 88.15063477 26.65307617 C93.03420922 28.03420922 93.03420922 28.03420922 95.25 30.25 C95.8265561 35.07603661 95.73973991 39.95547839 95.75 44.8125 C95.75267883 45.55441589 95.75535767 46.29633179 95.75811768 47.06072998 C95.73748948 73.82119085 91.29964998 101.0618833 83.95263672 126.76416016 C83.25451369 129.23403112 82.60713714 131.71231121 81.97265625 134.19921875 C79.84543654 142.41855933 77.3052114 150.10394063 73.77734375 157.84375 C72.55750356 160.564212 71.45413965 163.27677641 70.37890625 166.0546875 C55.64064613 203.13198383 26.51316206 231.6973666 -9.75 247.5625 C-18.56751448 249.5831804 -25.14355413 247.85219274 -33.0625 243.8125 C-33.97966797 243.3580249 -34.89683594 242.9035498 -35.84179688 242.43530273 C-48.46135366 236.04214989 -59.22042551 227.61441665 -69.75 218.25 C-70.40484375 217.66863281 -71.0596875 217.08726562 -71.734375 216.48828125 C-80.8650102 207.85765702 -88.37923881 197.0024612 -94.75 186.25 C-95.75933594 184.62191406 -95.75933594 184.62191406 -96.7890625 182.9609375 C-108.05537627 164.31663908 -115.56640721 143.33897511 -120.75 122.25 C-121.08572021 120.89914307 -121.08572021 120.89914307 -121.42822266 119.52099609 C-127.72201 93.8837939 -130.82154316 68.29012308 -131.0625 41.875 C-131.08014404 40.75730225 -131.09778809 39.63960449 -131.1159668 38.48803711 C-131.11508057 37.45300049 -131.11419434 36.41796387 -131.11328125 35.3515625 C-131.11626221 34.43713379 -131.11924316 33.52270508 -131.12231445 32.58056641 C-130.75 30.25 -130.75 30.25 -129.51293945 28.52490234 C-127.42993765 27.01854098 -125.66176187 26.41624884 -123.1796875 25.75 C-122.2825 25.5025 -121.3853125 25.255 -120.4609375 25 C-119.52507812 24.7525 -118.58921875 24.505 -117.625 24.25 C-115.78852625 23.75197322 -113.95258234 23.25198833 -112.1171875 22.75 C-111.21452148 22.50378906 -110.31185547 22.25757813 -109.38183594 22.00390625 C-106.91654828 21.29770882 -104.49656796 20.51673974 -102.0703125 19.6875 C-98.77130115 18.56039821 -95.46926352 17.67118022 -92.07714844 16.85791016 C-86.61684177 15.43153966 -81.25578275 13.63469813 -75.875 11.9375 C-66.96600473 9.14241455 -58.0528626 6.4092843 -49.02954102 4.00390625 C-45.25103243 2.98550271 -41.5333769 1.86678537 -37.82421875 0.6171875 C-36.98777832 0.33834717 -36.15133789 0.05950684 -35.28955078 -0.2277832 C-33.70615966 -0.76135449 -32.12711644 -1.30812665 -30.55419922 -1.87182617 C-19.69936353 -5.5193296 -10.61891578 -3.56685048 0 0 Z " fill="#20C8D6" transform="translate(239.75,172.75)"/>
<path d="M0 0 C1.33065631 31.9596351 -2.49585514 63.72358024 -11.29736328 94.51416016 C-11.99548631 96.98403112 -12.64286286 99.46231121 -13.27734375 101.94921875 C-15.40456346 110.16855933 -17.9447886 117.85394063 -21.47265625 125.59375 C-22.69249644 128.314212 -23.79586035 131.02677641 -24.87109375 133.8046875 C-39.60935387 170.88198383 -68.73683794 199.4473666 -105 215.3125 C-113.81751448 217.3331804 -120.39355413 215.60219274 -128.3125 211.5625 C-129.68825195 210.88078735 -129.68825195 210.88078735 -131.09179688 210.18530273 C-143.71135366 203.79214989 -154.47042551 195.36441665 -165 186 C-165.98226562 185.12794922 -165.98226562 185.12794922 -166.984375 184.23828125 C-176.12847969 175.59492515 -183.57504613 164.73735497 -190 154 C-190.8353125 152.70255859 -190.8353125 152.70255859 -191.6875 151.37890625 C-193 149 -193 149 -193 146 C-191.07576767 144.42534685 -189.18828128 143.05931075 -187.125 141.6875 C-181.07233807 137.52337012 -175.22250864 133.15360854 -169.4375 128.625 C-168.67646973 128.03033936 -167.91543945 127.43567871 -167.13134766 126.82299805 C-163.40372197 123.90325925 -159.69030486 120.96685896 -156 118 C-153.04088231 119.09596951 -151.86727745 120.16785499 -149.875 122.6875 C-143.23710927 130.98486341 -131.50237603 137.49966057 -121 139 C-105.62516345 139.9230955 -92.90348849 138.06669899 -80 129 C-79.04673828 128.34064453 -79.04673828 128.34064453 -78.07421875 127.66796875 C-69.92505707 121.39799291 -63.58638993 110.33572257 -61.41796875 100.30859375 C-59.16149486 82.44659953 -62.36964757 69.25707521 -72 54 C-71.23260498 53.42838135 -71.23260498 53.42838135 -70.44970703 52.84521484 C-61.23714195 45.97632304 -52.04914918 39.08335921 -43 32 C-35.78790311 26.35575026 -28.49067896 20.83446881 -21.15112305 15.35717773 C-15.12656496 10.85854743 -9.16266581 6.28975791 -3.23828125 1.66015625 C-1 0 -1 0 0 0 Z " fill="#9E2DDC" transform="translate(335,205)"/>
<path d="M0 0 C1.54419488 1.17833172 3.06720847 2.38519893 4.5625 3.625 C5.19671875 4.14707031 5.8309375 4.66914063 6.484375 5.20703125 C14.57323742 12.56216942 20.97331415 23.77318398 21.70605469 34.78173828 C22.38245521 51.30667174 19.74556538 65.42482472 8.8125 78.5625 C0.0194075 87.67749762 -12.66228188 94.17675703 -25.4140625 94.828125 C-41.58201354 95.10319082 -54.5645974 91.72588634 -66.73046875 80.328125 C-72.40030997 74.67125825 -75.48099688 68.9908583 -78.4375 61.625 C-78.76105469 60.86574219 -79.08460938 60.10648437 -79.41796875 59.32421875 C-83.87766134 47.20139242 -82.61581847 32.25209397 -77.4375 20.625 C-75.70446839 17.36915658 -73.73098871 14.50915518 -71.4375 11.625 C-70.55771484 10.48417969 -70.55771484 10.48417969 -69.66015625 9.3203125 C-52.46808029 -11.56331352 -22.16747415 -14.70088481 0 0 Z " fill="#DEE3E3" transform="translate(253.4375,250.375)"/>
<path d="M0 0 C23 0 23 0 27.81640625 4.37109375 C29.28881836 7.26464844 29.28881836 7.26464844 30.5625 10.4375 C31.63700077 12.63982089 32.71255608 14.84162754 33.7890625 17.04296875 C34.30887695 18.18813965 34.82869141 19.33331055 35.36425781 20.51318359 C38.06615324 26.27265681 41.27577492 31.73409364 44.4375 37.25 C45.54272589 39.23306081 46.64566735 41.21739688 47.74609375 43.203125 C51.09731896 49.17337495 54.55024583 55.0861357 58 61 C58.33 40.87 58.66 20.74 59 0 C66.26 0 73.52 0 81 0 C81 32.34 81 64.68 81 98 C73.41 98 65.82 98 58 98 C57.1440625 96.42605469 56.288125 94.85210937 55.40625 93.23046875 C52.13736093 87.23910034 48.83063267 81.2697408 45.5 75.3125 C44.90558105 74.24829834 44.31116211 73.18409668 43.69873047 72.08764648 C38.67716425 63.13241038 33.51734597 54.26412038 28.26757812 45.44067383 C27.70748047 44.49216553 27.14738281 43.54365723 26.5703125 42.56640625 C25.82418701 41.31259155 25.82418701 41.31259155 25.06298828 40.03344727 C24 38 24 38 24 36 C23.34 36 22.68 36 22 36 C22 56.13 22 76.26 22 97 C14.74 97 7.48 97 0 97 C0 64.99 0 32.98 0 0 Z " fill="#020202" transform="translate(387,214)"/>
<path d="M0 0 C8.25 0 16.5 0 25 0 C27.43801464 6.0950366 29.66266359 11.80358717 31.39453125 18.05859375 C33.68421596 26.068112 36.26118594 33.95634239 38.93615723 41.8442688 C43.11169373 54.17193823 47.18727185 66.52988066 51.08609009 78.94796753 C51.52646818 80.3505581 51.96832766 81.75268446 52.41171265 83.15432739 C53.02393306 85.0923024 53.62932848 87.03242954 54.234375 88.97265625 C54.57694336 90.06843994 54.91951172 91.16422363 55.27246094 92.29321289 C56 95 56 95 56 98 C48.41 98 40.82 98 33 98 C30.525 88.595 30.525 88.595 28 79 C17.77 78.67 7.54 78.34 -3 78 C-3.639375 80.5575 -4.27875 83.115 -4.9375 85.75 C-5.95833333 89.83333333 -6.97916667 93.91666667 -8 98 C-15.59 98 -23.18 98 -31 98 C-29.72649109 91.63245545 -28.61559791 86.38114025 -26.49609375 80.421875 C-26.00219914 79.01467634 -25.50838746 77.60744857 -25.01464844 76.20019531 C-24.75744019 75.47497681 -24.50023193 74.7497583 -24.23522949 74.00256348 C-19.49827762 60.62674514 -15.16094311 47.19131976 -11.17382812 33.57470703 C-7.83142913 22.23486439 -3.97621841 11.13341155 0 0 Z " fill="#040404" transform="translate(701,214)"/>
<path d="M0 0 C7.59 0 15.18 0 23 0 C23.495 19.8 23.495 19.8 24 40 C25.65 38.35 27.3 36.7 29 35 C34.68568071 30.87788148 41.27252589 31.27537611 48 32 C54.2377714 33.69845315 58.51134451 37.65799628 62 43 C66.50808423 51.62875497 66.14869388 61.4509471 66.09765625 70.94140625 C66.0962413 71.94968979 66.09482635 72.95797333 66.09336853 73.99681091 C66.08781605 77.18540542 66.07527261 80.37392708 66.0625 83.5625 C66.05747885 85.73762919 66.05291702 87.91275949 66.04882812 90.08789062 C66.0387174 95.39197704 66.019133 100.69590795 66 106 C58.41 106 50.82 106 43 106 C42.96261719 102.61621094 42.92523437 99.23242188 42.88671875 95.74609375 C42.84046147 92.45623438 42.78924298 89.16648689 42.73754883 85.87670898 C42.70436633 83.59650514 42.67631376 81.31622047 42.65356445 79.03588867 C42.61989618 75.75144118 42.56757274 72.46772986 42.51171875 69.18359375 C42.50532883 68.16978134 42.4989389 67.15596893 42.49235535 66.11143494 C42.37391509 60.36438585 41.90429324 56.02351502 39 51 C36.21398777 50.07132926 34.38933911 49.83657783 31.5 49.8125 C30.7265625 49.79832031 29.953125 49.78414062 29.15625 49.76953125 C26.70319944 49.86338472 26.70319944 49.86338472 24 52 C23.52306814 54.37822507 23.52306814 54.37822507 23.56762695 57.18408203 C23.54783279 58.26505157 23.52803864 59.34602112 23.50764465 60.45974731 C23.49805977 62.21603958 23.49805977 62.21603958 23.48828125 64.0078125 C23.47033005 65.20356903 23.45237885 66.39932556 23.43388367 67.63131714 C23.37956325 71.46250853 23.34581467 75.29357383 23.3125 79.125 C23.2793462 81.71746555 23.24485838 84.30991441 23.20898438 86.90234375 C23.12382402 93.26813847 23.05711634 99.63389437 23 106 C15.41 106 7.82 106 0 106 C0 71.02 0 36.04 0 0 Z " fill="#050505" transform="translate(889,206)"/>
<path d="M0 0 C0.76828125 -0.01611328 1.5365625 -0.03222656 2.328125 -0.04882812 C11.11932966 -0.05630364 17.49107068 3.52836412 24 9.3125 C32.67827608 19.6326121 31 30.98123339 31 44.3125 C17.14 44.3125 3.28 44.3125 -11 44.3125 C-7.68812146 51.84650787 -7.68812146 51.84650787 -2 56.3125 C5.52187035 57.39313069 13.22049391 56.91787464 20.265625 53.96875 C22 53.3125 22 53.3125 25 53.3125 C25.70088156 55.05718372 26.38524009 56.80851161 27.0625 58.5625 C27.44535156 59.53703125 27.82820312 60.5115625 28.22265625 61.515625 C29.02830946 64.41435715 29.34338529 65.63731034 28 68.3125 C25.99609375 69.7265625 25.99609375 69.7265625 23.4375 70.9375 C22.61121094 71.34226562 21.78492188 71.74703125 20.93359375 72.1640625 C10.96303355 76.06731776 -2.86871546 77.94638127 -13.0625 73.75 C-15.0546875 72.62890625 -15.0546875 72.62890625 -17 71.3125 C-17.76570313 70.82652344 -18.53140625 70.34054687 -19.3203125 69.83984375 C-26.90764977 64.54373209 -31.67757595 57.26591761 -34 48.3125 C-35.34102636 34.45920547 -34.80206913 21.26412511 -25.69921875 10.09765625 C-18.24423414 2.26563794 -10.64489548 -0.04465141 0 0 Z " fill="#050505" transform="translate(514,237.6875)"/>
<path d="M0 0 C7.59 0 15.18 0 23 0 C23.06058594 3.56296875 23.12117187 7.1259375 23.18359375 10.796875 C23.24539183 14.24546412 23.30877596 17.69402069 23.37231445 21.14257812 C23.41564155 23.54033515 23.45731822 25.9381226 23.49731445 28.3359375 C23.55507063 31.78134326 23.61875006 35.22659625 23.68359375 38.671875 C23.70030624 39.74491882 23.71701874 40.81796265 23.73423767 41.92352295 C23.75418289 42.92425842 23.77412811 43.9249939 23.79467773 44.95605469 C23.81799416 46.27509796 23.81799416 46.27509796 23.84178162 47.62078857 C23.99483064 49.9222657 24.16803759 51.84538389 25 54 C27.89526519 54.9650884 29.85794119 55.16457402 32.875 55.1875 C33.71804688 55.20167969 34.56109375 55.21585937 35.4296875 55.23046875 C38.49459945 55.07958083 38.49459945 55.07958083 43 53 C43 35.51 43 18.02 43 0 C50.59 0 58.18 0 66 0 C66 24.09 66 48.18 66 73 C59.4 73 52.8 73 46 73 C45 72 45 72 44.9375 68.4375 C44.958125 67.303125 44.97875 66.16875 45 65 C44.40832031 65.48210937 43.81664062 65.96421875 43.20703125 66.4609375 C42.02173828 67.40839844 42.02173828 67.40839844 40.8125 68.375 C40.03519531 69.00148438 39.25789062 69.62796875 38.45703125 70.2734375 C31.7979737 74.95277524 24.89692145 74.72038891 17 74 C11.27275136 72.34524131 7.20534399 67.84122548 4 63 C0.23428511 55.19920759 -0.55424958 48.11565003 -0.390625 39.55078125 C-0.38496521 38.41215134 -0.37930542 37.27352142 -0.37347412 36.10038757 C-0.35128579 32.50397669 -0.30112144 28.90860399 -0.25 25.3125 C-0.22991238 22.85743638 -0.2116656 20.40235696 -0.1953125 17.94726562 C-0.15489958 11.96413301 -0.07657151 5.98321294 0 0 Z " fill="#050505" transform="translate(762,239)"/>
<path d="M0 0 C8.25 0 16.5 0 25 0 C26.20442708 3.19010417 27.40885417 6.38020833 28.61328125 9.5703125 C29.92372072 12.81134308 31.39219291 15.89754526 33 19 C34.54928135 16.67607797 35.63607817 14.73130052 36.7265625 12.20703125 C37.00580566 11.56483643 37.28504883 10.9226416 37.57275391 10.26098633 C37.91999512 9.45298584 38.26723633 8.64498535 38.625 7.8125 C39.73875 5.234375 40.8525 2.65625 42 0 C50.58 0 59.16 0 68 0 C61.29542645 12.29171817 61.29542645 12.29171817 58.5703125 16.7109375 C58.003125 17.64550781 57.4359375 18.58007812 56.8515625 19.54296875 C55.68374597 21.45850492 54.50906439 23.36986991 53.328125 25.27734375 C52.76867187 26.20417969 52.20921875 27.13101562 51.6328125 28.0859375 C51.12637207 28.9114209 50.61993164 29.7369043 50.09814453 30.58740234 C48.80958029 33.41834761 48.55294511 34.92103328 49 38 C50.39415167 41.05314425 50.39415167 41.05314425 52.359375 44.18359375 C52.70502502 44.76158218 53.05067505 45.33957062 53.40679932 45.93507385 C54.51103997 47.77556291 55.63034026 49.60635967 56.75 51.4375 C57.487953 52.6641282 58.22494214 53.89133681 58.9609375 55.11914062 C61.63604328 59.56384933 64.30744715 63.99049192 67.24316406 68.26977539 C69 71 69 71 69 73 C60.42 73 51.84 73 43 73 C40.03 66.07 37.06 59.14 34 52 C31.67398774 54.32601226 31.16983906 56.02502294 30.125 59.125 C28.4436144 64.11263962 26.42278574 68.15442852 24 73 C15.75 73 7.5 73 -1 73 C0.59816758 68.20549727 2.06378485 64.91030028 4.625 60.68359375 C4.97256348 60.10464859 5.32012695 59.52570343 5.67822266 58.92921448 C6.7799743 57.095255 7.88929938 55.26605126 9 53.4375 C10.1099149 51.60493399 11.21801737 49.77135415 12.32177734 47.93507385 C13.32233167 46.27117972 14.32896831 44.61094753 15.3359375 42.95092773 C17.56064894 39.13070041 17.56064894 39.13070041 19 35 C18.07392889 32.14887324 18.07392889 32.14887324 16.30859375 29.32421875 C15.69306641 28.24849609 15.07753906 27.17277344 14.44335938 26.06445312 C13.78142578 24.95005859 13.11949219 23.83566406 12.4375 22.6875 C11.80263672 21.58470703 11.16777344 20.48191406 10.51367188 19.34570312 C7.77678625 14.61476048 4.98022888 9.93624116 2.03515625 5.33203125 C0 2 0 2 0 0 Z " fill="#050505" transform="translate(551,239)"/>
<path d="M0 0 C0.83490967 0.00161133 1.66981934 0.00322266 2.5300293 0.00488281 C8.9190805 0.1319042 14.03575972 1.14090331 19.625 4.375 C20.718125 4.931875 21.81125 5.48875 22.9375 6.0625 C26.60415661 9.21753011 28.96176129 12.82685167 30.625 17.375 C30.625 19.355 30.625 21.335 30.625 23.375 C23.035 23.375 15.445 23.375 7.625 23.375 C6.965 21.395 6.305 19.415 5.625 17.375 C4.53947634 16.06237429 4.53947634 16.06237429 1.90234375 16.27734375 C0.80019531 16.28894531 -0.30195312 16.30054688 -1.4375 16.3125 C-2.54222656 16.32152344 -3.64695312 16.33054688 -4.78515625 16.33984375 C-5.63980469 16.35144531 -6.49445313 16.36304688 -7.375 16.375 C-8.22887105 19.68067489 -8.22887105 19.68067489 -8.375 23.375 C-5.35709308 27.59694232 -1.58974509 28.38004423 3.25 29.375 C13.50646411 31.72500451 23.08760575 34.02264805 29.5 43 C31.57832508 49.23497523 31.74443329 55.68698419 29 61.75 C25.09365773 68.44268431 18.13074248 72.74494303 10.78857422 74.91870117 C8.48538611 75.40444463 6.43025849 75.48854904 4.078125 75.47265625 C3.23378906 75.46943359 2.38945313 75.46621094 1.51953125 75.46289062 C0.21048828 75.45032227 0.21048828 75.45032227 -1.125 75.4375 C-2.01316406 75.43298828 -2.90132812 75.42847656 -3.81640625 75.42382812 C-6.00267329 75.412074 -8.18880179 75.39564249 -10.375 75.375 C-10.375 74.715 -10.375 74.055 -10.375 73.375 C-11.179375 73.49875 -11.98375 73.6225 -12.8125 73.75 C-18.986263 73.10013021 -23.55321776 69.29266552 -27.75 64.875 C-31.2164381 59.5420183 -32.375 56.9612723 -32.375 50.375 C-25.445 50.375 -18.515 50.375 -11.375 50.375 C-10.385 52.685 -9.395 54.995 -8.375 57.375 C-5.24056646 59.46462236 -4.50496308 59.62867554 -0.9375 59.5625 C-0.17566406 59.55605469 0.58617187 59.54960937 1.37109375 59.54296875 C3.56437857 59.37951771 5.51370807 58.97616513 7.625 58.375 C7.625 55.735 7.625 53.095 7.625 50.375 C2.45315549 47.3580907 -2.48900434 45.79456011 -8.3125 44.5 C-16.22019093 42.67893425 -23.02277909 40.07286982 -27.875 33.1875 C-30.93519538 27.44963365 -31.46426571 21.49654593 -29.796875 15.1875 C-27.30893909 9.39739461 -22.83515027 5.39933473 -17.375 2.375 C-11.52707702 0.52828748 -6.11291111 -0.01232069 0 0 Z " fill="#050505" transform="translate(1074.375,237.625)"/>
<path d="M0 0 C7.26 0 14.52 0 22 0 C22 5.94 22 11.88 22 18 C25.96 18 29.92 18 34 18 C34 22.95 34 27.9 34 33 C30.04 33 26.08 33 22 33 C22.09352117 38.21475559 22.19961178 43.42904614 22.31738281 48.64331055 C22.35567679 50.41732771 22.39052895 52.19142264 22.421875 53.96557617 C22.46751672 56.51509399 22.52551185 59.0640763 22.5859375 61.61328125 C22.59748871 62.40712723 22.60903992 63.20097321 22.62094116 64.01887512 C22.72355385 67.84323908 22.83064066 69.74596099 25 73 C27.43693311 73.36416047 27.43693311 73.36416047 30.125 73.1875 C31.03507813 73.16042969 31.94515625 73.13335937 32.8828125 73.10546875 C33.58148437 73.07066406 34.28015625 73.03585937 35 73 C35.77040851 79.06696699 36.09706112 84.88514973 36 91 C27.21624037 92.65529817 15.87639326 94.17748928 8 89 C2.78451305 84.48866346 -0.45951329 78.64310538 -1.26298523 71.74079895 C-1.34420901 69.31125747 -1.33811034 66.89920255 -1.29296875 64.46875 C-1.28872391 63.59222778 -1.28447906 62.71570557 -1.28010559 61.81262207 C-1.2634513 59.04142177 -1.22582509 56.27097664 -1.1875 53.5 C-1.17243599 51.60938558 -1.1587506 49.71875964 -1.14648438 47.828125 C-1.11359139 43.21846361 -1.06190255 38.60935938 -1 34 C-4.3 34 -7.6 34 -11 34 C-11 28.72 -11 23.44 -11 18 C-7.37 18 -3.74 18 0 18 C0 12.06 0 6.12 0 0 Z " fill="#050505" transform="translate(845,221)"/>
<path d="M0 0 C7.26 0 14.52 0 22 0 C22 5.94 22 11.88 22 18 C25.96 18 29.92 18 34 18 C34 22.95 34 27.9 34 33 C30.04 33 26.08 33 22 33 C22.09352117 38.21475559 22.19961178 43.42904614 22.31738281 48.64331055 C22.35567679 50.41732771 22.39052895 52.19142264 22.421875 53.96557617 C22.46751672 56.51509399 22.52551185 59.0640763 22.5859375 61.61328125 C22.59748871 62.40712723 22.60903992 63.20097321 22.62094116 64.01887512 C22.72355385 67.84323908 22.83064066 69.74596099 25 73 C27.43693311 73.36416047 27.43693311 73.36416047 30.125 73.1875 C31.03507813 73.16042969 31.94515625 73.13335937 32.8828125 73.10546875 C33.58148437 73.07066406 34.28015625 73.03585937 35 73 C35.77040851 79.06696699 36.09706112 84.88514973 36 91 C27.21624037 92.65529817 15.87639326 94.17748928 8 89 C2.78451305 84.48866346 -0.45951329 78.64310538 -1.26298523 71.74079895 C-1.34420901 69.31125747 -1.33811034 66.89920255 -1.29296875 64.46875 C-1.28872391 63.59222778 -1.28447906 62.71570557 -1.28010559 61.81262207 C-1.2634513 59.04142177 -1.22582509 56.27097664 -1.1875 53.5 C-1.17243599 51.60938558 -1.1587506 49.71875964 -1.14648438 47.828125 C-1.11359139 43.21846361 -1.06190255 38.60935938 -1 34 C-4.3 34 -7.6 34 -11 34 C-11 28.72 -11 23.44 -11 18 C-7.37 18 -3.74 18 0 18 C0 12.06 0 6.12 0 0 Z " fill="#050505" transform="translate(631,221)"/>
<path d="M0 0 C7.26 0 14.52 0 22 0 C22.06792878 10.40564424 22.12290421 20.81113984 22.15543652 31.21695614 C22.17105481 36.04942539 22.19222264 40.88173432 22.22631836 45.71411133 C22.2590491 50.38254421 22.27688184 55.05082343 22.28463173 59.71936226 C22.2901507 61.49545267 22.30092767 63.27153521 22.31719017 65.04755974 C22.49786195 85.60684204 22.49786195 85.60684204 16.75 93.3125 C11.38841342 98.55223234 5.01357424 101.73891854 -2.54296875 102.23046875 C-3.74566406 102.21628906 -4.94835937 102.20210938 -6.1875 102.1875 C-7.39792969 102.18105469 -8.60835937 102.17460937 -9.85546875 102.16796875 C-13 102 -13 102 -16 101 C-15.67 95.39 -15.34 89.78 -15 84 C-12.4609375 83.77213542 -9.921875 83.54427083 -7.3828125 83.31640625 C-4.98889139 83.13010715 -4.98889139 83.13010715 -3 82 C-0.4988759 78.40900715 -0.69387807 74.59769089 -0.68115234 70.38574219 C-0.67110672 69.62437958 -0.6610611 68.86301697 -0.65071106 68.07858276 C-0.61987938 65.56802102 -0.6028441 63.05756592 -0.5859375 60.546875 C-0.56722583 58.80380333 -0.54765241 57.06074071 -0.5272522 55.31768799 C-0.47592488 50.73434794 -0.43630237 46.15097852 -0.39910889 41.56750488 C-0.35907301 36.88867931 -0.30797876 32.20997598 -0.2578125 27.53125 C-0.16104603 18.35424399 -0.07766575 9.17718756 0 0 Z " fill="#020202" transform="translate(1011,239)"/>
<path d="M0 0 C5.55421303 3.23817053 9.92181509 8.1089028 12.8359375 13.8046875 C13.89506643 19.41807081 14.48778472 26.01922553 12.66943359 31.50512695 C12.15290436 34.26251558 12.15290436 34.26251558 14.27514648 36.43798828 C15.16016846 37.22157715 16.04519043 38.00516602 16.95703125 38.8125 C17.90771484 39.69421875 18.85839844 40.5759375 19.83789062 41.484375 C21.36012196 42.86453141 22.88955656 44.23439249 24.43383789 45.58984375 C33.06262178 53.22894134 33.06262178 53.22894134 34.12158203 58.24902344 C34.12109375 61.296875 34.12109375 61.296875 33.4609375 66.1171875 C28.1809375 66.1171875 22.9009375 66.1171875 17.4609375 66.1171875 C16.8009375 63.8071875 16.1409375 61.4971875 15.4609375 59.1171875 C11.98136221 57.64636203 11.98136221 57.64636203 8.4609375 57.1171875 C7.4609375 56.1171875 7.4609375 56.1171875 7.3984375 53.0546875 C7.4190625 52.0853125 7.4396875 51.1159375 7.4609375 50.1171875 C6.4090625 50.1996875 5.3571875 50.2821875 4.2734375 50.3671875 C0.4609375 50.1171875 0.4609375 50.1171875 -1.7265625 48.1796875 C-4.98422816 45.79073268 -6.39390259 45.81060697 -10.3515625 45.6171875 C-17.78997402 45.19735078 -22.72884202 43.35313266 -27.8515625 37.8671875 C-32.00071219 32.56486814 -34.13818586 26.88914735 -33.8203125 20.12109375 C-32.62407389 11.59789363 -28.06582392 6.0436491 -21.6015625 0.6796875 C-15.39205923 -2.50822713 -6.46231894 -2.24689859 0 0 Z " fill="#FD8003" transform="translate(220.5390625,258.8828125)"/>
<path d="M0 0 C7.59 0 15.18 0 23 0 C23 6.6 23 13.2 23 20 C15.41 20 7.82 20 0 20 C0 13.4 0 6.8 0 0 Z " fill="#121212" transform="translate(970,292)"/>
<path d="M0 0 C2.69477892 2.69477892 3.31956475 5.74880531 4.375 9.3125 C4.81378871 10.76042072 5.252591 12.20833732 5.69140625 13.65625 C5.90941895 14.38328125 6.12743164 15.1103125 6.35205078 15.859375 C6.95746159 17.85946617 7.58111489 19.85247706 8.21484375 21.84375 C8.57707031 22.9884375 8.93929687 24.133125 9.3125 25.3125 C9.80169922 26.85357422 9.80169922 26.85357422 10.30078125 28.42578125 C11 31 11 31 11 34 C4.4 34 -2.2 34 -9 34 C-8.35660535 28.85284282 -7.77645322 24.64553671 -6.40625 19.78515625 C-6.09816406 18.68751953 -5.79007813 17.58988281 -5.47265625 16.45898438 C-5.15167969 15.33814453 -4.83070313 14.21730469 -4.5 13.0625 C-4.01853516 11.34063477 -4.01853516 11.34063477 -3.52734375 9.58398438 C-1.13669617 1.13669617 -1.13669617 1.13669617 0 0 Z " fill="#F1F1F1" transform="translate(713,241)"/>
<path d="M0 0 C7.59 0 15.18 0 23 0 C23 5.28 23 10.56 23 16 C15.41 16 7.82 16 0 16 C0 10.72 0 5.44 0 0 Z " fill="#121212" transform="translate(1010,206)"/>
<path d="M0 0 C3.71415501 0.87471042 5.0939134 2.34985958 7.15625 5.5078125 C8.49886837 10.07271497 8.5366923 13.46159618 6.90625 17.9453125 C5.15625 20.5078125 5.15625 20.5078125 2.15625 22.5078125 C-0.90763268 23.04385091 -3.78123803 23.06161213 -6.84375 22.5078125 C-10.6824148 18.95704756 -11.71122836 15.85511583 -12.21875 10.6953125 C-12.15558335 7.58866186 -11.68161926 5.57630205 -9.90625 3.0078125 C-6.32765132 0.08650746 -4.5061556 -0.34547193 0 0 Z " fill="#0E0E0F" transform="translate(701.84375,355.4921875)"/>
<path d="M0 0 C3.71415501 0.87471042 5.0939134 2.34985958 7.15625 5.5078125 C8.49886837 10.07271497 8.5366923 13.46159618 6.90625 17.9453125 C5.15625 20.5078125 5.15625 20.5078125 2.15625 22.5078125 C-0.90763268 23.04385091 -3.78123803 23.06161213 -6.84375 22.5078125 C-10.6824148 18.95704756 -11.71122836 15.85511583 -12.21875 10.6953125 C-12.15558335 7.58866186 -11.68161926 5.57630205 -9.90625 3.0078125 C-6.32765132 0.08650746 -4.5061556 -0.34547193 0 0 Z " fill="#0E0F0F" transform="translate(628.84375,355.4921875)"/>
<path d="M0 0 C5 1 5 1 6.66918945 2.94946289 C7.14573975 3.7821167 7.62229004 4.61477051 8.11328125 5.47265625 C8.9012207 6.82133789 8.9012207 6.82133789 9.70507812 8.19726562 C10.23552734 9.14279297 10.76597656 10.08832031 11.3125 11.0625 C12.13717773 12.4865918 12.13717773 12.4865918 12.97851562 13.93945312 C14.33371289 16.28453361 15.66880324 18.64121276 17 21 C17.33 14.07 17.66 7.14 18 0 C19.32 0 20.64 0 22 0 C22 9.9 22 19.8 22 30 C17 29 17 29 15.33081055 27.05053711 C14.85426025 26.2178833 14.37770996 25.38522949 13.88671875 24.52734375 C13.0987793 23.17866211 13.0987793 23.17866211 12.29492188 21.80273438 C11.49924805 20.38444336 11.49924805 20.38444336 10.6875 18.9375 C9.86282227 17.5134082 9.86282227 17.5134082 9.02148438 16.06054688 C7.66628711 13.71546639 6.33119676 11.35878724 5 9 C4.67 15.93 4.34 22.86 4 30 C2.68 30 1.36 30 0 30 C0 20.1 0 10.2 0 0 Z " fill="#0E0E0E" transform="translate(740,348)"/>
<path d="M0 0 C1.32 0 2.64 0 4 0 C5.5686719 4.11093684 7.13519738 8.22268296 8.69970703 12.33520508 C9.23264044 13.7351714 9.76616785 15.13491174 10.30029297 16.53442383 C11.06632935 18.54189394 11.83025102 20.55015746 12.59375 22.55859375 C13.05458984 23.76829834 13.51542969 24.97800293 13.99023438 26.22436523 C15 29 15 29 15 30 C13.35 30 11.7 30 10 30 C9.34 27.36 8.68 24.72 8 22 C3.71 22 -0.58 22 -5 22 C-5.66 24.64 -6.32 27.28 -7 30 C-8.32 30 -9.64 30 -11 30 C-10.42102942 25.88544399 -9.49322752 22.27991125 -7.96875 18.41796875 C-7.57042969 17.40412109 -7.17210937 16.39027344 -6.76171875 15.34570312 C-6.34535156 14.30349609 -5.92898438 13.26128906 -5.5 12.1875 C-5.08363281 11.12595703 -4.66726563 10.06441406 -4.23828125 8.97070312 C-1.14342758 1.14342758 -1.14342758 1.14342758 0 0 Z " fill="#0F0F0F" transform="translate(396,348)"/>
<path d="M0 0 C3.16115776 1.36983503 3.9927092 1.9890638 6 5 C5.34644531 4.54367187 4.69289062 4.08734375 4.01953125 3.6171875 C1.11734465 2.69453378 1.11734465 2.69453378 -0.84228516 3.95410156 C-3.07347361 5.6004049 -5.19521824 7.33444668 -7.3125 9.125 C-8.91018243 10.42604754 -10.5091693 11.72549467 -12.109375 13.0234375 C-13.32270508 14.01875488 -13.32270508 14.01875488 -14.56054688 15.03417969 C-18.97512776 18.59164619 -23.56017528 21.92032421 -28.13598633 25.26611328 C-31.5851317 27.66478201 -31.5851317 27.66478201 -34 31 C-32.77266512 33.4169671 -32.77266512 33.4169671 -31.0625 36 C-28 40.79954442 -28 40.79954442 -28 43 C-27.34 43 -26.68 43 -26 43 C-24.74966403 44.57716239 -23.57557958 46.21501322 -22.4375 47.875 C-15.35392708 57.8587314 -3.16463943 74.94512019 9 79 C9 79.66 9 80.32 9 81 C10.01126953 81.38285156 10.01126953 81.38285156 11.04296875 81.7734375 C14.55132756 83.22868805 17.92678552 84.90947835 21.3125 86.625 C21.95767578 86.94984375 22.60285156 87.2746875 23.26757812 87.609375 C24.84597541 88.40441956 26.42311694 89.20195634 28 90 C28 90.66 28 91.32 28 92 C28.95712891 92.16435547 28.95712891 92.16435547 29.93359375 92.33203125 C30.75988281 92.49058594 31.58617187 92.64914062 32.4375 92.8125 C33.26121094 92.96332031 34.08492188 93.11414063 34.93359375 93.26953125 C35.61550781 93.51058594 36.29742187 93.75164062 37 94 C37.33 94.99 37.66 95.98 38 97 C31.94234579 95.14728813 26.33756869 92.92095531 20.75 89.9375 C19.6503894 89.3504126 19.6503894 89.3504126 18.52856445 88.75146484 C-3.577774 76.61210432 -21.11980143 57.41230463 -34 36 C-34.57621094 35.10410156 -35.15242187 34.20820313 -35.74609375 33.28515625 C-37 31 -37 31 -37 28 C-35.07576767 26.42534685 -33.18828128 25.05931075 -31.125 23.6875 C-25.07233807 19.52337012 -19.22250864 15.15360854 -13.4375 10.625 C-12.67646973 10.03033936 -11.91543945 9.43567871 -11.13134766 8.82299805 C-7.40372197 5.90325925 -3.69030486 2.96685896 0 0 Z " fill="#E76BF3" transform="translate(179,323)"/>
<path d="M0 0 C2.32286474 3.48429711 2.08480112 4.92954615 2 9 C2.33 9.99 2.66 10.98 3 12 C3.20324543 14.24699112 3.36468053 16.49789733 3.5 18.75 C3.8821281 24.5475997 4.36338752 30.13524382 5.625 35.8125 C6 38 6 38 5 40 C5.66 40 6.32 40 7 40 C7.24907104 41.24704712 7.24907104 41.24704712 7.50317383 42.51928711 C8.1304608 45.64571323 8.76289886 48.77104335 9.39868164 51.89575195 C9.67121197 53.2403957 9.94177073 54.58544078 10.21020508 55.9309082 C11.71781833 63.48020436 13.38969927 70.75778277 16 78 C16.46820992 79.62218184 16.92879155 81.24662889 17.375 82.875 C18.72949501 87.42023842 20.50990026 91.62904224 22.54296875 95.91015625 C23.65103236 98.25996407 24.70760244 100.61261374 25.73828125 102.99609375 C26.34624387 104.37244456 26.95431604 105.74874698 27.5625 107.125 C27.84319336 107.78910889 28.12388672 108.45321777 28.41308594 109.13745117 C29.98469441 112.82241576 29.98469441 112.82241576 33.21484375 114.9296875 C33.80394531 114.95289063 34.39304688 114.97609375 35 115 C33.35 115.99 31.7 116.98 30 118 C11.8150183 83.37115186 -2.25697063 40.59457485 -1 1 C-0.67 0.67 -0.34 0.34 0 0 Z " fill="#49F3C2" transform="translate(111,234)"/>
<path d="M0 0 C0.77085937 -0.01675781 1.54171875 -0.03351563 2.3359375 -0.05078125 C5.44597448 0.44279117 6.58810891 0.85164063 8.625 3.3125 C9.1236013 6.5526282 8.99931998 9.73181886 8.875 13 C8.85695313 13.89267578 8.83890625 14.78535156 8.8203125 15.70507812 C8.77317759 17.90863504 8.70740657 20.11002601 8.625 22.3125 C7.305 22.3125 5.985 22.3125 4.625 22.3125 C4.295 21.6525 3.965 20.9925 3.625 20.3125 C2.965 20.9725 2.305 21.6325 1.625 22.3125 C-1.30688861 22.59172749 -3.52890647 22.78393881 -6.375 22.3125 C-8.82203913 20.24781073 -9.25328805 18.92105973 -9.875 15.8125 C-9.375 13.3125 -9.375 13.3125 -7.4375 11 C-3.32478453 8.73380984 0.03208123 8.95227108 4.625 9.3125 C4.295 7.3325 3.965 5.3525 3.625 3.3125 C2.573125 3.621875 1.52125 3.93125 0.4375 4.25 C-2.50252396 5.06935094 -5.37661623 5.76733931 -8.375 6.3125 C-6.30534707 1.87752943 -5.05296104 0.02518087 0 0 Z " fill="#121212" transform="translate(578.375,355.6875)"/>
<path d="M0 0 C2.08984375 0.4453125 2.08984375 0.4453125 4.58984375 1.9453125 C6.70258553 5.4665488 6.81745894 8.35954034 7.08984375 12.4453125 C2.13984375 12.4453125 -2.81015625 12.4453125 -7.91015625 12.4453125 C-6.92015625 14.4253125 -5.93015625 16.4053125 -4.91015625 18.4453125 C-1.61015625 18.4453125 1.68984375 18.4453125 5.08984375 18.4453125 C5.08984375 19.4353125 5.08984375 20.4253125 5.08984375 21.4453125 C1.61453288 23.18296793 -2.11895635 23.04116602 -5.91015625 22.4453125 C-9.19190943 19.91562776 -10.60259402 18.36799919 -11.91015625 14.4453125 C-12.35302589 9.9428045 -12.6014583 6.74849347 -9.97265625 2.9453125 C-6.36683428 0.00178436 -4.53050044 -0.34676043 0 0 Z " fill="#101111" transform="translate(779.91015625,355.5546875)"/>
<path d="M0 0 C2.08984375 0.4453125 2.08984375 0.4453125 4.58984375 1.9453125 C6.70258553 5.4665488 6.81745894 8.35954034 7.08984375 12.4453125 C2.13984375 12.4453125 -2.81015625 12.4453125 -7.91015625 12.4453125 C-6.92015625 14.4253125 -5.93015625 16.4053125 -4.91015625 18.4453125 C-1.61015625 18.4453125 1.68984375 18.4453125 5.08984375 18.4453125 C5.08984375 19.4353125 5.08984375 20.4253125 5.08984375 21.4453125 C1.61453288 23.18296793 -2.11895635 23.04116602 -5.91015625 22.4453125 C-9.19190943 19.91562776 -10.60259402 18.36799919 -11.91015625 14.4453125 C-12.35302589 9.9428045 -12.6014583 6.74849347 -9.97265625 2.9453125 C-6.36683428 0.00178436 -4.53050044 -0.34676043 0 0 Z " fill="#101111" transform="translate(486.91015625,355.5546875)"/>
<path d="M0 0 C1.32 0 2.64 0 4 0 C4.33 3.63 4.66 7.26 5 11 C5.66 10.67 6.32 10.34 7 10 C13.12946036 9.43245737 13.12946036 9.43245737 16.2109375 11.44140625 C18.88541069 15.26625328 18.43463732 18.70508125 18.25 23.25 C18.23195313 24.09046875 18.21390625 24.9309375 18.1953125 25.796875 C18.14830798 27.86507395 18.07656724 29.93268441 18 32 C16.68 32 15.36 32 14 32 C13.93941406 30.78441406 13.87882812 29.56882812 13.81640625 28.31640625 C13.73201668 26.73175772 13.6473679 25.14712298 13.5625 23.5625 C13.52318359 22.76005859 13.48386719 21.95761719 13.44335938 21.13085938 C13.5945704 17.24760439 13.5945704 17.24760439 12 14 C9 13.83333333 9 13.83333333 6 14 C3.88074396 16.11925604 4.58168983 20.6196093 4.4375 23.5625 C4.39431641 24.36880859 4.35113281 25.17511719 4.30664062 26.00585938 C4.20024738 28.00368805 4.09959112 30.0018207 4 32 C2.68 32 1.36 32 0 32 C0 21.44 0 10.88 0 0 Z " fill="#010101" transform="translate(452,346)"/>
<path d="M0 0 C2.31704629 0.74684872 4.63475087 1.49165841 6.953125 2.234375 C8.05076172 2.58951172 9.14839844 2.94464844 10.27929688 3.31054688 C13.74972159 4.40803161 17.22205502 5.3558204 20.75 6.25 C36.85241525 10.40841668 52.6889438 15.69566246 68.5090332 20.80908203 C72.76109916 22.17588786 77.01445941 23.48261392 81.32421875 24.65625 C82.11562256 24.87450439 82.90702637 25.09275879 83.72241211 25.31762695 C85.19470878 25.71833027 86.6706886 26.10583835 88.15063477 26.47729492 C92.93295751 27.78210665 92.93295751 27.78210665 94.703125 30.39453125 C94.88359375 31.00683594 95.0640625 31.61914062 95.25 32.25 C94.26 32.91 93.27 33.57 92.25 34.25 C92.25 32.93 92.25 31.61 92.25 30.25 C91.26 30.25 90.27 30.25 89.25 30.25 C89.25 29.59 89.25 28.93 89.25 28.25 C88.363125 28.1675 87.47625 28.085 86.5625 28 C81.6288972 27.31253076 76.96988354 25.69983352 72.23828125 24.1875 C67.92653405 22.834795 63.71440149 21.96024569 59.25 21.25 C59.25 20.59 59.25 19.93 59.25 19.25 C57.765 19.745 57.765 19.745 56.25 20.25 C56.25 19.59 56.25 18.93 56.25 18.25 C55.693125 18.21261719 55.13625 18.17523438 54.5625 18.13671875 C53.799375 18.07097656 53.03625 18.00523437 52.25 17.9375 C51.5075 17.87949219 50.765 17.82148438 50 17.76171875 C47.01018486 17.20537531 44.32927804 16.19793767 41.50244141 15.09448242 C37.3787269 13.54842471 33.15537464 12.32319316 28.9375 11.0625 C28.04482422 10.78986328 27.15214844 10.51722656 26.23242188 10.23632812 C24.94754883 9.85057617 24.94754883 9.85057617 23.63671875 9.45703125 C22.86545654 9.2247583 22.09419434 8.99248535 21.29956055 8.75317383 C19.11615639 8.13078836 19.11615639 8.13078836 16.25 8.25 C16.25 7.59 16.25 6.93 16.25 6.25 C15.26 6.58 14.27 6.91 13.25 7.25 C10.125 6.4375 10.125 6.4375 7.25 5.25 C6.755 4.26 6.755 4.26 6.25 3.25 C5.26 3.58 4.27 3.91 3.25 4.25 C1.52719659 3.55425247 -0.19323423 2.85028455 -1.88671875 2.0859375 C-11.31068894 -2.1420072 -22.04289195 -2.05454742 -31.75 1.25 C-34.6875 1.375 -34.6875 1.375 -36.75 1.25 C-34.10995361 -0.51003093 -32.21832719 -1.42089483 -29.25 -2.375 C-28.4765625 -2.63539063 -27.703125 -2.89578125 -26.90625 -3.1640625 C-17.22408667 -4.96149381 -9.20613649 -3.09230368 0 0 Z " fill="#34C0F8" transform="translate(239.75,172.75)"/>
<path d="M0 0 C2.08984375 0.51171875 2.08984375 0.51171875 4.58984375 2.51171875 C6.08984375 5.51171875 6.08984375 5.51171875 7.08984375 13.51171875 C0.48984375 13.51171875 -6.11015625 13.51171875 -12.91015625 13.51171875 C-11.65757311 4.74363675 -9.45062952 -0.70761785 0 0 Z " fill="#F2F2F2" transform="translate(515.91015625,254.48828125)"/>
<path d="M0 0 C3.67851062 1.05100304 4.82157387 1.77513216 7.0625 4.875 C7.55180011 7.97302449 7.43950976 10.99860584 7.3125 14.125 C7.29445313 14.96546875 7.27640625 15.8059375 7.2578125 16.671875 C7.21080798 18.74007395 7.13906724 20.80768441 7.0625 22.875 C5.7425 22.875 4.4225 22.875 3.0625 22.875 C3.00191406 21.65941406 2.94132813 20.44382812 2.87890625 19.19140625 C2.79451668 17.60675772 2.7098679 16.02212298 2.625 14.4375 C2.58568359 13.63505859 2.54636719 12.83261719 2.50585938 12.00585938 C2.6570704 8.12260439 2.6570704 8.12260439 1.0625 4.875 C-1.9375 4.70833333 -1.9375 4.70833333 -4.9375 4.875 C-7.05675604 6.99425604 -6.35581017 11.4946093 -6.5 14.4375 C-6.54318359 15.24380859 -6.58636719 16.05011719 -6.63085938 16.88085938 C-6.73725262 18.87868805 -6.83790888 20.8768207 -6.9375 22.875 C-8.2575 22.875 -9.5775 22.875 -10.9375 22.875 C-10.9375 15.615 -10.9375 8.355 -10.9375 0.875 C-8.4625 1.37 -8.4625 1.37 -5.9375 1.875 C-2.9375 -0.125 -2.9375 -0.125 0 0 Z " fill="#111111" transform="translate(652.9375,355.125)"/>
<path d="M0 0 C3.67851062 1.05100304 4.82157387 1.77513216 7.0625 4.875 C7.55180011 7.97302449 7.43950976 10.99860584 7.3125 14.125 C7.29445313 14.96546875 7.27640625 15.8059375 7.2578125 16.671875 C7.21080798 18.74007395 7.13906724 20.80768441 7.0625 22.875 C5.7425 22.875 4.4225 22.875 3.0625 22.875 C3.00191406 21.65941406 2.94132812 20.44382812 2.87890625 19.19140625 C2.79451668 17.60675772 2.7098679 16.02212298 2.625 14.4375 C2.58568359 13.63505859 2.54636719 12.83261719 2.50585938 12.00585938 C2.6570704 8.12260439 2.6570704 8.12260439 1.0625 4.875 C-1.9375 4.70833333 -1.9375 4.70833333 -4.9375 4.875 C-7.05675604 6.99425604 -6.35581017 11.4946093 -6.5 14.4375 C-6.54318359 15.24380859 -6.58636719 16.05011719 -6.63085938 16.88085938 C-6.73725262 18.87868805 -6.83790888 20.8768207 -6.9375 22.875 C-8.2575 22.875 -9.5775 22.875 -10.9375 22.875 C-10.9375 15.615 -10.9375 8.355 -10.9375 0.875 C-8.4625 1.37 -8.4625 1.37 -5.9375 1.875 C-2.9375 -0.125 -2.9375 -0.125 0 0 Z " fill="#111111" transform="translate(508.9375,355.125)"/>
<path d="M0 0 C1.32 0 2.64 0 4 0 C4.06058594 1.21558594 4.12117188 2.43117188 4.18359375 3.68359375 C4.26798332 5.26824228 4.3526321 6.85287702 4.4375 8.4375 C4.47681641 9.23994141 4.51613281 10.04238281 4.55664062 10.86914062 C4.4054296 14.75239561 4.4054296 14.75239561 6 18 C8.45809998 18.2500773 8.45809998 18.2500773 11 18 C13.93447357 15.06552643 13.46158423 11.81740544 13.625 7.875 C13.68300781 6.74384766 13.68300781 6.74384766 13.7421875 5.58984375 C13.83651031 3.72696816 13.91934662 1.86351745 14 0 C15.32 0 16.64 0 18 0 C18 7.26 18 14.52 18 22 C16.35 21.67 14.7 21.34 13 21 C12.34 21.33 11.68 21.66 11 22 C4.87053964 22.56754263 4.87053964 22.56754263 1.7890625 20.55859375 C-0.88541069 16.73374672 -0.43463732 13.29491875 -0.25 8.75 C-0.23195313 7.90953125 -0.21390625 7.0690625 -0.1953125 6.203125 C-0.14830798 4.13492605 -0.07656724 2.06731559 0 0 Z " fill="#090909" transform="translate(414,356)"/>
<path d="M0 0 C1.77734375 1.3359375 1.77734375 1.3359375 3 3 C3 3.99 3 4.98 3 6 C1.68 6 0.36 6 -1 6 C-1.33 5.34 -1.66 4.68 -2 4 C-3.98 4 -5.96 4 -8 4 C-7.79910689 5.9681998 -7.79910689 5.9681998 -7 8 C-5.24897203 9.02513439 -5.24897203 9.02513439 -3.125 9.5625 C0.01956003 10.49658517 1.93860251 11.38411267 4 14 C3.86019725 16.79605507 3.4562784 18.41991436 1.71875 20.62890625 C-1.00341573 22.8004521 -3.40282051 22.46921874 -6.76953125 22.359375 C-10.07645183 21.82656118 -11.8090189 20.47368834 -14 18 C-14 17.01 -14 16.02 -14 15 C-11.5625 15.375 -11.5625 15.375 -9 16 C-8.67 16.66 -8.34 17.32 -8 18 C-5.36 18 -2.72 18 0 18 C-0.44033992 16.01979579 -0.44033992 16.01979579 -2 14 C-3.97631776 13.09507696 -5.94666879 12.43474079 -8.02734375 11.80859375 C-10.29054104 10.88090694 -11.46291058 9.89071429 -13 8 C-13.4375 5.5 -13.4375 5.5 -13 3 C-9.86552379 -0.95216566 -4.65628404 -0.87466109 0 0 Z " fill="#131313" transform="translate(862,356)"/>
<path d="M0 0 C2.3125 0.1875 2.3125 0.1875 5 1 C6.8125 3.5625 6.8125 3.5625 8 6 C8.556875 5.195625 9.11375 4.39125 9.6875 3.5625 C12.21864487 0.75771784 13.32579134 0.30618405 17 0 C15.96745845 2.77991956 14.95899749 5.05857502 13.25 7.5 C11.71071855 9.91053151 11.71071855 9.91053151 12.5625 12.375 C14.33436371 15.61057721 16.12943267 18.82003553 18 22 C16.35 22 14.7 22 13 22 C11.68 19.69 10.36 17.38 9 15 C7.25728062 17.297221 5.60088848 19.59866729 4 22 C1.375 22.1875 1.375 22.1875 -1 22 C-0.55527344 21.32453125 -0.11054687 20.6490625 0.34765625 19.953125 C0.91355469 19.06109375 1.47945312 18.1690625 2.0625 17.25 C2.63097656 16.36828125 3.19945312 15.4865625 3.78515625 14.578125 C5.19370415 12.15037956 5.19370415 12.15037956 4.8125 9.8671875 C3.57161928 7.01554816 1.73398398 4.57300849 0 2 C0 1.34 0 0.68 0 0 Z " fill="#0D0D0D" transform="translate(790,356)"/>
<path d="M0 0 C2.7668316 0.52136192 4.29481614 1.20452481 6.09375 3.39453125 C6.09375 4.71453125 6.09375 6.03453125 6.09375 7.39453125 C5.10375 7.39453125 4.11375 7.39453125 3.09375 7.39453125 C2.43375 6.40453125 1.77375 5.41453125 1.09375 4.39453125 C-1.90625 3.89453125 -1.90625 3.89453125 -4.90625 4.39453125 C-6.90450961 7.39192066 -7.18175398 8.02800633 -7.15625 11.39453125 C-7.16140625 12.07515625 -7.1665625 12.75578125 -7.171875 13.45703125 C-7.00542603 15.71869132 -7.00542603 15.71869132 -4.90625 18.39453125 C-1.90625 18.89453125 -1.90625 18.89453125 1.09375 18.39453125 C1.75375 17.40453125 2.41375 16.41453125 3.09375 15.39453125 C4.41375 15.39453125 5.73375 15.39453125 7.09375 15.39453125 C5.84398244 19.04769796 5.42276247 20.17518961 2.09375 22.39453125 C-0.99801759 22.99667325 -3.81292194 22.99044384 -6.90625 22.39453125 C-10.37510352 19.70439995 -11.54604476 18.2342572 -12.37890625 13.98046875 C-12.62655062 9.77686433 -12.37766709 6.31156265 -9.96875 2.76953125 C-6.34976442 -0.037029 -4.45841365 -0.31951964 0 0 Z " fill="#111111" transform="translate(557.90625,355.60546875)"/>
<path d="M0 0 C3 0.5 3 0.5 4.875 2 C6.47568775 5.55708388 6.56627076 8.66194265 6 12.5 C4.875 15 4.875 15 3 16.5 C0 17 0 17 -3 16.5 C-5.21442221 14.72846223 -5.86894101 13.38828869 -6.28125 10.59375 C-6.42794999 7.31745032 -6.23033977 5.01186617 -4.875 2 C-3 0.5 -3 0.5 0 0 Z " fill="#F0F0F0" transform="translate(700,358.5)"/>
<path d="M0 0 C3 0.5 3 0.5 4.875 2 C6.47568775 5.55708388 6.56627076 8.66194265 6 12.5 C4.875 15 4.875 15 3 16.5 C0 17 0 17 -3 16.5 C-5.21442221 14.72846223 -5.86894101 13.38828869 -6.28125 10.59375 C-6.42794999 7.31745032 -6.23033977 5.01186617 -4.875 2 C-3 0.5 -3 0.5 0 0 Z " fill="#F0F0F0" transform="translate(627,358.5)"/>
<path d="M0 0 C0 0.99 0 1.98 0 3 C-1.32 3.33 -2.64 3.66 -4 4 C-4.33 5.98 -4.66 7.96 -5 10 C-3.68 10 -2.36 10 -1 10 C-1 10.99 -1 11.98 -1 13 C-2.32 13 -3.64 13 -5 13 C-5 19.27 -5 25.54 -5 32 C-6.32 32 -7.64 32 -9 32 C-9 25.73 -9 19.46 -9 13 C-10.32 13 -11.64 13 -13 13 C-13 12.01 -13 11.02 -13 10 C-11.68 10 -10.36 10 -9 10 C-9.061875 8.906875 -9.12375 7.81375 -9.1875 6.6875 C-9 3 -9 3 -7.875 1.0625 C-5.214973 -0.44484863 -2.99793795 -0.19986253 0 0 Z " fill="#101010" transform="translate(687,346)"/>
<path d="M0 0 C1.65 0 3.3 0 5 0 C5.08729047 4.06236402 5.14048992 8.12448589 5.1875 12.1875 C5.21263672 13.33798828 5.23777344 14.48847656 5.26367188 15.67382812 C5.27817383 17.34155273 5.27817383 17.34155273 5.29296875 19.04296875 C5.31653442 20.57473755 5.31653442 20.57473755 5.34057617 22.13745117 C4.91151578 25.74371145 3.58475564 28.41524436 1 31 C-0.66617115 31.04063832 -2.33388095 31.042721 -4 31 C-4 30.01 -4 29.02 -4 28 C-3.01 27.67 -2.02 27.34 -1 27 C-0.67 18.09 -0.34 9.18 0 0 Z " fill="#2A2A2A" transform="translate(838,356)"/>
<path d="M0 0 C1.32 0 2.64 0 4 0 C4 1.65 4 3.3 4 5 C5.65 5 7.3 5 9 5 C9 5.99 9 6.98 9 8 C7.35 8 5.7 8 4 8 C4.33 12.95 4.66 17.9 5 23 C5.99 23.33 6.98 23.66 8 24 C8 24.99 8 25.98 8 27 C5.6568787 26.74438677 3.32156597 26.40729228 1 26 C-0.59412284 22.81175432 -0.10174735 19.37103338 -0.0625 15.875 C-0.05798828 15.12089844 -0.05347656 14.36679687 -0.04882812 13.58984375 C-0.03703499 11.72652873 -0.01909942 9.86325445 0 8 C-0.99 8 -1.98 8 -3 8 C-3 7.01 -3 6.02 -3 5 C-2.01 5 -1.02 5 0 5 C0 3.35 0 1.7 0 0 Z " fill="#101010" transform="translate(814,351)"/>
<path d="M0 0 C1.32 0 2.64 0 4 0 C4 1.65 4 3.3 4 5 C5.65 5 7.3 5 9 5 C9 5.99 9 6.98 9 8 C7.35 8 5.7 8 4 8 C4.33 12.95 4.66 17.9 5 23 C5.99 23.33 6.98 23.66 8 24 C8 24.99 8 25.98 8 27 C5.6568787 26.74438677 3.32156597 26.40729228 1 26 C-0.59412284 22.81175432 -0.10174735 19.37103338 -0.0625 15.875 C-0.05798828 15.12089844 -0.05347656 14.36679687 -0.04882812 13.58984375 C-0.03703499 11.72652873 -0.01909942 9.86325445 0 8 C-0.99 8 -1.98 8 -3 8 C-3 7.01 -3 6.02 -3 5 C-2.01 5 -1.02 5 0 5 C0 3.35 0 1.7 0 0 Z " fill="#101010" transform="translate(594,351)"/>
<path d="M0 0 C1.32 0 2.64 0 4 0 C4 1.65 4 3.3 4 5 C5.65 5 7.3 5 9 5 C9 5.99 9 6.98 9 8 C7.35 8 5.7 8 4 8 C4.33 12.95 4.66 17.9 5 23 C5.99 23.33 6.98 23.66 8 24 C8 24.99 8 25.98 8 27 C5.6568787 26.74438677 3.32156597 26.40729228 1 26 C-0.59412284 22.81175432 -0.10174735 19.37103338 -0.0625 15.875 C-0.05798828 15.12089844 -0.05347656 14.36679687 -0.04882812 13.58984375 C-0.03703499 11.72652873 -0.01909942 9.86325445 0 8 C-0.99 8 -1.98 8 -3 8 C-3 7.01 -3 6.02 -3 5 C-2.01 5 -1.02 5 0 5 C0 3.35 0 1.7 0 0 Z " fill="#101010" transform="translate(523,351)"/>
<path d="M0 0 C1.32 0 2.64 0 4 0 C4 1.65 4 3.3 4 5 C5.65 5 7.3 5 9 5 C9 5.99 9 6.98 9 8 C7.35 8 5.7 8 4 8 C4.33 12.95 4.66 17.9 5 23 C5.99 23.33 6.98 23.66 8 24 C8 24.99 8 25.98 8 27 C5.6568787 26.74438677 3.32156597 26.40729228 1 26 C-0.59412284 22.81175432 -0.10174735 19.37103338 -0.0625 15.875 C-0.05798828 15.12089844 -0.05347656 14.36679687 -0.04882812 13.58984375 C-0.03703499 11.72652873 -0.01909942 9.86325445 0 8 C-0.99 8 -1.98 8 -3 8 C-3 7.01 -3 6.02 -3 5 C-2.01 5 -1.02 5 0 5 C0 3.35 0 1.7 0 0 Z " fill="#101010" transform="translate(439,351)"/>
<path d="M0 0 C0 1.32 0 2.64 0 4 C-1.98 4.66 -3.96 5.32 -6 6 C-6.33 11.61 -6.66 17.22 -7 23 C-8.32 23 -9.64 23 -11 23 C-11 15.74 -11 8.48 -11 1 C-8.525 1.495 -8.525 1.495 -6 2 C-3 0 -3 0 0 0 Z " fill="#0A0A0A" transform="translate(725,355)"/>
<path d="M0 0 C0 0.66 0 1.32 0 2 C2.31 2.33 4.62 2.66 7 3 C7 3.66 7 4.32 7 5 C8.32 5.33 9.64 5.66 11 6 C10.34 6.66 9.68 7.32 9 8 C7.7315625 7.01 7.7315625 7.01 6.4375 6 C0.47820159 2.62589622 -6.40779661 3.0883123 -13 4 C-19.73343874 6.57676287 -24.05737133 11.51045284 -27 18 C-28.08216131 21.28051416 -28.10346079 24.30929335 -28.0625 27.75 C-28.05347656 28.73484375 -28.04445312 29.7196875 -28.03515625 30.734375 C-28.02355469 31.48203125 -28.01195312 32.2296875 -28 33 C-28.66 33 -29.32 33 -30 33 C-30.02707139 30.75006641 -30.04642829 28.50003905 -30.0625 26.25 C-30.07410156 24.99703125 -30.08570313 23.7440625 -30.09765625 22.453125 C-30.02021027 19.71463499 -29.82780815 17.58119707 -29 15 C-28.34 15 -27.68 15 -27 15 C-26.731875 14.071875 -26.46375 13.14375 -26.1875 12.1875 C-25.0880449 9.23633103 -24.51205515 7.80867971 -22 6 C-21.01 6 -20.02 6 -19 6 C-19 5.34 -19 4.68 -19 4 C-12.511583 0.48935892 -7.35174806 -0.55253221 0 0 Z " fill="#EECDBE" transform="translate(216,255)"/>
<path d="M0 0 C2.20703125 1.44921875 2.20703125 1.44921875 4 4 C4.48599743 7.09874961 4.37702253 10.12329169 4.25 13.25 C4.23195313 14.09046875 4.21390625 14.9309375 4.1953125 15.796875 C4.14830798 17.86507395 4.07656724 19.93268441 4 22 C2.68 22 1.36 22 0 22 C-0.06058594 20.78441406 -0.12117188 19.56882812 -0.18359375 18.31640625 C-0.26798332 16.73175772 -0.3526321 15.14712298 -0.4375 13.5625 C-0.47681641 12.76005859 -0.51613281 11.95761719 -0.55664062 11.13085938 C-0.4054296 7.24760439 -0.4054296 7.24760439 -2 4 C-3.34747084 3.76924918 -4.70377565 3.58846937 -6.0625 3.4375 C-7.361875 3.293125 -8.66125 3.14875 -10 3 C-7.29602194 -0.81738079 -4.39903544 -0.54023242 0 0 Z " fill="#070707" transform="translate(466,356)"/>
<path d="M0 0 C-1.2065625 0.185625 -1.2065625 0.185625 -2.4375 0.375 C-3.283125 0.58125 -4.12875 0.7875 -5 1 C-5.33 1.66 -5.66 2.32 -6 3 C-8.21484375 3.78125 -8.21484375 3.78125 -10.9375 4.5 C-14.88351557 5.49475237 -14.88351557 5.49475237 -18 8 C-18.42355123 10.13592982 -18.42355123 10.13592982 -18.5625 12.5 C-18.90540541 16.81081081 -18.90540541 16.81081081 -20 19 C-19.34 19 -18.68 19 -18 19 C-18 24.61 -18 30.22 -18 36 C-18.99 36.495 -18.99 36.495 -20 37 C-21.38209147 30.98554784 -21.22326082 25.01832666 -21.25 18.875 C-21.270625 17.68261719 -21.29125 16.49023438 -21.3125 15.26171875 C-21.31765625 14.12089844 -21.3228125 12.98007813 -21.328125 11.8046875 C-21.3374707 10.76296387 -21.34681641 9.72124023 -21.35644531 8.64794922 C-21 6 -21 6 -19.68041992 4.21240234 C-17.02849053 2.29906785 -14.19333195 1.63044382 -11.0625 0.75 C-9.83660156 0.39421875 -8.61070313 0.0384375 -7.34765625 -0.328125 C-4.30405013 -0.9389771 -2.83138468 -1.10700754 0 0 Z " fill="#4BE9C7" transform="translate(130,197)"/>
<path d="M0 0 C3.16115776 1.36983503 3.9927092 1.9890638 6 5 C5.34644531 4.54367187 4.69289062 4.08734375 4.01953125 3.6171875 C1.11734465 2.69453378 1.11734465 2.69453378 -0.84228516 3.95410156 C-3.07343834 5.60037888 -5.19504899 7.33472144 -7.3125 9.125 C-8.91164439 10.4245516 -10.51192959 11.7227005 -12.11328125 13.01953125 C-12.9223291 13.68291504 -13.73137695 14.34629883 -14.56494141 15.02978516 C-18.30401205 18.05508093 -22.14426472 20.93834569 -26 23.8125 C-26.67587158 24.32119629 -27.35174316 24.82989258 -28.0480957 25.35400391 C-32.74343928 28.87171964 -32.74343928 28.87171964 -35 30 C-35.66 29.34 -36.32 28.68 -37 28 C-36.19820312 27.44054687 -35.39640625 26.88109375 -34.5703125 26.3046875 C-22.71651823 17.96791417 -11.29295634 9.07908965 0 0 Z " fill="#CF55E6" transform="translate(179,323)"/>
<path d="M0 0 C0.33 0 0.66 0 1 0 C1.50935128 10.22947147 0.70511555 18.33055211 -3 28 C-3.27714844 28.81082031 -3.55429687 29.62164062 -3.83984375 30.45703125 C-6.35377385 37.07202704 -10.83564866 42.22447048 -16 47 C-16.66 47 -17.32 47 -18 47 C-16.46622574 43.60996561 -14.45373872 40.87971049 -12.1875 37.9375 C-3.35926392 25.92084473 -0.8458391 14.60185387 0 0 Z " fill="#8A2ED8" transform="translate(276,287)"/>
<path d="M0 0 C2.32286474 3.48429711 2.08480112 4.92954615 2 9 C2.33 9.99 2.66 10.98 3 12 C3.20324543 14.24699112 3.36468053 16.49789733 3.5 18.75 C3.93163468 25.29870746 4.63725791 31.57564441 6 38 C4.515 38.495 4.515 38.495 3 39 C-1.35871291 12.29945675 -1.35871291 12.29945675 -1 1 C-0.67 0.67 -0.34 0.34 0 0 Z " fill="#51F2C7" transform="translate(111,234)"/>
<path d="M0 0 C4.46795051 1.40421302 6.76935712 3.6843402 10 7 C10.99 7.33 11.98 7.66 13 8 C13 8.66 13 9.32 13 10 C13.67417969 10.25523437 14.34835938 10.51046875 15.04296875 10.7734375 C18.55132756 12.22868805 21.92678552 13.90947835 25.3125 15.625 C25.95767578 15.94984375 26.60285156 16.2746875 27.26757812 16.609375 C28.84597541 17.40441956 30.42311694 18.20195634 32 19 C32 19.66 32 20.32 32 21 C32.95712891 21.16435547 32.95712891 21.16435547 33.93359375 21.33203125 C34.75988281 21.49058594 35.58617187 21.64914062 36.4375 21.8125 C37.26121094 21.96332031 38.08492187 22.11414063 38.93359375 22.26953125 C39.95646484 22.63111328 39.95646484 22.63111328 41 23 C41.495 24.485 41.495 24.485 42 26 C35.94206092 24.14720101 30.33832092 21.9199125 24.75 18.9375 C24.02345215 18.55118408 23.2969043 18.16486816 22.54833984 17.7668457 C14.36537022 13.28620805 5.28280404 7.85233118 0 0 Z " fill="#D95CF1" transform="translate(175,394)"/>
<path d="M0 0 C0 0.66 0 1.32 0 2 C-3.0519427 3.52597135 -6.09990641 5.04701478 -9.1875 6.5 C-11.67801392 7.82827409 -13.09300838 8.9976588 -15 11 C-15.66 11 -16.32 11 -17 11 C-17 11.66 -17 12.32 -17 13 C-18.49609375 14.4375 -18.49609375 14.4375 -20.4375 16 C-23.15188238 18.14525044 -23.15188238 18.14525044 -25 21 C-25.66 21 -26.32 21 -27 21 C-27.33 22.98 -27.66 24.96 -28 27 C-28.66 27 -29.32 27 -30 27 C-30 27.99 -30 28.98 -30 30 C-30.99 30.33 -31.98 30.66 -33 31 C-29.68726613 19.64681156 -20.99259343 10.0265612 -10.83203125 4.17578125 C-2.68487762 0 -2.68487762 0 0 0 Z " fill="#D5CEC2" transform="translate(208,244)"/>
<path d="M0 0 C0.99 0 1.98 0 3 0 C3 0.99 3 1.98 3 3 C3.99 3.33 4.98 3.66 6 4 C5.67 4.33 5.34 4.66 5 5 C4.76298761 7.85877909 4.57780818 10.69883297 4.4375 13.5625 C4.39431641 14.36880859 4.35113281 15.17511719 4.30664062 16.00585938 C4.20024738 18.00368805 4.09959112 20.0018207 4 22 C2.68 22 1.36 22 0 22 C0 14.74 0 7.48 0 0 Z " fill="#010101" transform="translate(642,356)"/>
<path d="M0 0 C1.32 0 2.64 0 4 0 C4 7.26 4 14.52 4 22 C2.68 22 1.36 22 0 22 C0 14.74 0 7.48 0 0 Z " fill="#101010" transform="translate(607,356)"/>
<path d="M0 0 C1.32 0 2.64 0 4 0 C4 7.26 4 14.52 4 22 C2.68 22 1.36 22 0 22 C0 14.74 0 7.48 0 0 Z " fill="#101010" transform="translate(537,356)"/>
<path d="M0 0 C0.99 0 1.98 0 3 0 C3 0.99 3 1.98 3 3 C3.99 3.33 4.98 3.66 6 4 C5.67 4.33 5.34 4.66 5 5 C4.76298761 7.85877909 4.57780818 10.69883297 4.4375 13.5625 C4.39431641 14.36880859 4.35113281 15.17511719 4.30664062 16.00585938 C4.20024738 18.00368805 4.09959112 20.0018207 4 22 C2.68 22 1.36 22 0 22 C0 14.74 0 7.48 0 0 Z " fill="#010101" transform="translate(498,356)"/>
<path d="M0 0 C0.66 0.33 1.32 0.66 2 1 C-5.82604882 7.72104192 -13.76363481 14.25550502 -21.90625 20.58984375 C-22.9271875 21.38519531 -23.948125 22.18054688 -25 23 C-25.9178125 23.70253906 -26.835625 24.40507812 -27.78125 25.12890625 C-30.191056 26.98491259 -30.191056 26.98491259 -32 30 C-32.66 28.68 -33.32 27.36 -34 26 C-33.46745605 25.60321045 -32.93491211 25.2064209 -32.38623047 24.79760742 C-21.4819797 16.665763 -10.64103103 8.4740661 0 0 Z " fill="#9956DE" transform="translate(297,233)"/>
<path d="M0 0 C5.97551379 0.56974252 11.25610759 1.84928581 16.9375 3.75 C21.91715447 5.38540469 26.88469714 6.99841539 31.9453125 8.3671875 C32.72269775 8.58020508 33.50008301 8.79322266 34.30102539 9.01269531 C35.77860449 9.41275667 37.25953733 9.80068305 38.74389648 10.17480469 C43.67926463 11.52958812 43.67926463 11.52958812 45.46484375 14.1484375 C45.64144531 14.75945312 45.81804687 15.37046875 46 16 C45.01 16.66 44.02 17.32 43 18 C43 16.68 43 15.36 43 14 C42.01 14 41.02 14 40 14 C40 13.34 40 12.68 40 12 C39.113125 11.9175 38.22625 11.835 37.3125 11.75 C32.3788972 11.06253076 27.71988354 9.44983352 22.98828125 7.9375 C18.67653405 6.584795 14.46440149 5.71024569 10 5 C10 4.34 10 3.68 10 3 C9.01 3.33 8.02 3.66 7 4 C7 3.34 7 2.68 7 2 C4.69 1.67 2.38 1.34 0 1 C0 0.67 0 0.34 0 0 Z " fill="#32B8FC" transform="translate(289,189)"/>
<path d="M0 0 C0.66 0 1.32 0 2 0 C2 0.99 2 1.98 2 3 C2.66 3 3.32 3 4 3 C4 3.66 4 4.32 4 5 C4.66 5 5.32 5 6 5 C7.18711166 6.11927671 8.36578973 7.24933056 9.4921875 8.4296875 C10.59921926 9.58260659 11.73369257 10.70933763 12.8828125 11.8203125 C13.51960937 12.43648438 14.15640625 13.05265625 14.8125 13.6875 C15.41707031 14.26886719 16.02164063 14.85023438 16.64453125 15.44921875 C18 17 18 17 18 19 C18.66 19 19.32 19 20 19 C22.83291979 21.24272817 24.07430124 23.52862967 25 27 C24.86787732 29.73392322 24.45909323 32.29134991 24 35 C23.67 35 23.34 35 23 35 C23.00902344 34.443125 23.01804688 33.88625 23.02734375 33.3125 C22.74504222 26.04630412 20.07830781 22.93658759 15 18 C13.04432652 16.0835992 11.09223438 14.16376753 9.14501953 12.23876953 C7.76575568 10.88020273 6.3774656 9.53073431 4.97998047 8.19091797 C4.33818848 7.56459473 3.69639648 6.93827148 3.03515625 6.29296875 C2.4512915 5.7311792 1.86742676 5.16938965 1.26586914 4.59057617 C0 3 0 3 0 0 Z " fill="#BCEAEF" transform="translate(232,290)"/>
<path d="M0 0 C2.5 0.25 2.5 0.25 4.5 2.25 C4.8125 5.25 4.8125 5.25 4.5 8.25 C1.5 10.25 1.5 10.25 -0.5625 10 C-2.5 9.25 -2.5 9.25 -4.5 7.25 C-4.75 4.75 -4.75 4.75 -4.5 2.25 C-2.5 0.25 -2.5 0.25 0 0 Z " fill="#EBCCBF" transform="translate(204.5,267.75)"/>
<path d="M0 0 C2.5499869 1.27499345 2.65976415 2.18491352 3.625 4.8125 C3.88539063 5.49957031 4.14578125 6.18664062 4.4140625 6.89453125 C5 9 5 9 5 13 C2.03 13 -0.94 13 -4 13 C-3.40895235 8.15340923 -2.02055843 4.39251833 0 0 Z " fill="#EAEAEB" transform="translate(397,354)"/>
<path d="M0 0 C0 0.66 0 1.32 0 2 C-0.99 2.66 -1.98 3.32 -3 4 C-3.72382467 6.05925139 -3.72382467 6.05925139 -4 8 C-1.36 8.33 1.28 8.66 4 9 C3.67 9.99 3.34 10.98 3 12 C-4.42309859 12.48676056 -4.42309859 12.48676056 -7 10.3125 C-8.17817092 7.58797975 -8.45181189 5.93677726 -8 3 C-5.82311273 -0.32261741 -3.79605352 -0.30778812 0 0 Z " fill="#111111" transform="translate(577,366)"/>
<path d="M0 0 C2.29272021 5.99299651 -1.58172991 12.47873042 -4 18 C-5.49343883 21.1417627 -7.0684335 24.23379583 -8.6875 27.3125 C-9.0798584 28.05975342 -9.4722168 28.80700684 -9.87646484 29.5769043 C-12.73921608 34.86960804 -12.73921608 34.86960804 -15 36 C-13.74242474 30.34091132 -11.3551138 25.87237366 -8.51953125 20.8359375 C-6.2993268 16.69231685 -4.63158896 12.40166443 -3 8 C-2.69964844 7.20722656 -2.39929688 6.41445313 -2.08984375 5.59765625 C-1.38585457 3.73454071 -0.69174002 1.86769805 0 0 Z " fill="#8427E1" transform="translate(315,320)"/>
<path d="M0 0 C8.31886486 2.0125383 16.54299836 4.26086186 24.75 6.6875 C26.38582031 7.16799805 26.38582031 7.16799805 28.0546875 7.65820312 C30.7037639 8.43665979 33.35218053 9.21728093 36 10 C34.41430664 11.11083984 34.41430664 11.11083984 32 12 C28.93139648 11.40087891 28.93139648 11.40087891 25.37109375 10.2265625 C24.74018326 10.0239682 24.10927277 9.8213739 23.45924377 9.61264038 C21.44717725 8.96394006 19.44240719 8.29546674 17.4375 7.625 C15.42802712 6.96535249 13.4172886 6.3099272 11.40504456 5.65878296 C9.58049281 5.06646175 7.75974403 4.46246425 5.93920898 3.85791016 C3.0303374 2.85990355 3.0303374 2.85990355 0 3 C0 2.01 0 1.02 0 0 Z " fill="#42BEFD" transform="translate(256,178)"/>
<path d="M0 0 C1.42941924 2.85883848 0.31505121 4.73757432 -0.47949219 7.69140625 C-1.35932119 11.59368721 -1.46917901 15.51357964 -1.625 19.5 C-1.66367188 20.32242187 -1.70234375 21.14484375 -1.7421875 21.9921875 C-1.83531692 23.9944701 -1.91868985 25.99720262 -2 28 C-2.66 28 -3.32 28 -4 28 C-4.55839416 8.82846715 -4.55839416 8.82846715 -1 1 C-0.67 0.67 -0.34 0.34 0 0 Z " fill="#DED2D6" transform="translate(176,274)"/>
<path d="M0 0 C2.05078125 0.03255208 4.1015625 0.06510417 6.15234375 0.09765625 C5.83984375 2.47265625 5.83984375 2.47265625 5.15234375 5.09765625 C2.15234375 7.09765625 2.15234375 7.09765625 -1.03515625 6.72265625 C-1.96328125 6.51640625 -2.89140625 6.31015625 -3.84765625 6.09765625 C-2.77957394 0.14691194 -2.77957394 0.14691194 0 0 Z " fill="#F0F0F0" transform="translate(576.84765625,367.90234375)"/>
<path d="M0 0 C2.625 0.25 2.625 0.25 4.4375 1.5625 C5.625 3.25 5.625 3.25 5.625 6.25 C1.995 6.25 -1.635 6.25 -5.375 6.25 C-3.00137363 0.31593407 -3.00137363 0.31593407 0 0 Z " fill="#DFDFDF" transform="translate(777.375,358.75)"/>
<path d="M0 0 C2.625 0.25 2.625 0.25 4.4375 1.5625 C5.625 3.25 5.625 3.25 5.625 6.25 C1.995 6.25 -1.635 6.25 -5.375 6.25 C-3.00137363 0.31593407 -3.00137363 0.31593407 0 0 Z " fill="#DFDFDF" transform="translate(484.375,358.75)"/>
<path d="M0 0 C0.66 0 1.32 0 2 0 C2.06316406 0.83402344 2.12632812 1.66804688 2.19140625 2.52734375 C3.10424762 10.91587554 5.12712737 15.92299008 11 22 C10.01 22 9.02 22 8 22 C2.80495916 16.79174023 -0.07332361 10.98888586 -0.125 3.625 C-0.08375 2.42875 -0.0425 1.2325 0 0 Z " fill="#FD6F1B" transform="translate(187,277)"/>
<path d="M0 0 C-0.33 0.66 -0.66 1.32 -1 2 C-2.36003132 2.42610423 -3.73934834 2.79150418 -5.125 3.125 C-10.12852456 4.64919967 -12.47296704 7.26594966 -15.58984375 11.35546875 C-16.05519531 11.89816406 -16.52054688 12.44085938 -17 13 C-17.66 13 -18.32 13 -19 13 C-17.61613025 7.77204763 -14.24038711 5.05057385 -10 2 C-6.51191587 -0.01339219 -4.03440061 -0.18338185 0 0 Z " fill="#FB671B" transform="translate(209,258)"/>
<path d="M0 0 C-1.2065625 0.185625 -1.2065625 0.185625 -2.4375 0.375 C-3.283125 0.58125 -4.12875 0.7875 -5 1 C-5.33 1.66 -5.66 2.32 -6 3 C-8.21484375 3.78125 -8.21484375 3.78125 -10.9375 4.5 C-14.88351557 5.49475237 -14.88351557 5.49475237 -18 8 C-18.46006346 10.20250992 -18.46006346 10.20250992 -18.625 12.625 C-18.69976562 13.44226563 -18.77453125 14.25953125 -18.8515625 15.1015625 C-18.92503906 16.04128906 -18.92503906 16.04128906 -19 17 C-19.33 17 -19.66 17 -20 17 C-20.08121924 15.39667209 -20.13929134 13.79215974 -20.1875 12.1875 C-20.22230469 11.29417969 -20.25710937 10.40085938 -20.29296875 9.48046875 C-20 7 -20 7 -18.890625 5.34765625 C-16.26792442 3.47816927 -13.56482788 2.40867364 -10.5625 1.25 C-9.42941406 0.80140625 -8.29632813 0.3528125 -7.12890625 -0.109375 C-4.10898801 -0.9689772 -2.85271145 -1.14949552 0 0 Z " fill="#3DEACB" transform="translate(130,197)"/>
<path d="M0 0 C0.66 0.33 1.32 0.66 2 1 C0.10775143 2.60856218 -1.78856025 4.21186966 -3.6875 5.8125 C-4.21794922 6.26431641 -4.74839844 6.71613281 -5.29492188 7.18164062 C-8.38523306 9.77901874 -11.47498949 12.03148764 -15 14 C-15.66 13.34 -16.32 12.68 -17 12 C-14.72958215 10.37441681 -12.45868411 8.74951198 -10.1875 7.125 C-9.54490234 6.66480469 -8.90230469 6.20460938 -8.24023438 5.73046875 C-7.30727539 5.06337891 -7.30727539 5.06337891 -6.35546875 4.3828125 C-5.78465576 3.97434082 -5.21384277 3.56586914 -4.62573242 3.14501953 C-3.10133561 2.07137168 -1.55139015 1.0342601 0 0 Z " fill="#DA64E7" transform="translate(159,339)"/>
<path d="M0 0 C2.32286474 3.48429711 2.08480112 4.92954615 2 9 C2.33 9.99 2.66 10.98 3 12 C3.03920815 13.99961564 3.04443347 16.00049364 3 18 C2.34 18 1.68 18 1 18 C-0.6678216 12.26686324 -1.56334799 6.98721 -1 1 C-0.67 0.67 -0.34 0.34 0 0 Z " fill="#49F0C6" transform="translate(111,234)"/>
<path d="M0 0 C0.33 0.66 0.66 1.32 1 2 C-2.239447 8.15696139 -6.37653694 13.81611717 -11 19 C-11.33 18.01 -11.66 17.02 -12 16 C-11.34 16 -10.68 16 -10 16 C-9.75507813 15.29488281 -9.51015625 14.58976562 -9.2578125 13.86328125 C-7.82532472 10.60236963 -6.00478131 8.03865885 -3.875 5.1875 C-3.15054687 4.21167969 -2.42609375 3.23585938 -1.6796875 2.23046875 C-0.84824219 1.12638672 -0.84824219 1.12638672 0 0 Z " fill="#8D28E1" transform="translate(298,358)"/>
<path d="M0 0 C1.07569695 2.71788519 1.08532297 3.78320661 -0.00390625 6.55078125 C-3.2250686 12.25845488 -6.5243501 17.20466082 -11 22 C-11.33 21.01 -11.66 20.02 -12 19 C-11.01 18.67 -10.02 18.34 -9 18 C-7.87151132 16.20292338 -7.87151132 16.20292338 -7 14 C-6.64679688 13.22140625 -6.29359375 12.4428125 -5.9296875 11.640625 C-5.58164062 10.85171875 -5.23359375 10.0628125 -4.875 9.25 C-4.52179688 8.45078125 -4.16859375 7.6515625 -3.8046875 6.828125 C-3.53914063 6.22484375 -3.27359375 5.6215625 -3 5 C-2.34 5 -1.68 5 -1 5 C-0.67 3.35 -0.34 1.7 0 0 Z " fill="#BAE5ED" transform="translate(271,309)"/>
<path d="M0 0 C0.66 0.33 1.32 0.66 2 1 C1.29875 1.56847656 0.5975 2.13695312 -0.125 2.72265625 C-5.84588387 7.37864734 -11.49297263 12.09259166 -17 17 C-17.66 16.34 -18.32 15.68 -19 15 C-16.58414878 13.06148147 -14.16717498 11.12436757 -11.75 9.1875 C-11.06808594 8.64029297 -10.38617188 8.09308594 -9.68359375 7.52929688 C-6.48995837 4.97128795 -3.29844388 2.42282604 0 0 Z " fill="#945EDF" transform="translate(318,217)"/>
<path d="M0 0 C0.66 0.66 1.32 1.32 2 2 C-14.13924051 10.55379747 -14.13924051 10.55379747 -23 10 C-20.39143523 7.39143523 -18.47969708 7.36913065 -14.875 6.6875 C-8.91759355 5.4047732 -4.90908759 3.56149492 0 0 Z " fill="#BDD7EA" transform="translate(250,335)"/>
<path d="M0 0 C0 1.98 0 3.96 0 6 C-0.66 5.34 -1.32 4.68 -2 4 C-2.51949219 4.40992188 -3.03898437 4.81984375 -3.57421875 5.2421875 C-7.2423777 8.07636576 -10.51449706 10.59828033 -15 12 C-3.72727273 0 -3.72727273 0 0 0 Z " fill="#9365E2" transform="translate(335,205)"/>
<path d="M0 0 C1.32 0.33 2.64 0.66 4 1 C4 1.66 4 2.32 4 3 C4.95712891 3.16435547 4.95712891 3.16435547 5.93359375 3.33203125 C6.75988281 3.49058594 7.58617187 3.64914062 8.4375 3.8125 C9.67306641 4.03873047 9.67306641 4.03873047 10.93359375 4.26953125 C11.95646484 4.63111328 11.95646484 4.63111328 13 5 C13.33 5.99 13.66 6.98 14 8 C3.90882638 4.90009699 3.90882638 4.90009699 0 2 C0 1.34 0 0.68 0 0 Z " fill="#CA4CEE" transform="translate(203,412)"/>
<path d="M0 0 C0.66 0 1.32 0 2 0 C2 0.99 2 1.98 2 3 C2.66 3 3.32 3 4 3 C4 3.66 4 4.32 4 5 C4.66 5 5.32 5 6 5 C8.625 7.3125 8.625 7.3125 11 10 C11 10.99 11 11.98 11 13 C2.30169972 5.66997167 2.30169972 5.66997167 0 3 C0 2.01 0 1.02 0 0 Z " fill="#C8EAE2" transform="translate(232,290)"/>
<path d="M0 0 C5.77807024 -0.2358396 10.51324804 0.13216954 16 2 C16 2.66 16 3.32 16 4 C17.32 4.33 18.64 4.66 20 5 C19.34 5.66 18.68 6.32 18 7 C17.05640625 6.47599609 17.05640625 6.47599609 16.09375 5.94140625 C10.59021685 3.01558215 6.23116607 1.34617589 0 1 C0 0.67 0 0.34 0 0 Z " fill="#F0E4CD" transform="translate(207,256)"/>
<path d="M0 0 C0.33 0.66 0.66 1.32 1 2 C-6.26 1.67 -13.52 1.34 -21 1 C-21 0.67 -21 0.34 -21 0 C-13.82123184 -0.78954303 -7.13757599 -1.28710387 0 0 Z " fill="#14B6E1" transform="translate(236,240)"/>
<path d="M0 0 C2.97 0.33 5.94 0.66 9 1 C9.268125 2.11375 9.53625 3.2275 9.8125 4.375 C10.65809019 8.21840951 10.65809019 8.21840951 14 10 C12.68 10.33 11.36 10.66 10 11 C8.0549 8.08235 7.54723683 6.37462715 7 3 C5.02 3 3.04 3 1 3 C0.67 2.01 0.34 1.02 0 0 Z " fill="#C6DBEE" transform="translate(219,308)"/>
<path d="M0 0 C1.12894876 0.93274109 2.25300876 1.87140122 3.375 2.8125 C4.00148437 3.33457031 4.62796875 3.85664063 5.2734375 4.39453125 C7 6 7 6 9 9 C6.66471585 8.82701599 5.30822418 8.29774631 3.62109375 6.66796875 C0 2.42788462 0 2.42788462 0 0 Z " fill="#F8AF17" transform="translate(244,305)"/>
<path d="M0 0 C0.99 0 1.98 0 3 0 C3 2.64 3 5.28 3 8 C2.01 8.33 1.02 8.66 0 9 C0 6.03 0 3.06 0 0 Z " fill="#E3E9CD" transform="translate(234,277)"/>
<path d="M0 0 C1.65 0 3.3 0 5 0 C5 1.32 5 2.64 5 4 C3.35 4 1.7 4 0 4 C0 2.68 0 1.36 0 0 Z " fill="#313131" transform="translate(838,346)"/>
<path d="M0 0 C0.66 0 1.32 0 2 0 C1.67 1.65 1.34 3.3 1 5 C0.34 5 -0.32 5 -1 5 C-1 5.99 -1 6.98 -1 8 C-1.99 8.33 -2.98 8.66 -4 9 C-2.94124926 5.59687262 -1.99097846 2.98646769 0 0 Z " fill="#CAC9C3" transform="translate(179,266)"/>
<path d="M0 0 C1.32 0.33 2.64 0.66 4 1 C4.12375 1.804375 4.2475 2.60875 4.375 3.4375 C4.684375 4.7059375 4.684375 4.7059375 5 6 C5.66 6.33 6.32 6.66 7 7 C6.34 8.32 5.68 9.64 5 11 C4.80664062 10.45730469 4.61328125 9.91460937 4.4140625 9.35546875 C4.15367187 8.64003906 3.89328125 7.92460937 3.625 7.1875 C3.36976563 6.47980469 3.11453125 5.77210938 2.8515625 5.04296875 C1.9734231 2.75226641 1.9734231 2.75226641 0 0 Z " fill="#EDE3C4" transform="translate(228,265)"/>
<path d="M0 0 C0.33 1.32 0.66 2.64 1 4 C2.65 4 4.3 4 6 4 C6.33 4.99 6.66 5.98 7 7 C4.625 7.125 4.625 7.125 2 7 C0 5 0 5 -0.125 2.375 C-0.08375 1.59125 -0.0425 0.8075 0 0 Z " fill="#F0AC35" transform="translate(228,310)"/>
<path d="M0 0 C0.99 0.33 1.98 0.66 3 1 C1.38405168 3.04119788 -0.2856382 5.04072937 -2 7 C-2.66 7 -3.32 7 -4 7 C-2.92598892 4.08482708 -2.22189824 2.22189824 0 0 Z " fill="#FD5E0E" transform="translate(194,264)"/>
<path d="M0 0 C5.57142857 5.14285714 5.57142857 5.14285714 6 9 C1.3125 5.484375 1.3125 5.484375 0 4 C0 2.68 0 1.36 0 0 Z " fill="#F6D6DF" transform="translate(190,293)"/>
<path d="M0 0 C0.33 0 0.66 0 1 0 C1 1.65 1 3.3 1 5 C1.66 5 2.32 5 3 5 C2.67 7.64 2.34 10.28 2 13 C1.67 13 1.34 13 1 13 C0.67 8.71 0.34 4.42 0 0 Z " fill="#7CF1D4" transform="translate(111,247)"/>
<path d="M0 0 C0.66 0 1.32 0 2 0 C2.66 2.31 3.32 4.62 4 7 C3.34 7.66 2.68 8.32 2 9 C1.34 6.03 0.68 3.06 0 0 Z " fill="#59F3C7" transform="translate(124,310)"/>
</svg>
