<svg xmlns="http://www.w3.org/2000/svg" viewBox="0 0 256 146.2" width="256" height="146">
  <path fill="#8892BF" d="M128 73.1c0 40.4-57.3 73.1-128 73.1V0C70.7 0 128 32.7 128 73.1z"/>
  <path fill="#8892BF" d="M128 73.1c0 40.4 57.3 73.1 128 73.1V0C185.3 0 128 32.7 128 73.1z"/>
  <circle cx="128" cy="73.1" r="59.7" fill="#777BB4"/>
  <g fill="#fff">
    <path d="M103.2 92.5c-4.5 0-7.9-1.2-10.4-3.6s-3.7-5.9-3.7-10.4V56.8h7.9v21.7c0 2.2.5 3.8 1.4 5s2.3 1.7 4 1.7c1.7 0 3-.6 4-1.7s1.4-2.8 1.4-5V56.8h7.9v21.7c0 4.5-1.2 7.9-3.7 10.4s-5.9 3.6-10.2 3.6zm33.1-13.9c0 3.1-.9 5.6-2.6 7.5-1.7 1.9-4.1 2.8-7.1 2.8h-5.2V56.8h5.4c3.1 0 5.4.9 7.1 2.8s2.6 4.3 2.6 7.3v11.7zm-7.6 1.7c1.9 0 3.3-.6 4.3-1.7s1.5-2.8 1.5-5V66.4c0-2.2-.5-3.8-1.5-5-1-.9-2.4-1.4-4.3-1.4h-3.6v29.6h3.6zm35.2-1.7c0 3.1-.9 5.6-2.6 7.5-1.7 1.9-4.1 2.8-7.1 2.8h-5.2V56.8h5.4c3.1 0 5.4.9 7.1 2.8s2.6 4.3 2.6 7.3v11.7zm-7.6 1.7c1.9 0 3.3-.6 4.3-1.7s1.5-2.8 1.5-5V66.4c0-2.2-.5-3.8-1.5-5-1-.9-2.4-1.4-4.3-1.4h-3.6v29.6h3.6z"/>
  </g>
</svg>