<?xml version="1.0" encoding="UTF-8"?>
<svg version="1.1" xmlns="http://www.w3.org/2000/svg" width="1280" height="640">
<path d="M0 0 C422.4 0 844.8 0 1280 0 C1280 211.2 1280 422.4 1280 640 C857.6 640 435.2 640 0 640 C0 428.8 0 217.6 0 0 Z " fill="#131424" transform="translate(0,0)"/>
<path d="M0 0 C0.73199887 0.36514501 1.46399774 0.73029002 2.21817839 1.10650003 C4.6613346 2.32643591 7.10159433 3.55205394 9.54190063 4.77767944 C11.29628605 5.65515432 13.05084785 6.53227661 14.80557251 7.40907288 C19.56306177 9.78753069 24.31806893 12.17091232 29.07264662 14.55518389 C34.04400846 17.0471176 39.01763736 19.53451812 43.99102783 22.0223999 C53.40599924 26.73299323 62.81892397 31.44766134 72.23112071 36.16379583 C82.94773492 41.5332817 93.66662209 46.89822256 104.38570285 52.26278234 C126.43330436 63.29703461 148.4777409 74.33759132 170.52090454 85.38070679 C170.52090454 107.82070679 170.52090454 130.26070679 170.52090454 153.38070679 C152.20840454 162.75570679 152.20840454 162.75570679 146.56265259 165.64389038 C136.62497865 170.73306554 126.72399717 175.88692313 116.85025024 181.09896851 C111.00667556 184.1825955 105.14006479 187.22107899 99.27090454 190.25570679 C90.88842971 194.59568266 82.51187293 198.94649985 74.14590454 203.31820679 C65.68329716 207.73600798 57.21758368 212.14784626 48.7437439 216.54406738 C47.43674351 217.22255679 46.13013804 217.90180752 44.82394409 218.58184814 C43.0000474 219.53121156 41.17472589 220.47777869 39.34902954 221.42367554 C38.29618774 221.97047974 37.24334595 222.51728394 36.15859985 223.08065796 C33.52090454 224.38070679 33.52090454 224.38070679 30.52090454 225.38070679 C30.52090454 198.32070679 30.52090454 171.26070679 30.52090454 143.38070679 C51.33340454 134.19320679 51.33340454 134.19320679 57.83267212 131.32528687 C59.56861412 130.55865097 61.3045366 129.79197086 63.04043579 129.02523804 C63.91260742 128.64057373 64.78477905 128.25590942 65.68338013 127.85958862 C71.98239174 125.07642628 78.25657036 122.24102648 84.52090454 119.38070679 C83.89294983 119.06946869 83.26499512 118.75823059 82.61801147 118.43756104 C72.78221596 113.56037014 62.96394183 108.6618715 53.27090454 103.50570679 C44.64668772 98.92077362 35.91618606 94.56262245 27.1703186 90.21517944 C20.41140083 86.84770091 13.69446743 83.41424432 7.02090454 79.88070679 C6.25189819 79.4748938 5.48289185 79.06908081 4.69058228 78.65097046 C1.54354968 76.98842008 -1.59694403 75.31674806 -4.72518921 73.61898804 C-5.61335327 73.14848022 -6.50151733 72.67797241 -7.41659546 72.19320679 C-8.1268689 71.8077771 -8.83714233 71.42234741 -9.56893921 71.02523804 C-12.6928753 69.97114917 -14.90733732 71.10602983 -17.80307007 72.49716187 C-18.65393188 72.960177 -19.5047937 73.42319214 -20.38143921 73.90023804 C-21.34372437 74.42198608 -22.30600952 74.94373413 -23.29745483 75.48129272 C-24.32677124 76.04622437 -25.35608765 76.61115601 -26.41659546 77.19320679 C-27.48329468 77.77489624 -28.5499939 78.35658569 -29.64901733 78.9559021 C-39.1870164 84.17720746 -48.62833781 89.56102494 -58.05136108 94.98617554 C-61.93494946 97.21697368 -65.82955946 99.42792897 -69.72909546 101.63070679 C-70.40327515 102.01388062 -71.07745483 102.39705444 -71.77206421 102.7918396 C-76.36263283 105.38070679 -76.36263283 105.38070679 -77.47909546 105.38070679 C-77.47909546 79.31070679 -77.47909546 53.24070679 -77.47909546 26.38070679 C-61.82472046 18.39883179 -61.82472046 18.39883179 -45.85409546 10.25570679 C-42.56746948 8.56687378 -39.28084351 6.87804077 -35.8946228 5.13803101 C-31.85922241 3.0977478 -31.85922241 3.0977478 -29.96582031 2.14685059 C-28.64900675 1.48077992 -27.33617244 0.80680583 -26.02661133 0.12658691 C-24.03846246 -0.90415317 -22.0390065 -1.90886609 -20.0352478 -2.90884399 C-18.91161835 -3.48176178 -17.78798889 -4.05467957 -16.63031006 -4.6449585 C-10.68454392 -6.48335007 -5.2982226 -2.67197104 0 0 Z " fill="#34B2DF" transform="translate(192.47909545898438,160.61929321289063)"/>
<path d="M0 0 C0 54.12 0 108.24 0 164 C-4.05319428 162.37872229 -6.99522748 160.84301564 -10.578125 158.47265625 C-11.64828857 157.76826416 -12.71845215 157.06387207 -13.82104492 156.33813477 C-14.96406267 155.57963915 -16.10704701 154.8210932 -17.25 154.0625 C-18.42716449 153.28588297 -19.60465716 152.50976318 -20.7824707 151.73413086 C-22.54656129 150.57231478 -24.31043835 149.41019022 -26.07319641 148.24635315 C-30.75798145 145.15363618 -35.46675645 142.0999169 -40.1875 139.0625 C-45.65061464 135.53818998 -51.08732805 131.97634218 -56.5 128.375 C-57.14219482 127.94840088 -57.78438965 127.52180176 -58.44604492 127.08227539 C-62.87633771 124.12366229 -62.87633771 124.12366229 -64 123 C-64.14302816 120.32421475 -64.22107302 117.67335345 -64.25634766 114.99536133 C-64.27095032 114.15629242 -64.28555298 113.31722351 -64.30059814 112.45272827 C-64.42670164 104.70195862 -64.49535723 96.95014864 -64.54844093 89.19856739 C-64.58421383 83.9876567 -64.63753057 78.77828841 -64.73388672 73.56811523 C-64.82669208 68.53527725 -64.87535929 63.50380471 -64.89283371 58.47015953 C-64.90693376 56.55188066 -64.93658712 54.63365023 -64.98213577 52.71586037 C-65.32119587 37.70512776 -65.32119587 37.70512776 -62.10469055 33.55392456 C-59.77723055 31.96743542 -57.64324814 30.95016347 -55 30 C-54.12206787 29.48501953 -53.24413574 28.97003906 -52.33959961 28.43945312 C-51.61780518 28.05724609 -50.89601074 27.67503906 -50.15234375 27.28125 C-48.89079468 26.60545898 -48.89079468 26.60545898 -47.60375977 25.91601562 C-46.72389404 25.44873047 -45.84402832 24.98144531 -44.9375 24.5 C-34.5396691 18.90770875 -24.33624918 13.0156609 -14.16015625 7.03125 C-13.27086426 6.50917969 -12.38157227 5.98710937 -11.46533203 5.44921875 C-9.91710313 4.53910915 -8.37088674 3.62555812 -6.82763672 2.70703125 C-2.22212171 0 -2.22212171 0 0 0 Z " fill="#188ACA" transform="translate(179,320)"/>
<path d="M0 0 C55.90829694 0 55.90829694 0 64.8125 8.7890625 C72.85080509 17.46373341 73.74589843 24.97421653 73.40234375 36.37890625 C72.95366366 43.32436223 70.87691567 47.98217418 66.0859375 53.0078125 C55.28873533 62.39156275 42.7491678 62.54510659 29.25 62.25 C21.20625 62.12625 21.20625 62.12625 13 62 C13 75.2 13 88.4 13 102 C8.71 102 4.42 102 0 102 C0 68.34 0 34.68 0 0 Z " fill="#FCFCFC" transform="translate(447,225)"/>
<path d="M0 0 C1.96875 1.12109375 1.96875 1.12109375 3.8125 2.4375 C4.5034375 2.92347656 5.194375 3.40945312 5.90625 3.91015625 C12.81168122 9.35977827 17.65054354 16.90759904 19.8125 25.4375 C20.14580711 29.16957456 20.19351832 32.87949824 20.1875 36.625 C20.18588867 37.65423584 20.18427734 38.68347168 20.18261719 39.74389648 C20.06609622 46.94135079 19.38051386 53.05719744 15.8125 59.4375 C15.235 60.51 14.6575 61.5825 14.0625 62.6875 C8.54365105 69.43275983 1.78445254 75.72604203 -7.21630859 76.64453125 C-9.56383819 76.78628417 -11.8983698 76.85035932 -14.25 76.875 C-15.00587402 76.88523193 -15.76174805 76.89546387 -16.54052734 76.90600586 C-25.4506753 76.76742079 -32.7360978 73.58169257 -39.1875 67.4375 C-48.63101758 55.92621446 -50.2222858 43.01319709 -49.1875 28.4375 C-47.33227045 19.02723926 -43.11007573 10.21032727 -35.39453125 4.296875 C-25.38246778 -2.21030496 -11.52677055 -4.75707991 0 0 Z " fill="#F9F9FA" transform="translate(736.1875,251.5625)"/>
<path d="M0 0 C6.04344999 3.84336258 9.26333922 10.29293159 10.89706421 17.0680542 C11.75257274 22.20487607 11.5530986 27.40100326 11.5078125 32.59375 C11.5049826 33.82540894 11.50215271 35.05706787 11.49923706 36.3260498 C11.48809202 40.23830102 11.46299749 44.15031862 11.4375 48.0625 C11.42632966 50.72395498 11.41833833 53.38540777 11.41015625 56.046875 C11.3881712 62.55217258 11.35368019 69.05729675 11.3125 75.5625 C7.0225 75.5625 2.7325 75.5625 -1.6875 75.5625 C-1.70151855 73.12617188 -1.70151855 73.12617188 -1.71582031 70.640625 C-1.75579637 64.5946139 -1.82157784 58.54910754 -1.89501953 52.50341797 C-1.92318474 49.89052837 -1.94442129 47.27755427 -1.95849609 44.66455078 C-1.97998613 40.90092854 -2.02667143 37.13831752 -2.078125 33.375 C-2.07935364 32.21323242 -2.08058228 31.05146484 -2.08184814 29.85449219 C-2.20443172 23.0128509 -2.85902011 18.31620664 -6.6875 12.5625 C-11.89862505 9.39341623 -17.79142128 9.98727281 -23.6875 10.5625 C-28.12633856 11.90945791 -31.35597769 14.6081739 -33.86022949 18.53179932 C-35.733913 23.13112969 -35.29174872 28.28934454 -35.296875 33.1796875 C-35.31341125 34.39198029 -35.32994751 35.60427307 -35.34698486 36.853302 C-35.39546186 40.7147529 -35.4168364 44.57580993 -35.4375 48.4375 C-35.46565973 51.05991564 -35.49558715 53.68231295 -35.52734375 56.3046875 C-35.60122159 62.72392592 -35.65079875 69.14294572 -35.6875 75.5625 C-39.9775 75.5625 -44.2675 75.5625 -48.6875 75.5625 C-48.6875 50.4825 -48.6875 25.4025 -48.6875 -0.4375 C-44.7275 -0.4375 -40.7675 -0.4375 -36.6875 -0.4375 C-36.6875 2.5325 -36.6875 5.5025 -36.6875 8.5625 C-36.0275 8.5625 -35.3675 8.5625 -34.6875 8.5625 C-34.43871094 7.95792969 -34.18992187 7.35335938 -33.93359375 6.73046875 C-32.48952545 4.21806152 -31.22614187 3.33670758 -28.75 1.875 C-28.06035156 1.45863281 -27.37070312 1.04226562 -26.66015625 0.61328125 C-19.81447191 -3.03323179 -7.22484388 -3.1044251 0 0 Z " fill="#F9F9FA" transform="translate(821.6875,251.4375)"/>
<path d="M0 0 C4.75525763 2.88879556 8.71899954 5.9660384 10.98046875 11.203125 C11.49851947 14.21492967 11.75245182 17.14769808 11.98046875 20.203125 C7.69046875 20.203125 3.40046875 20.203125 -1.01953125 20.203125 C-1.39078125 19.130625 -1.76203125 18.058125 -2.14453125 16.953125 C-3.85157646 12.93750435 -6.16957892 11.28851584 -10.01953125 9.203125 C-15.26670461 7.45406721 -20.211087 7.53333083 -25.39453125 9.453125 C-28.06768712 11.23522891 -29.55366871 12.35283672 -31.01953125 15.203125 C-31.68266057 19.09900973 -31.41883928 20.6307835 -29.14453125 23.890625 C-25.77625479 26.38314958 -23.23426825 27.26838712 -19.2421875 28.328125 C-15.03972925 29.46915609 -10.90887936 30.79071921 -6.76953125 32.140625 C-6.0010083 32.38159912 -5.23248535 32.62257324 -4.44067383 32.87084961 C2.69336436 35.20085296 8.23758049 38.21609104 12.0625 44.86328125 C14.07031983 49.98108583 13.84669905 55.24265555 12.31640625 60.47265625 C9.73216301 66.34900066 5.62262422 70.38889342 -0.09765625 73.23828125 C-9.42641864 76.64930832 -22.83515242 77.09181736 -32.1015625 73.23828125 C-38.72709267 69.66238411 -44.10450314 65.33331114 -47.01953125 58.203125 C-47.38381255 55.70046514 -47.28421709 53.74410911 -47.01953125 51.203125 C-42.72953125 51.203125 -38.43953125 51.203125 -34.01953125 51.203125 C-33.64828125 52.440625 -33.27703125 53.678125 -32.89453125 54.953125 C-31.27487217 59.3107792 -29.18626612 61.03295059 -25.01953125 63.203125 C-18.94141537 65.22916363 -12.27458815 65.18219992 -6.45703125 62.390625 C-3.61772376 60.84996127 -2.90989903 60.03867667 -1.01953125 57.203125 C-0.49050071 53.1220323 -0.50192525 50.99801992 -2.76953125 47.515625 C-8.65979127 43.32447845 -15.60543007 41.61833484 -22.64453125 40.265625 C-30.12741484 38.71462731 -37.18712203 35.20702736 -42.01953125 29.203125 C-44.96213924 24.63700915 -45.85892243 20.55180367 -45.01953125 15.203125 C-43.27814148 8.46975121 -39.93294716 4.72322205 -34.43359375 0.61328125 C-24.84148149 -4.98987818 -9.90430201 -4.84134556 0 0 Z " fill="#FAFAFA" transform="translate(615.01953125,252.796875)"/>
<path d="M0 0 C6.43460917 3.64029682 10.71189618 9.35825296 12.8125 16.4375 C13.24732081 19.69812798 13.28979159 22.90127423 13.25 26.1875 C13.24097656 27.07203857 13.23195313 27.95657715 13.22265625 28.86791992 C13.01696379 36.64780853 12.26170293 43.56421474 6.90625 49.578125 C1.5725061 54.47402425 -2.60080284 56.87066988 -9.87890625 56.69140625 C-15.4748843 56.07594335 -20.30774466 53.41935416 -24.1875 49.4375 C-30.21020263 39.24654272 -32.08578043 28.82742721 -29.4375 17.0625 C-26.61985696 8.89133517 -23.8132674 3.96285273 -16.1875 -0.5625 C-10.7121432 -2.38761893 -5.31037937 -2.38967072 0 0 Z " fill="#161727" transform="translate(730.1875,261.5625)"/>
<path d="M0 0 C7.6725 -0.12375 7.6725 -0.12375 15.5 -0.25 C17.09779297 -0.28641602 18.69558594 -0.32283203 20.34179688 -0.36035156 C29.00948513 -0.42803376 35.2616097 -0.18093262 42.05859375 5.81640625 C42.74115234 6.68072266 42.74115234 6.68072266 43.4375 7.5625 C43.91058594 8.14128906 44.38367188 8.72007812 44.87109375 9.31640625 C47.99895656 13.98114283 47.39936302 19.6274371 47 25 C45.35200624 30.91338938 42.23841833 34.86664978 37 38 C32.10769979 39.64153749 27.90313621 40.2395119 22.75390625 40.1953125 C21.5532251 40.19031738 20.35254395 40.18532227 19.11547852 40.18017578 C17.61299561 40.16196777 16.1105127 40.14375977 14.5625 40.125 C9.756875 40.08375 4.95125 40.0425 0 40 C0 26.8 0 13.6 0 0 Z " fill="#161727" transform="translate(460,236)"/>
<path d="M0 0 C3.96 0 7.92 0 12 0 C12 5.94 12 11.88 12 18 C16.95 18 21.9 18 27 18 C27 21.3 27 24.6 27 28 C22.38 28 17.76 28 13 28 C13.09341945 35.35089585 13.19948807 42.70145782 13.31738281 50.05200195 C13.35571119 52.55357841 13.39055718 55.05521072 13.421875 57.55688477 C13.46744146 61.14880357 13.52545024 64.74033662 13.5859375 68.33203125 C13.59748871 69.45398392 13.60903992 70.57593658 13.62094116 71.73188782 C13.64081085 72.77274033 13.66068054 73.81359283 13.68115234 74.88598633 C13.69447601 75.80309891 13.70779968 76.72021149 13.7215271 77.66511536 C13.85377574 80.27061139 13.85377574 80.27061139 16 83 C18.6556728 83.58348752 18.6556728 83.58348752 21.625 83.6875 C22.62789062 83.75324219 23.63078125 83.81898438 24.6640625 83.88671875 C25.43492187 83.92410156 26.20578125 83.96148437 27 84 C27.02688151 85.64574566 27.04634123 87.29161413 27.0625 88.9375 C27.07410156 89.85402344 27.08570313 90.77054687 27.09765625 91.71484375 C27 94 27 94 26 95 C23.58859279 95.15461551 21.22549429 95.23170241 18.8125 95.25 C17.49894531 95.27578125 16.18539062 95.3015625 14.83203125 95.328125 C10.08184541 94.92138126 6.93710532 94.12799641 3.64761353 90.51434326 C-0.80168577 84.24109262 -0.65165915 78.46226484 -0.48828125 70.96875 C-0.47766914 69.1212616 -0.47766914 69.1212616 -0.46684265 67.2364502 C-0.43897627 63.32366813 -0.37624641 59.41234561 -0.3125 55.5 C-0.28457433 52.83856261 -0.26459619 50.17713893 -0.24414062 47.515625 C-0.18917405 41.00985897 -0.10295006 34.50517649 0 28 C-4.62 28 -9.24 28 -14 28 C-14 24.7 -14 21.4 -14 18 C-9.38 18 -4.76 18 0 18 C0 12.06 0 6.12 0 0 Z " fill="#FAFAFB" transform="translate(650,233)"/>
<path d="M0 0 C4.29 0 8.58 0 13 0 C13 25.08 13 50.16 13 76 C8.71 76 4.42 76 0 76 C0 50.92 0 25.84 0 0 Z " fill="#FCFCFC" transform="translate(537,251)"/>
<path d="M0 0 C1.07765625 0.03609375 2.1553125 0.0721875 3.265625 0.109375 C4.49539063 0.17898438 4.49539063 0.17898438 5.75 0.25 C5.86660824 3.64554235 5.93738372 7.04056679 6 10.4375 C6.05027344 11.87706055 6.05027344 11.87706055 6.1015625 13.34570312 C6.1622349 17.72928394 6.16002413 20.50138129 4.0234375 24.40234375 C1.43544776 26.50564125 0.40600491 26.83349195 -2.875 26.625 C-4.03902344 26.57472656 -4.03902344 26.57472656 -5.2265625 26.5234375 C-7.25 26.25 -7.25 26.25 -9.25 25.25 C-9.25 24.26 -9.25 23.27 -9.25 22.25 C-6.28 22.58 -3.31 22.91 -0.25 23.25 C0.41 21.6 1.07 19.95 1.75 18.25 C1.09 18.58 0.43 18.91 -0.25 19.25 C-3.64011269 19.61849051 -5.61640438 19.60014495 -8.625 17.9375 C-11.18045622 13.71116855 -11.21036866 9.05184332 -10.25 4.25 C-7.30542723 0.07151102 -4.95819207 -0.21557357 0 0 Z " fill="#E5E5E7" transform="translate(1055.25,404.75)"/>
<path d="M0 0 C0.08720919 3.58317958 0.14046112 7.16608567 0.1875 10.75 C0.21263672 11.76578125 0.23777344 12.7815625 0.26367188 13.828125 C0.27333984 14.8078125 0.28300781 15.7875 0.29296875 16.796875 C0.3086792 17.69760742 0.32438965 18.59833984 0.34057617 19.52636719 C-0.06776192 22.49216044 -0.95482913 23.84455485 -3 26 C-5.15625 26.4609375 -5.15625 26.4609375 -7.5 26.375 C-8.2734375 26.36210937 -9.046875 26.34921875 -9.84375 26.3359375 C-12 26 -12 26 -15 24 C-15 23.34 -15 22.68 -15 22 C-12.03 22.33 -9.06 22.66 -6 23 C-5.01 21.35 -4.02 19.7 -3 18 C-3.66 18.33 -4.32 18.66 -5 19 C-8.375 19.4375 -8.375 19.4375 -12 19 C-15.03133877 15.8909346 -16.24877221 13.20837244 -16.5 8.9375 C-16 5 -16 5 -14.75 2 C-10.2741428 -1.25516888 -5.35130106 -0.37862979 0 0 Z " fill="#F0F0F1" transform="translate(496,405)"/>
<path d="M0 0 C12 0 12 0 17 3 C19 6 19 6 18.9375 9.5 C18 13 18 13 16 14.9375 C11.83766371 16.41166077 8.40607719 16.19728704 4 16 C4 19.3 4 22.6 4 26 C2.68 26 1.36 26 0 26 C0 17.42 0 8.84 0 0 Z " fill="#E1E1E3" transform="translate(530,398)"/>
<path d="M0 0 C0.99 0 1.98 0 3 0 C3 8.91 3 17.82 3 27 C-0.96 27 -4.92 27 -9 27 C-12.57584313 23.42415687 -12.91115431 22.10168652 -13.3125 17.125 C-13.25530951 14.0252753 -12.93076313 12.8670652 -11.4375 10 C-9 8 -9 8 -5.3125 7.625 C-2 8 -2 8 -1 9 C-0.67 6.03 -0.34 3.06 0 0 Z " fill="#FAFAFB" transform="translate(803,397)"/>
<path d="M0 0 C3.57349462 0.86329969 4.97266288 2.47657244 6.97265625 5.4765625 C7.83467089 9.58770923 7.37097335 12.62561233 5.59765625 16.4140625 C3.97265625 18.4765625 3.97265625 18.4765625 1.97265625 19.4765625 C-5.13927715 20.16481412 -5.13927715 20.16481412 -8.52734375 17.5390625 C-10.56028068 13.38848293 -10.81505856 10.01412803 -10.02734375 5.4765625 C-7.71986375 0.7654575 -5.29651641 -0.37620117 0 0 Z " fill="#EFEFF0" transform="translate(965.02734375,404.5234375)"/>
<path d="M0 0 C2.88258588 0.65701649 4.18570607 2.0989665 5.90234375 4.43359375 C7.43449263 7.49789151 7.13172923 10.05015795 6.90234375 13.43359375 C4.70234375 18.03359375 4.70234375 18.03359375 1.90234375 19.43359375 C-5.20958965 20.12184537 -5.20958965 20.12184537 -8.59765625 17.49609375 C-10.63059318 13.34551418 -10.88537106 9.97115928 -10.09765625 5.43359375 C-7.70044242 0.53928218 -5.16574529 -0.31744803 0 0 Z " fill="#EEEEEF" transform="translate(780.09765625,404.56640625)"/>
<path d="M0 0 C2.88258588 0.65701649 4.18570607 2.0989665 5.90234375 4.43359375 C7.43449263 7.49789151 7.13172923 10.05015795 6.90234375 13.43359375 C4.70234375 18.03359375 4.70234375 18.03359375 1.90234375 19.43359375 C-5.20958965 20.12184537 -5.20958965 20.12184537 -8.59765625 17.49609375 C-10.63059318 13.34551418 -10.88537106 9.97115928 -10.09765625 5.43359375 C-7.70044242 0.53928218 -5.16574529 -0.31744803 0 0 Z " fill="#E4E4E6" transform="translate(606.09765625,404.56640625)"/>
<path d="M0 0 C1.32 0.33 2.64 0.66 4 1 C4.33 0.67 4.66 0.34 5 0 C12.52238806 -0.23880597 12.52238806 -0.23880597 15 1 C15.66 0.67 16.32 0.34 17 0 C23.22804809 -0.45294895 23.22804809 -0.45294895 25.7109375 1.00390625 C27.7602846 4.17728919 27.3116371 7.54296211 27.1875 11.1875 C27.16719727 12.31188477 27.16719727 12.31188477 27.14648438 13.45898438 C27.11118539 15.30629767 27.05737917 17.15324066 27 19 C25.68 19 24.36 19 23 19 C23 13.72 23 8.44 23 3 C20.69 3.66 18.38 4.32 16 5 C15.67 9.62 15.34 14.24 15 19 C14.01 19 13.02 19 12 19 C11.67 14.05 11.34 9.1 11 4 C8.69 4 6.38 4 4 4 C3.67 8.95 3.34 13.9 3 19 C2.01 19 1.02 19 0 19 C0 12.73 0 6.46 0 0 Z " fill="#EAEAEB" transform="translate(629,405)"/>
<path d="M0 0 C1.32 0 2.64 0 4 0 C4 3.63 4 7.26 4 11 C7.96 11 11.92 11 16 11 C16 7.37 16 3.74 16 0 C17.32 0 18.64 0 20 0 C20 8.58 20 17.16 20 26 C18.68 26 17.36 26 16 26 C16 22.04 16 18.08 16 14 C11.71 14 7.42 14 3 14 C3 17.96 3 21.92 3 26 C2.01 26 1.02 26 0 26 C0 17.42 0 8.84 0 0 Z " fill="#E0E0E2" transform="translate(447,398)"/>
<path d="M0 0 C5.61 0 11.22 0 17 0 C17 0.99 17 1.98 17 3 C12.71 3 8.42 3 4 3 C4 5.64 4 8.28 4 11 C7.63 11 11.26 11 15 11 C15 11.99 15 12.98 15 14 C11.37 14 7.74 14 4 14 C4 16.97 4 19.94 4 23 C8.29 23 12.58 23 17 23 C17 23.99 17 24.98 17 26 C11.39 26 5.78 26 0 26 C0 17.42 0 8.84 0 0 Z " fill="#DCDCDF" transform="translate(1005,398)"/>
<path d="M0 0 C1.7109375 1.00390625 1.7109375 1.00390625 3 3 C3.37674518 5.79251583 3.60191941 8.38779201 3.6875 11.1875 C3.73874023 12.31188477 3.73874023 12.31188477 3.79101562 13.45898438 C3.87334294 15.30546838 3.93835281 17.15270994 4 19 C1.89646505 19.0810206 -0.20795952 19.13919907 -2.3125 19.1875 C-3.48425781 19.22230469 -4.65601563 19.25710938 -5.86328125 19.29296875 C-9 19 -9 19 -10.89453125 17.64453125 C-12.47793508 15.28900824 -12.41637778 13.77585184 -12 11 C-10.35703667 8.84589252 -9.40391002 8.09138551 -6.73828125 7.48828125 C-5.93777344 7.43027344 -5.13726563 7.37226563 -4.3125 7.3125 C-3.50425781 7.24675781 -2.69601562 7.18101562 -1.86328125 7.11328125 C-0.94095703 7.05720703 -0.94095703 7.05720703 0 7 C-0.66 5.68 -1.32 4.36 -2 3 C-5.02419525 3.58803797 -8.01758453 4.22678118 -11 5 C-10.625 3.0625 -10.625 3.0625 -10 1 C-6.88450128 -0.55774936 -3.3955612 -0.56480622 0 0 Z " fill="#E6E7E8" transform="translate(672,405)"/>
<path d="M0 0 C2.4375 1.625 2.4375 1.625 4 4 C4 5.98 4 7.96 4 10 C-0.29 10 -4.58 10 -9 10 C-7.02 12.97 -7.02 12.97 -5 16 C-4.071875 15.835 -3.14375 15.67 -2.1875 15.5 C1 15 1 15 4 15 C3 18 3 18 1 19 C-5.97142857 19.68571429 -5.97142857 19.68571429 -10 17 C-12.74561602 12.88157597 -12.54367526 10.89307732 -12 6 C-9.96227273 0.04356644 -5.85711821 -0.61653876 0 0 Z " fill="#ECECED" transform="translate(1105,405)"/>
<path d="M0 0 C2.4375 1.625 2.4375 1.625 4 4 C4 5.98 4 7.96 4 10 C-0.29 10 -4.58 10 -9 10 C-6.69486924 15.02576204 -6.69486924 15.02576204 -3.625 15.875 C-0.89061985 16.00520858 1.35566698 15.67997135 4 15 C3 18 3 18 1 19 C-5.99869622 19.68839635 -5.99869622 19.68839635 -10 16.9375 C-12.52217356 13.23305758 -12.61871554 11.40834824 -12 7 C-9.26420106 0.28485715 -7.22749463 -0.62305988 0 0 Z " fill="#ECECEE" transform="translate(730,405)"/>
<path d="M0 0 C5.28 0 10.56 0 16 0 C16 0.99 16 1.98 16 3 C11.71 3 7.42 3 3 3 C3 5.64 3 8.28 3 11 C6.63 11 10.26 11 14 11 C14 11.99 14 12.98 14 14 C10.37 14 6.74 14 3 14 C3 16.97 3 19.94 3 23 C7.29 23 11.58 23 16 23 C16 23.99 16 24.98 16 26 C10.72 26 5.44 26 0 26 C0 17.42 0 8.84 0 0 Z " fill="#EEEEEF" transform="translate(840,398)"/>
<path d="M0 0 C2.875 1.5625 2.875 1.5625 5 4 C5.63734462 7.96569988 5.61999672 10.03280512 3.4375 13.4375 C0.05782196 15.60396028 -2.05983987 15.56288002 -6 15 C-8.4375 13.4375 -8.4375 13.4375 -10 11 C-10.56783945 7.02512383 -10.62340519 4.93510779 -8.375 1.5625 C-5.26456309 -0.48384007 -3.66322334 -0.59807728 0 0 Z " fill="#F6F6F7" transform="translate(546,223)"/>
<path d="M0 0 C2 1.0625 2 1.0625 3 3 C3.1875 6.6875 3.1875 6.6875 3 10 C-0.96 10 -4.92 10 -9 10 C-8.34 11.65 -7.68 13.3 -7 15 C-4.04049744 16.16822469 -2.64403708 16.26109611 0.3125 15.0625 C0.869375 14.711875 1.42625 14.36125 2 14 C2 15.32 2 16.64 2 18 C-1.21626531 19.60813266 -4.51223287 19.45492615 -8 19 C-10.5 17.6875 -10.5 17.6875 -12 15 C-12.71283186 10.10670629 -12.94774968 5.69805152 -10.5 1.3125 C-6.72351506 -0.67015459 -4.2519518 -0.47243909 0 0 Z " fill="#F3F3F4" transform="translate(889,405)"/>
<path d="M0 0 C2 1.0625 2 1.0625 3 3 C3.1875 6.6875 3.1875 6.6875 3 10 C-0.96 10 -4.92 10 -9 10 C-8.34 11.65 -7.68 13.3 -7 15 C-4.04049744 16.16822469 -2.64403708 16.26109611 0.3125 15.0625 C0.869375 14.711875 1.42625 14.36125 2 14 C2 15.32 2 16.64 2 18 C-1.21626531 19.60813266 -4.51223287 19.45492615 -8 19 C-10.5 17.6875 -10.5 17.6875 -12 15 C-12.71283186 10.10670629 -12.94774968 5.69805152 -10.5 1.3125 C-6.72351506 -0.67015459 -4.2519518 -0.47243909 0 0 Z " fill="#F3F3F4" transform="translate(823,405)"/>
<path d="M0 0 C2 1.0625 2 1.0625 3 3 C3.1875 6.6875 3.1875 6.6875 3 10 C-0.96 10 -4.92 10 -9 10 C-8.34 11.65 -7.68 13.3 -7 15 C-4.04049744 16.16822469 -2.64403708 16.26109611 0.3125 15.0625 C0.869375 14.711875 1.42625 14.36125 2 14 C2 15.32 2 16.64 2 18 C-1.21626531 19.60813266 -4.51223287 19.45492615 -8 19 C-10.5 17.6875 -10.5 17.6875 -12 15 C-12.71283186 10.10670629 -12.94774968 5.69805152 -10.5 1.3125 C-6.72351506 -0.67015459 -4.2519518 -0.47243909 0 0 Z " fill="#F3F3F4" transform="translate(564,405)"/>
<path d="M0 0 C3.98404323 0.26560288 5.76976365 0.62037969 8.75 3.25 C9.5625 6.4375 9.5625 6.4375 9.75 9.25 C8.76 9.25 7.77 9.25 6.75 9.25 C6.316875 8.425 5.88375 7.6 5.4375 6.75 C4.880625 5.925 4.32375 5.1 3.75 4.25 C0.75 3.5 0.75 3.5 -2.25 4.25 C-4.31376627 6.38143073 -5.17350357 7.73673361 -5.61328125 10.6875 C-5.59652344 11.533125 -5.57976563 12.37875 -5.5625 13.25 C-5.55863281 14.095625 -5.55476562 14.94125 -5.55078125 15.8125 C-5.22856816 18.42368138 -4.70757897 20.06363154 -3.25 22.25 C-0.33995097 23.33223366 -0.33995097 23.33223366 2.75 23.25 C4.83130637 21.74284711 5.60613218 20.53773563 6.75 18.25 C7.74 18.25 8.73 18.25 9.75 18.25 C9.44209738 21.09809926 9.09521809 22.83286148 7.25 25.0625 C3.45559321 26.86484322 -0.12824462 26.94706157 -4.25 26.25 C-7.28215675 24.05168636 -8.06654398 22.80036806 -9.25 19.25 C-10.28076722 8.08826356 -10.28076722 8.08826356 -8.16796875 4.3203125 C-6.8125 3 -6.8125 3 -4.25 1.25 C-3.25 0.25 -3.25 0.25 0 0 Z " fill="#F2F2F3" transform="translate(756.25,397.75)"/>
<path d="M0 0 C0.99 0 1.98 0 3 0 C3.33 2.97 3.66 5.94 4 9 C4.33 8.67 4.66 8.34 5 8 C10.8410596 7.62913907 10.8410596 7.62913907 13 8 C15.52775351 11.79163027 15.22443035 14.80874031 15.125 19.1875 C15.11597656 19.93708984 15.10695313 20.68667969 15.09765625 21.45898438 C15.07412578 23.30612654 15.03825561 25.15310412 15 27 C14.01 27 13.02 27 12 27 C11.67 22.05 11.34 17.1 11 12 C9.02 12 7.04 12 5 12 C3.05909174 13.94090826 3.60080565 17.47293902 3.4375 20.0625 C3.35371094 21.35285156 3.26992188 22.64320313 3.18359375 23.97265625 C3.12300781 24.97167969 3.06242187 25.97070312 3 27 C2.01 27 1.02 27 0 27 C0 18.09 0 9.18 0 0 Z " fill="#F3F3F3" transform="translate(501,397)"/>
<path d="M0 0 C1.32 0.33 2.64 0.66 4 1 C4.66 0.67 5.32 0.34 6 0 C9.5 -0.1875 9.5 -0.1875 13 0 C15 2 15 2 15.1953125 5.9140625 C15.18200376 7.48449351 15.15813602 9.05486221 15.125 10.625 C15.11597656 11.42679687 15.10695313 12.22859375 15.09765625 13.0546875 C15.07406223 15.03658523 15.03819065 17.01832981 15 19 C14.01 19 13.02 19 12 19 C11.67 14.05 11.34 9.1 11 4 C9.02 4 7.04 4 5 4 C4.67 8.95 4.34 13.9 4 19 C2.68 19 1.36 19 0 19 C0 12.73 0 6.46 0 0 Z " fill="#F3F3F3" transform="translate(1074,405)"/>
<path d="M0 0 C9.9609375 -0.1953125 9.9609375 -0.1953125 13 0 C15 2 15 2 15.1953125 5.9140625 C15.18200376 7.48449351 15.15813602 9.05486221 15.125 10.625 C15.11597656 11.42679687 15.10695313 12.22859375 15.09765625 13.0546875 C15.07406223 15.03658523 15.03819065 17.01832981 15 19 C14.01 19 13.02 19 12 19 C11.67 14.05 11.34 9.1 11 4 C7.25308553 2.60229416 7.25308553 2.60229416 5 4 C4.68758629 6.54941373 4.48696579 9.00361513 4.375 11.5625 C4.33632812 12.27341797 4.29765625 12.98433594 4.2578125 13.71679688 C4.16328217 15.47742425 4.08054183 17.23867728 4 19 C2.68 19 1.36 19 0 19 C0 12.73 0 6.46 0 0 Z " fill="#D7D7DA" transform="translate(1025,405)"/>
<path d="M0 0 C1.32 0.33 2.64 0.66 4 1 C4.33 0.67 4.66 0.34 5 0 C11.21376487 -0.46027888 11.21376487 -0.46027888 13.71484375 1.00390625 C15.75871851 4.17843513 15.3115892 7.54436827 15.1875 11.1875 C15.17396484 11.93708984 15.16042969 12.68667969 15.14648438 13.45898438 C15.11118539 15.30629767 15.05737917 17.15324066 15 19 C14.01 19 13.02 19 12 19 C11.67 14.05 11.34 9.1 11 4 C9.02 4 7.04 4 5 4 C3.05909174 5.94090826 3.60080565 9.47293902 3.4375 12.0625 C3.35371094 13.35285156 3.26992188 14.64320313 3.18359375 15.97265625 C3.12300781 16.97167969 3.06242188 17.97070312 3 19 C2.01 19 1.02 19 0 19 C0 12.73 0 6.46 0 0 Z " fill="#F4F4F4" transform="translate(976,405)"/>
<path d="M0 0 C0.99 0 1.98 0 3 0 C3.33 5.28 3.66 10.56 4 16 C7.465 15.505 7.465 15.505 11 15 C11.33 10.05 11.66 5.1 12 0 C12.99 0 13.98 0 15 0 C15 6.27 15 12.54 15 19 C3.68441065 19.36501901 3.68441065 19.36501901 1.125 18 C-0.68920641 14.77474416 -0.30984682 11.40447712 -0.1875 7.8125 C-0.17396484 7.06291016 -0.16042969 6.31332031 -0.14648438 5.54101562 C-0.11118539 3.69370233 -0.05737917 1.84675934 0 0 Z " fill="#F4F4F5" transform="translate(915,405)"/>
<path d="M0 0 C0.99 0 1.98 0 3 0 C3 0.66 3 1.32 3 2 C3.99 1.34 4.98 0.68 6 0 C9.5625 -0.25 9.5625 -0.25 13 0 C15 2 15 2 15.1953125 5.9140625 C15.18200376 7.48449351 15.15813602 9.05486221 15.125 10.625 C15.11597656 11.42679687 15.10695313 12.22859375 15.09765625 13.0546875 C15.07406223 15.03658523 15.03819065 17.01832981 15 19 C14.01 19 13.02 19 12 19 C11.67 14.05 11.34 9.1 11 4 C9.35 3.67 7.7 3.34 6 3 C3.14206684 5.85793316 3.59200059 8.14665584 3.375 12.125 C3.30023437 13.40632813 3.22546875 14.68765625 3.1484375 16.0078125 C3.09945312 16.99523437 3.05046875 17.98265625 3 19 C2.01 19 1.02 19 0 19 C0 12.73 0 6.46 0 0 Z " fill="#F9F9FA" transform="translate(680,405)"/>
<path d="M0 0 C2.375 0.9375 2.375 0.9375 4.375 3.9375 C4.69778258 7.73019527 4.84958478 10.90050959 2.375 13.9375 C-0.75 14.6875 -0.75 14.6875 -3.625 14.9375 C-6.29882693 11.14957852 -7.31673602 8.58201328 -6.625 3.9375 C-4.56007881 0.95483606 -3.68798539 -0.08780918 0 0 Z " fill="#202130" transform="translate(964.625,407.0625)"/>
<path d="M0 0 C2.94563014 0.3184465 4.61076606 0.66266392 6.875 2.625 C8.51175762 6.0803772 7.92777204 8.35518125 7 12 C5.75 14 5.75 14 4 15 C1.4375 14.875 1.4375 14.875 -1 14 C-3.47342266 10.28986601 -3.38503486 8.38939738 -3 4 C-1.5 1.5625 -1.5 1.5625 0 0 Z " fill="#1F202F" transform="translate(776,407)"/>
<path d="M0 0 C1.875 0.1875 1.875 0.1875 4 1 C5.25 3.5625 5.25 3.5625 6 6 C8.0245738 4.06745228 9.42105792 2.36841312 11 0 C12.32 0.33 13.64 0.66 15 1 C14.61585938 1.44730469 14.23171875 1.89460938 13.8359375 2.35546875 C12.37589829 4.18637354 11.09950948 5.93084436 10 8 C10.36329803 10.66009292 10.36329803 10.66009292 12 13 C12.53625 14.093125 13.0725 15.18625 13.625 16.3125 C14.07875 17.199375 14.5325 18.08625 15 19 C13.68 19 12.36 19 11 19 C8.75 16 8.75 16 7 13 C5.02 15.97 5.02 15.97 3 19 C1.68 18.67 0.36 18.34 -1 18 C-0.62746094 17.55269531 -0.25492188 17.10539062 0.12890625 16.64453125 C3.18150312 12.90554605 3.18150312 12.90554605 4 8.3125 C2.9489303 5.88190131 1.63977697 4.06754487 0 2 C0 1.34 0 0.68 0 0 Z " fill="#EEEEEF" transform="translate(859,405)"/>
<path d="M0 0 C2 1.3125 2 1.3125 3 3 C3 3.99 3 4.98 3 6 C2.01 6 1.02 6 0 6 C-0.66 5.01 -1.32 4.02 -2 3 C-5.29075996 3.37904208 -5.29075996 3.37904208 -8 5 C-8.19941868 7.06772734 -8.19941868 7.06772734 -8.1875 9.4375 C-8.20167969 10.24058594 -8.21585938 11.04367187 -8.23046875 11.87109375 C-8.20162356 14.21630633 -8.20162356 14.21630633 -6 16 C-3.42459787 15.83492354 -3.42459787 15.83492354 -1 15 C-0.67 14.34 -0.34 13.68 0 13 C0.99 13 1.98 13 3 13 C2.42655063 15.86724686 2.1385485 16.8614515 0 19 C-7.10601719 19.68767908 -7.10601719 19.68767908 -10.4375 17.125 C-13.25370672 13.29495887 -13.32273441 10.76033254 -13 6 C-10.03878384 -0.19163379 -6.63351603 -0.77323193 0 0 Z " fill="#E0E0E2" transform="translate(712,405)"/>
<path d="M0 0 C4.75 0.75 4.75 0.75 7 3 C7.30078125 5.05859375 7.30078125 5.05859375 7.3125 7.4375 C7.32925781 8.21996094 7.34601562 9.00242187 7.36328125 9.80859375 C6.91700017 12.50067642 6.1784515 13.39728211 4 15 C1.4375 14.875 1.4375 14.875 -1 14 C-3.47342266 10.28986601 -3.38503486 8.38939738 -3 4 C-1.5 1.5625 -1.5 1.5625 0 0 Z " fill="#1B1C2B" transform="translate(602,407)"/>
<path d="M0 0 C0.94875 0.04125 1.8975 0.0825 2.875 0.125 C2.875 0.785 2.875 1.445 2.875 2.125 C2.235625 2.3725 1.59625 2.62 0.9375 2.875 C-1.31241541 3.94062433 -1.31241541 3.94062433 -1.875 6.25 C-1.9575 6.86875 -2.04 7.4875 -2.125 8.125 C-0.805 8.125 0.515 8.125 1.875 8.125 C1.875 8.785 1.875 9.445 1.875 10.125 C0.555 10.125 -0.765 10.125 -2.125 10.125 C-2.125 15.735 -2.125 21.345 -2.125 27.125 C-3.445 27.125 -4.765 27.125 -6.125 27.125 C-6.125 21.515 -6.125 15.905 -6.125 10.125 C-6.785 10.125 -7.445 10.125 -8.125 10.125 C-8.125 9.465 -8.125 8.805 -8.125 8.125 C-7.135 8.125 -6.145 8.125 -5.125 8.125 C-5.186875 6.701875 -5.186875 6.701875 -5.25 5.25 C-5.0773465 0.9336624 -4.3163376 0.1726535 0 0 Z " fill="#E1E1E3" transform="translate(591.125,396.875)"/>
<path d="M0 0 C0.78375 0.2475 1.5675 0.495 2.375 0.75 C3.60908207 3.21816414 3.57697579 4.99661201 3.625 7.75 C3.66367187 9.0803125 3.66367187 9.0803125 3.703125 10.4375 C3.59484375 11.200625 3.4865625 11.96375 3.375 12.75 C0.375 14.75 0.375 14.75 -2.1875 14.625 C-4.625 13.75 -4.625 13.75 -6 12.1875 C-6.97213133 8.39618783 -6.43042799 5.59127197 -5.625 1.75 C-2.625 -0.25 -2.625 -0.25 0 0 Z " fill="#232433" transform="translate(489.625,407.25)"/>
<path d="M0 0 C1.32 0 2.64 0 4 0 C4 1.65 4 3.3 4 5 C4.99 5 5.98 5 7 5 C7 5.99 7 6.98 7 8 C6.01 8 5.02 8 4 8 C4 12.29 4 16.58 4 21 C4.99 21 5.98 21 7 21 C7 21.99 7 22.98 7 24 C4.625 24.125 4.625 24.125 2 24 C0 22 0 22 -0.1953125 18.7421875 C-0.17210937 17.46601563 -0.14890625 16.18984375 -0.125 14.875 C-0.10695313 13.59367187 -0.08890625 12.31234375 -0.0703125 10.9921875 C-0.04710937 10.00476563 -0.02390625 9.01734375 0 8 C-0.99 8 -1.98 8 -3 8 C-3 7.01 -3 6.02 -3 5 C-2.01 5 -1.02 5 0 5 C0 3.35 0 1.7 0 0 Z " fill="#D7D7DA" transform="translate(936,400)"/>
<path d="M0 0 C2.375 0.75 2.375 0.75 3.375 1.75 C3.52591913 3.55812724 3.59669008 5.37330617 3.625 7.1875 C3.66367187 8.67056641 3.66367187 8.67056641 3.703125 10.18359375 C3.59484375 11.03050781 3.4865625 11.87742187 3.375 12.75 C0.375 14.75 0.375 14.75 -1.6875 14.5 C-3.625 13.75 -3.625 13.75 -5.625 11.75 C-5.92578125 9.69140625 -5.92578125 9.69140625 -5.9375 7.3125 C-5.95425781 6.53003906 -5.97101562 5.74757813 -5.98828125 4.94140625 C-5.36398327 1.17547974 -3.80884669 -0.3627473 0 0 Z " fill="#1D1D2D" transform="translate(799.625,407.25)"/>
<path d="M0 0 C2 1.3125 2 1.3125 3 3 C3 3.99 3 4.98 3 6 C2.01 6 1.02 6 0 6 C-0.66 5.01 -1.32 4.02 -2 3 C-5.29075996 3.37904208 -5.29075996 3.37904208 -8 5 C-8.19941868 7.06772734 -8.19941868 7.06772734 -8.1875 9.4375 C-8.20167969 10.24058594 -8.21585938 11.04367187 -8.23046875 11.87109375 C-8.20162356 14.21630633 -8.20162356 14.21630633 -6 16 C-3.42459787 15.83492354 -3.42459787 15.83492354 -1 15 C-0.67 14.34 -0.34 13.68 0 13 C0.99 13 1.98 13 3 13 C2.6875 14.875 2.6875 14.875 2 17 C-1.7205836 19.48038907 -3.59796571 19.46337203 -8 19 C-10.4375 17.6875 -10.4375 17.6875 -12 15 C-12.71974141 10.11021041 -12.94580764 5.69457203 -10.5 1.3125 C-6.72351506 -0.67015459 -4.2519518 -0.47243909 0 0 Z " fill="#F1F1F2" transform="translate(908,405)"/>
<path d="M0 0 C2.9375 0.1875 2.9375 0.1875 3.9375 1.1875 C4.03601171 3.01865883 4.06722629 4.85369933 4.0625 6.6875 C4.06507812 7.6878125 4.06765625 8.688125 4.0703125 9.71875 C3.9375 12.1875 3.9375 12.1875 2.9375 13.1875 C0 13.375 0 13.375 -3.0625 13.1875 C-5.0625 11.1875 -5.0625 11.1875 -5.328125 9.09375 C-5.32039063 7.90265625 -5.32039063 7.90265625 -5.3125 6.6875 C-5.31765625 5.8934375 -5.3228125 5.099375 -5.328125 4.28125 C-4.86589265 0.63777151 -3.50610262 0.21465934 0 0 Z " fill="#161727" transform="translate(1053.0625,407.8125)"/>
<path d="M0 0 C6.8359375 -0.1953125 6.8359375 -0.1953125 9 0 C11 2 11 2 11.25 5 C11 8 11 8 9 10 C5.98173347 10.27240673 3.03629378 10.08675125 0 10 C0 6.7 0 3.4 0 0 Z " fill="#191A29" transform="translate(534,401)"/>
<path d="M0 0 C3.3 0 6.6 0 10 0 C10 0.99 10 1.98 10 3 C8.35 3.33 6.7 3.66 5 4 C4.67 8.95 4.34 13.9 4 19 C2.68 19 1.36 19 0 19 C0 12.73 0 6.46 0 0 Z " fill="#D7D7DA" transform="translate(571,405)"/>
<path d="M0 0 C0.99 0.33 1.98 0.66 3 1 C2.6803125 1.5671875 2.360625 2.134375 2.03125 2.71875 C0.35873587 6.41855397 0.12557637 10.03594622 1 14 C3.84730711 16.56680314 3.84730711 16.56680314 7 18 C7 18.33 7 18.66 7 19 C0.52369077 19.36658354 0.52369077 19.36658354 -1.875 17.6875 C-4.43758781 13.84361829 -4.66942921 9.46865732 -4 5 C-2 2 -2 2 0 0 Z " fill="#E2E2E4" transform="translate(794,405)"/>
<path d="M0 0 C2.625 0.25 2.625 0.25 4.27734375 1.25390625 C6.40833674 4.41024658 5.93737729 7.77123074 5.8125 11.4375 C5.79896484 12.18708984 5.78542969 12.93667969 5.77148438 13.70898438 C5.73618539 15.55629767 5.68237917 17.40324066 5.625 19.25 C4.305 19.25 2.985 19.25 1.625 19.25 C1.58632813 17.55230469 1.58632813 17.55230469 1.546875 15.8203125 C1.49060374 14.33850257 1.43325618 12.85673323 1.375 11.375 C1.36082031 10.62863281 1.34664062 9.88226563 1.33203125 9.11328125 C1.26513659 6.67861619 1.26513659 6.67861619 0.625 3.25 C-1.28128782 1.64662601 -1.28128782 1.64662601 -3.375 1.25 C-2.375 0.25 -2.375 0.25 0 0 Z " fill="#DCDCDE" transform="translate(650.375,404.75)"/>
<path d="M0 0 C2.97 0 5.94 0 9 0 C9 0.99 9 1.98 9 3 C7.35 3.66 5.7 4.32 4 5 C3.67 9.62 3.34 14.24 3 19 C2.01 19 1.02 19 0 19 C0 12.73 0 6.46 0 0 Z " fill="#FEFEFE" transform="translate(617,405)"/>
<path d="M0 0 C1.32 0 2.64 0 4 0 C4 6.27 4 12.54 4 19 C2.68 19 1.36 19 0 19 C0 12.73 0 6.46 0 0 Z " fill="#D2D2D6" transform="translate(472,405)"/>
<path d="M0 0 C0.99 0 1.98 0 3 0 C4.25433458 3.76300374 4.10695422 7.27210909 4.0625 11.1875 C4.05798828 11.93708984 4.05347656 12.68667969 4.04882812 13.45898438 C4.03706354 15.30602383 4.01912865 17.15302213 4 19 C2.68 19 1.36 19 0 19 C0 12.73 0 6.46 0 0 Z " fill="#D9D9DB" transform="translate(1074,405)"/>
<path d="M0 0 C2.5625 0.1875 2.5625 0.1875 4.5625 2.1875 C4.70767744 5.0968558 4.74880796 7.907446 4.6875 10.8125 C4.67847656 11.61429687 4.66945313 12.41609375 4.66015625 13.2421875 C4.63656223 15.22408523 4.60069065 17.20582981 4.5625 19.1875 C3.5725 19.1875 2.5825 19.1875 1.5625 19.1875 C1.53671875 18.13949219 1.5109375 17.09148437 1.484375 16.01171875 C1.42809142 14.63277098 1.37074412 13.25386635 1.3125 11.875 C1.29832031 11.18470703 1.28414062 10.49441406 1.26953125 9.78320312 C1.06392021 5.50316483 1.06392021 5.50316483 -1.484375 2.20703125 C-2.12890625 1.87058594 -2.7734375 1.53414063 -3.4375 1.1875 C-2.4375 0.1875 -2.4375 0.1875 0 0 Z " fill="#F4F4F4" transform="translate(1035.4375,404.8125)"/>
<path d="M0 0 C0.99 0 1.98 0 3 0 C3 0.66 3 1.32 3 2 C3.99 1.67 4.98 1.34 6 1 C5.52433594 1.76570313 5.52433594 1.76570313 5.0390625 2.546875 C3.66023727 5.80214659 3.5706427 8.72843132 3.375 12.25 C3.30023437 13.51328125 3.22546875 14.7765625 3.1484375 16.078125 C3.09945312 17.04234375 3.05046875 18.0065625 3 19 C2.01 19 1.02 19 0 19 C0 12.73 0 6.46 0 0 Z " fill="#ECECEE" transform="translate(680,405)"/>
<path d="M0 0 C0.99 0.33 1.98 0.66 3 1 C2.505 1.680625 2.01 2.36125 1.5 3.0625 C-0.34848987 6.68245934 -0.35930557 8.97577759 0 13 C0.8974827 15.83378132 0.8974827 15.83378132 2 18 C0.125 17.6875 0.125 17.6875 -2 17 C-4.67348144 12.98977783 -4.71022805 9.71558394 -4 5 C-2 1.9375 -2 1.9375 0 0 Z " fill="#F3F3F3" transform="translate(600,405)"/>
<path d="M0 0 C0.99 0 1.98 0 3 0 C3 0.66 3 1.32 3 2 C3.66 2.33 4.32 2.66 5 3 C4.67 3.33 4.34 3.66 4 4 C3.76346477 6.52596259 3.57826308 9.03107207 3.4375 11.5625 C3.39431641 12.27341797 3.35113281 12.98433594 3.30664062 13.71679688 C3.20028223 15.47761912 3.09961154 17.2387832 3 19 C2.01 19 1.02 19 0 19 C0 12.73 0 6.46 0 0 Z " fill="#F5F5F6" transform="translate(629,405)"/>
<path d="M0 0 C0.99 0 1.98 0 3 0 C3 6.27 3 12.54 3 19 C2.01 19 1.02 19 0 19 C0 12.73 0 6.46 0 0 Z " fill="#FFFFFF" transform="translate(1066,405)"/>
<path d="M0 0 C0.99 0 1.98 0 3 0 C3 6.27 3 12.54 3 19 C2.01 19 1.02 19 0 19 C0 12.73 0 6.46 0 0 Z " fill="#F5F5F5" transform="translate(947,405)"/>
<path d="M0 0 C1.670625 0.061875 1.670625 0.061875 3.375 0.125 C2.5 5 2.5 5 1.375 6.125 C-0.62458364 6.16580783 -2.62545254 6.16754356 -4.625 6.125 C-5.25 4.25 -5.25 4.25 -5.625 2.125 C-3.625 0.125 -3.625 0.125 0 0 Z " fill="#222332" transform="translate(668.625,414.875)"/>
<path d="M0 0 C2.625 0.375 2.625 0.375 5 1 C5.33 2.65 5.66 4.3 6 6 C3.03 6 0.06 6 -3 6 C-2 2 -2 2 0 0 Z " fill="#2F303E" transform="translate(1100,407)"/>
<path d="M0 0 C2.625 0.375 2.625 0.375 5 1 C5.33 2.65 5.66 4.3 6 6 C3.03 6 0.06 6 -3 6 C-2 2 -2 2 0 0 Z " fill="#2E2F3D" transform="translate(883,407)"/>
<path d="M0 0 C2.625 0.375 2.625 0.375 5 1 C5.33 2.65 5.66 4.3 6 6 C3.03 6 0.06 6 -3 6 C-2 2 -2 2 0 0 Z " fill="#2E2F3D" transform="translate(817,407)"/>
<path d="M0 0 C2.625 0.375 2.625 0.375 5 1 C5.33 2.65 5.66 4.3 6 6 C3.03 6 0.06 6 -3 6 C-2 2 -2 2 0 0 Z " fill="#2E2F3D" transform="translate(558,407)"/>
<path d="M0 0 C2.93453261 0.36681658 3.86437246 0.86437246 6 3 C6 3.99 6 4.98 6 6 C3.03 6 0.06 6 -3 6 C-2 2 -2 2 0 0 Z " fill="#282938" transform="translate(725,407)"/>
<path d="M0 0 C4.90094703 -0.288291 8.21612143 -0.33871638 12 3 C12.8125 6.1875 12.8125 6.1875 13 9 C12.01 9 11.02 9 10 9 C9.54625 8.195625 9.0925 7.39125 8.625 6.5625 C7.25588956 3.74858447 7.25588956 3.74858447 4.4375 3.375 C3.633125 3.25125 2.82875 3.1275 2 3 C1.34 2.01 0.68 1.02 0 0 Z " fill="#E0E0E2" transform="translate(753,398)"/>
<path d="M0 0 C5.47826087 -0.36521739 5.47826087 -0.36521739 7.875 1.3125 C9 3 9 3 9 6 C8.01 6 7.02 6 6 6 C5.34 5.01 4.68 4.02 4 3 C1.41619823 2.74969023 1.41619823 2.74969023 -1 3 C-0.67 2.01 -0.34 1.02 0 0 Z " fill="#F0F0F1" transform="translate(706,405)"/>
<path d="M0 0 C0.3403125 0.928125 0.3403125 0.928125 0.6875 1.875 C2.37929835 4.61410209 3.99244161 5.05024472 7 6 C7 6.66 7 7.32 7 8 C4.125 8.125 4.125 8.125 1 8 C-1 6 -1 6 -1.1875 3.4375 C-1 1 -1 1 0 0 Z " fill="#FAFAFA" transform="translate(662,416)"/>
<path d="M0 0 C2.31 0 4.62 0 7 0 C7 0.99 7 1.98 7 3 C5.02 3.33 3.04 3.66 1 4 C0.67 2.68 0.34 1.36 0 0 Z " fill="#DEDEE1" transform="translate(574,405)"/>
<path d="M0 0 C0.99 0 1.98 0 3 0 C2.67 1.32 2.34 2.64 2 4 C0.68 4.33 -0.64 4.66 -2 5 C-1.34 3.35 -0.68 1.7 0 0 Z " fill="#F0F0F1" transform="translate(712,418)"/>
<path d="M0 0 C0 0.99 0 1.98 0 3 C-1.65 3.33 -3.3 3.66 -5 4 C-5.33 3.01 -5.66 2.02 -6 1 C-4 0 -4 0 0 0 Z " fill="#EBEBEC" transform="translate(626,405)"/>
</svg>
