<svg xmlns="http://www.w3.org/2000/svg" width="24" height="24" viewBox="0 0 24 24" fill="none" stroke="currentColor" stroke-width="2" stroke-linecap="round" stroke-linejoin="round"><path d="M15.42 2.37a2.06 2.06 0 0 1 2.06 2.06c0 .7-.37 1.34-1.01 1.7l-4.52 2.58-1.55-.89.04-3.15 4.98-2.3zM3.58 3.58c.48-.48 1.14-.76 1.84-.81l7.4 4.2c.2.1.35.2.5.25.22.1.4.2.6.3a2.06 2.06 0 0 1 .58 2.65l-3.2 5.48-7.16-4.08a2.06 2.06 0 0 1-1.02-1.7V5.42c0-.7.34-1.35.9-1.84zM12 12.41l3.2-5.48a2.06 2.06 0 0 1 2.65-.58c.2.1.4.2.6.3a.93.93 0 0 1 .5.25l4.2 7.4c.05.6.01 1.25-.13 1.84-.48.48-1.14.76-1.84.81l-7.4-4.2a2.06 2.06 0 0 1-1.7-1.02zM12 12.41l-5.48 3.2a2.06 2.06 0 0 1-2.65.58c-.2-.1-.4-.2-.6-.3a.93.93 0 0 1-.5-.25l-4.2-7.4A2.06 2.06 0 0 1 .4 6.4c.48-.48 1.14-.76 1.84-.81l7.4 4.2a2.06 2.06 0 0 1 1.7 1.02z"/></svg>