<?xml version="1.0" encoding="UTF-8"?>
<svg version="1.1" xmlns="http://www.w3.org/2000/svg" width="364" height="364">
<path d="M0 0 C-1.60490794 4.25605333 -4.82164846 6.85825266 -8.125 9.8125 C-8.66898438 10.30814453 -9.21296875 10.80378906 -9.7734375 11.31445312 C-12.79142716 14.05391336 -15.84997633 16.74371575 -18.92578125 19.41796875 C-23.05622231 23.02341268 -27.06964631 26.74338693 -31.0625 30.5 C-31.73087891 31.12519531 -32.39925781 31.75039062 -33.08789062 32.39453125 C-35.06800124 34.2534106 -37.0368238 36.12325294 -39 38 C-39.65468262 38.62261719 -40.30936523 39.24523437 -40.98388672 39.88671875 C-41.9180542 40.79357422 -41.9180542 40.79357422 -42.87109375 41.71875 C-43.42595459 42.25435547 -43.98081543 42.78996094 -44.55249023 43.34179688 C-46.10296346 45.11795039 -47.03901431 46.85579156 -48 49 C-47.443125 48.54109375 -46.88625 48.0821875 -46.3125 47.609375 C-33.25564698 37.1109594 -18.3672675 33.52329419 -2.1875 30.25 C-1.15052979 30.03931885 -0.11355957 29.8286377 0.95483398 29.61157227 C44.20787101 21.20078095 82.8280925 35.50646489 123 50 C123 50.99 123 51.98 123 53 C122.26402588 53.21503174 121.52805176 53.43006348 120.76977539 53.65161133 C90.97787659 62.38992629 61.52186437 71.64376472 33 84 C32.14438477 84.36722168 31.28876953 84.73444336 30.40722656 85.11279297 C2.47228599 97.21565998 -8.54319572 116.74453004 -21.0390625 143.53125 C-22.18136543 146.02441783 -22.18136543 146.02441783 -22 149 C-20.76419189 149.40557129 -20.76419189 149.40557129 -19.50341797 149.81933594 C-1.65593388 155.74119618 14.84488288 162.19642325 31 172 C31 172.99 31 173.98 31 175 C27.04 176.98 27.04 176.98 23 179 C26.96 179.99 26.96 179.99 31 181 C29.89870753 185.40516989 29.60509171 185.62488588 26.0625 187.9375 C22.73712082 190.27537839 20.96576368 191.89550434 20 196 C23.34534087 197.13796431 26.45530626 197.92910613 30 198 C32.4067932 196.77977268 34.16987055 195.31955236 36.203125 193.5546875 C38.7575745 191.34453337 40.63839818 190.42020023 44 190 C46.85744357 191.03907039 49.41303399 192.41105134 52 194 C52 195.32 52 196.64 52 198 C51.31292969 198.25394531 50.62585938 198.50789062 49.91796875 198.76953125 C49.01691406 199.11371094 48.11585938 199.45789063 47.1875 199.8125 C46.29417969 200.14894531 45.40085937 200.48539063 44.48046875 200.83203125 C42.05044922 201.97624517 40.62113516 202.8729401 39 205 C39.07533247 207.6272914 39.07533247 207.6272914 40 210 C42.43387753 211.21693876 44.41838846 211.31959896 47.125 211.5625 C48.03507812 211.64628906 48.94515625 211.73007812 49.8828125 211.81640625 C50.58148438 211.87699219 51.28015625 211.93757812 52 212 C51.40051642 215.56692728 51.12480381 215.90639715 48 218.25 C43.75669543 220.44150092 39.68227444 221.02094706 35 220 C31.87552878 217.62268494 30.34015904 215.76535785 28.75 212.1875 C28.1725 211.465625 27.595 210.74375 27 210 C24.74623184 209.84096394 22.58551125 210.01089505 20.33203125 210.16015625 C17.53178095 209.96784425 16.55607932 209.22489911 14.4375 207.4375 C11.51907698 205.05579846 11.22187152 204.99284285 7.125 205.125 C5.7451921 205.39300115 4.36998507 205.6856191 3 206 C-4.36224998 207.53380208 -9.37453719 206.64155067 -16 203 C-17.84010023 201.63406908 -19.67303649 200.25845237 -21.5 198.875 C-28.59961052 193.96964969 -35.24566321 193.73256909 -43.59716797 193.18310547 C-71.53520474 191.05411466 -96.30389869 179.20038852 -114.83203125 157.83203125 C-116.33747627 155.99096198 -117.81993907 154.1305447 -119.265625 152.2421875 C-120.74871835 150.3248551 -122.27210461 148.68848725 -124 147 C-124.55915604 147.28068832 -125.11831207 147.56137665 -125.69441223 147.85057068 C-131.61636646 150.8227759 -137.53983282 153.79195189 -143.46411133 156.75952148 C-145.6627276 157.86131438 -147.86098168 158.96383039 -150.05883789 160.06713867 C-160.94283679 165.53025522 -171.83282371 170.97806216 -182.82421875 176.22265625 C-183.59981644 176.59514999 -184.37541412 176.96764374 -185.17451477 177.35142517 C-186.24574837 177.85821556 -186.24574837 177.85821556 -187.33862305 178.37524414 C-187.95335983 178.66710098 -188.56809662 178.95895782 -189.20146179 179.25965881 C-191.10934713 180.0450111 -192.98938852 180.54767954 -195 181 C-195 180.01 -195 179.02 -195 178 C-192.9453125 176.0546875 -192.9453125 176.0546875 -190.125 173.875 C-189.11566406 173.06933594 -188.10632813 172.26367188 -187.06640625 171.43359375 C-186.05449219 170.63050781 -185.04257813 169.82742187 -184 169 C-175.66103304 162.33139622 -169.68825487 154.61956236 -163.48583984 146.03222656 C-161.15754486 142.84774949 -158.73630884 139.73702901 -156.3125 136.625 C-153.39185837 132.97854548 -153.39185837 132.97854548 -151 129 C-156.63025779 129.48612901 -160.4713658 131.68568462 -165.1875 134.5625 C-166.31297241 135.24022461 -166.31297241 135.24022461 -167.46118164 135.93164062 C-181.99473491 144.78507357 -193.91104225 155.50621698 -204.3125 169 C-205.1478125 169.99 -205.1478125 169.99 -206 171 C-206.66 171 -207.32 171 -208 171 C-207.49995613 163.8327046 -204.7118182 157.59161569 -202 151 C-201.5045166 149.79335693 -201.0090332 148.58671387 -200.49853516 147.34350586 C-190.21310923 122.82116296 -174.32779349 102.74612572 -153 87 C-152.20835449 86.41331543 -151.41670898 85.82663086 -150.60107422 85.22216797 C-146.46101063 82.15707384 -142.31185554 79.10504457 -138.15234375 76.06640625 C-137.42547363 75.525 -136.69860352 74.98359375 -135.94970703 74.42578125 C-134.41680322 73.30479975 -132.83520792 72.25038133 -131.23828125 71.22265625 C-127.71604017 67.72500324 -126.19549359 63.38785591 -124.25 58.875 C-120.4480572 50.50674772 -116.85844926 44.22627915 -110 38 C-109.28972656 37.28585938 -108.57945313 36.57171875 -107.84765625 35.8359375 C-85.79844489 14.50285437 -55.92123931 3.12102716 -25.6875 0.875 C-24.59187744 0.79008301 -23.49625488 0.70516602 -22.36743164 0.61767578 C-14.89516141 0.06639273 -7.49354036 -0.2681585 0 0 Z M13 183 C12.67 183.99 12.34 184.98 12 186 C12.99 185.67 13.98 185.34 15 185 C15 184.34 15 183.68 15 183 C14.34 183 13.68 183 13 183 Z " fill="#A3561E" transform="translate(225,72)"/>
<path d="M0 0 C-5.92582478 5.46163517 -11.85178638 10.91204766 -17.94140625 16.19140625 C-21.45092161 19.27471861 -24.88709556 22.43866407 -28.33203125 25.59375 C-30.57793435 27.61933757 -32.86444794 29.56488394 -35.1875 31.5 C-49.19105548 43.98888519 -55.04997236 62.75754964 -58 81 C-57.85178818 84.4702009 -57.29610613 85.66307147 -54.98828125 88.2890625 C-53.66376953 89.44535156 -53.66376953 89.44535156 -52.3125 90.625 C-51.5853479 91.26296509 -51.5853479 91.26296509 -50.84350586 91.91381836 C-44.75903588 97.18574507 -38.39146807 102.10923136 -32 107 C-31.44570312 107.42764648 -30.89140625 107.85529297 -30.3203125 108.29589844 C-21.36245417 115.20180716 -13.79921417 120.09857921 -2.875 123 C-0.99056268 123.51705437 0.8935537 124.03527988 2.77734375 124.5546875 C4.13255127 124.9254541 4.13255127 124.9254541 5.51513672 125.30371094 C8.59837918 126.16767316 11.64196037 127.13704717 14.6875 128.125 C26.09196495 131.66023622 37.64103599 134.29600538 49.59375 134.82421875 C52 135 52 135 54 136 C56.85473541 136.37400832 59.69951069 136.7051789 62.5625 137 C64.12630208 137.16666667 65.69010417 137.33333333 67.25390625 137.5 C68.02879395 137.58121094 68.80368164 137.66242188 69.60205078 137.74609375 C73.40311066 138.14856802 77.20140111 138.57498194 81 139 C81 139.66 81 140.32 81 141 C77.04 142.98 77.04 142.98 73 145 C76.96 145.99 76.96 145.99 81 147 C79.89870753 151.40516989 79.60509171 151.62488588 76.0625 153.9375 C72.73712082 156.27537839 70.96576368 157.89550434 70 162 C73.34534087 163.13796431 76.45530626 163.92910613 80 164 C82.4067932 162.77977268 84.16987055 161.31955236 86.203125 159.5546875 C88.7575745 157.34453337 90.63839818 156.42020023 94 156 C96.85744357 157.03907039 99.41303399 158.41105134 102 160 C102 161.32 102 162.64 102 164 C101.31292969 164.25394531 100.62585938 164.50789062 99.91796875 164.76953125 C99.01691406 165.11371094 98.11585938 165.45789063 97.1875 165.8125 C96.29417969 166.14894531 95.40085937 166.48539063 94.48046875 166.83203125 C92.05044922 167.97624517 90.62113516 168.8729401 89 171 C89.07533247 173.6272914 89.07533247 173.6272914 90 176 C92.43387753 177.21693876 94.41838846 177.31959896 97.125 177.5625 C98.03507812 177.64628906 98.94515625 177.73007812 99.8828125 177.81640625 C100.58148438 177.87699219 101.28015625 177.93757812 102 178 C101.40051642 181.56692728 101.12480381 181.90639715 98 184.25 C93.75669543 186.44150092 89.68227444 187.02094706 85 186 C81.87552878 183.62268494 80.34015904 181.76535785 78.75 178.1875 C78.1725 177.465625 77.595 176.74375 77 176 C74.74623184 175.84096394 72.58551125 176.01089505 70.33203125 176.16015625 C67.53178095 175.96784425 66.55607932 175.22489911 64.4375 173.4375 C61.51907698 171.05579846 61.22187152 170.99284285 57.125 171.125 C55.7451921 171.39300115 54.36998507 171.6856191 53 172 C45.63775002 173.53380208 40.62546281 172.64155067 34 169 C32.15989977 167.63406908 30.32696351 166.25845237 28.5 164.875 C21.40038948 159.96964969 14.75433679 159.73256909 6.40283203 159.18310547 C-21.53520474 157.05411466 -46.30389869 145.20038852 -64.83203125 123.83203125 C-66.33747627 121.99096198 -67.81993907 120.1305447 -69.265625 118.2421875 C-70.74871835 116.3248551 -72.27210461 114.68848725 -74 113 C-74.55915604 113.28068832 -75.11831207 113.56137665 -75.69441223 113.85057068 C-81.61636646 116.8227759 -87.53983282 119.79195189 -93.46411133 122.75952148 C-95.6627276 123.86131438 -97.86098168 124.96383039 -100.05883789 126.06713867 C-110.94283679 131.53025522 -121.83282371 136.97806216 -132.82421875 142.22265625 C-133.59981644 142.59514999 -134.37541412 142.96764374 -135.17451477 143.35142517 C-136.24574837 143.85821556 -136.24574837 143.85821556 -137.33862305 144.37524414 C-137.95335983 144.66710098 -138.56809662 144.95895782 -139.20146179 145.25965881 C-141.10934713 146.0450111 -142.98938852 146.54767954 -145 147 C-145 146.01 -145 145.02 -145 144 C-142.9453125 142.0546875 -142.9453125 142.0546875 -140.125 139.875 C-139.11566406 139.06933594 -138.10632813 138.26367188 -137.06640625 137.43359375 C-136.05449219 136.63050781 -135.04257813 135.82742187 -134 135 C-125.66103304 128.33139622 -119.68825487 120.61956236 -113.48583984 112.03222656 C-111.15754486 108.84774949 -108.73630884 105.73702901 -106.3125 102.625 C-103.39185837 98.97854548 -103.39185837 98.97854548 -101 95 C-106.63025779 95.48612901 -110.4713658 97.68568462 -115.1875 100.5625 C-116.31297241 101.24022461 -116.31297241 101.24022461 -117.46118164 101.93164062 C-131.99473491 110.78507357 -143.91104225 121.50621698 -154.3125 135 C-155.1478125 135.99 -155.1478125 135.99 -156 137 C-156.66 137 -157.32 137 -158 137 C-157.49995613 129.8327046 -154.7118182 123.59161569 -152 117 C-151.5045166 115.79335693 -151.0090332 114.58671387 -150.49853516 113.34350586 C-140.19915629 88.78789661 -124.30688979 68.80635874 -103 53 C-101.45807738 51.83888149 -99.91642337 50.6774062 -98.375 49.515625 C-90.18084067 43.37599478 -81.91547007 37.47374771 -73.234375 32.04296875 C-70.98180201 30.62014789 -68.77351587 29.18088816 -66.578125 27.67578125 C-65.50046875 26.93714844 -64.4228125 26.19851562 -63.3125 25.4375 C-62.35988281 24.77621094 -61.40726562 24.11492187 -60.42578125 23.43359375 C-58 22 -58 22 -55 22 C-55 21.34 -55 20.68 -55 20 C-48.36564903 16.4076671 -41.64203723 13.71421523 -34.515625 11.25390625 C-31.24467942 10.08726899 -28.06680967 8.80362796 -24.875 7.4375 C-19.86078381 5.30007272 -14.79001863 3.53582578 -9.59375 1.89453125 C-7.01450588 1.0854616 -7.01450588 1.0854616 -4.84375 -0.17578125 C-3 -1 -3 -1 0 0 Z M63 149 C62.67 149.99 62.34 150.98 62 152 C62.99 151.67 63.98 151.34 65 151 C65 150.34 65 149.68 65 149 C64.34 149 63.68 149 63 149 Z " fill="#BC6D34" transform="translate(175,106)"/>
<path d="M0 0 C3.76689317 0.88270139 7.56262853 1.53019761 11.37548828 2.17773438 C17.10571754 3.22283318 22.4380862 4.74052583 27.91845703 6.69726562 C31.76994038 8.00332419 35.64049844 8.81823641 39.62548828 9.61523438 C39.62548828 10.27523437 39.62548828 10.93523437 39.62548828 11.61523438 C38.91642334 11.83139404 38.2073584 12.04755371 37.47680664 12.27026367 C21.58887068 17.0801901 21.58887068 17.0801901 5.81298828 22.24023438 C1.87915745 23.58403453 -2.05299568 24.82057603 -6.06591797 25.90039062 C-37.05422297 34.24624961 -68.25164915 45.32789472 -85.36669922 74.08789062 C-90.66850139 83.31551405 -95.55790564 92.72566215 -99.95263672 102.41992188 C-101.37451172 104.61523438 -101.37451172 104.61523438 -103.10229492 105.45019531 C-106.51204339 105.69785728 -108.27619237 104.24331442 -111.15185547 102.45117188 C-111.71117264 102.10742523 -112.27048981 101.76367859 -112.84675598 101.40951538 C-114.67601955 100.281402 -116.4938106 99.13607554 -118.31201172 97.99023438 C-119.57270107 97.20817409 -120.83410041 96.42725722 -122.09619141 95.64746094 C-124.64555975 94.06958914 -127.19043058 92.48484354 -129.73144531 90.89355469 C-133.01678962 88.83647636 -136.31256725 86.79681305 -139.61279297 84.76367188 C-147.21825102 80.07665563 -154.80138272 75.35427946 -162.37451172 70.61523438 C-160.4838017 66.5296064 -157.75271864 63.5480342 -154.68701172 60.30273438 C-154.14536377 59.72241455 -153.60371582 59.14209473 -153.0456543 58.54418945 C-149.74829673 55.02585714 -146.38364785 51.58925463 -142.94091797 48.21289062 C-141.21306979 46.45057166 -139.60771999 44.61220346 -137.99951172 42.74023438 C-134.70363038 38.91228251 -131.16435818 35.38759139 -127.56982422 31.84179688 C-124.93699752 29.17149221 -122.50137179 26.36740445 -120.06201172 23.52148438 C-117.82355358 20.99285574 -115.42516389 18.65070336 -113.01123047 16.29101562 C-111.41512545 14.65681741 -109.98673098 12.961767 -108.56201172 11.17773438 C-107.84013672 10.33210938 -107.11826172 9.48648438 -106.37451172 8.61523438 C-105.71451172 8.61523438 -105.05451172 8.61523438 -104.37451172 8.61523438 C-103.38451172 11.58523437 -102.39451172 14.55523437 -101.37451172 17.61523438 C-99.72451172 14.31523438 -98.07451172 11.01523438 -96.37451172 7.61523438 C-95.71451172 7.61523438 -95.05451172 7.61523438 -94.37451172 7.61523438 C-93.70296239 8.90436925 -93.03742313 10.19663641 -92.37451172 11.49023438 C-91.81763672 12.56917969 -91.81763672 12.56917969 -91.24951172 13.66992188 C-90.37451172 15.61523438 -90.37451172 15.61523438 -90.37451172 17.61523438 C-89.71451172 17.61523438 -89.05451172 17.61523438 -88.37451172 17.61523438 C-88.30103516 16.65423828 -88.30103516 16.65423828 -88.22607422 15.67382812 C-87.77049722 10.40327353 -87.01477382 5.64537149 -85.37451172 0.61523438 C-56.98649836 -5.55417905 -28.27272151 -6.92069424 0 0 Z " fill="#904A03" transform="translate(297.37451171875,112.384765625)"/>
<path d="M0 0 C-1.10611998 1.10611998 -2.2126291 2.2118519 -3.3203125 3.31640625 C-4.57017734 4.56917776 -5.81402751 5.82795574 -7.0546875 7.08984375 C-11.18586314 11.27105093 -15.37664509 15.29249808 -19.8359375 19.12109375 C-23.40024453 22.21573577 -26.86528848 25.41926943 -30.34765625 28.60546875 C-32.51009148 30.55771146 -34.70514585 32.44214923 -36.9375 34.3125 C-47.74417263 43.76833855 -56.15723243 54.78132379 -63.81396484 66.86206055 C-65.97439113 69.96323981 -68.24825531 72.50677285 -70.9140625 75.1796875 C-71.83960938 76.1078125 -72.76515625 77.0359375 -73.71875 77.9921875 C-74.19570312 78.46495117 -74.67265625 78.93771484 -75.1640625 79.42480469 C-76.63523151 80.88515628 -78.09528966 82.35601974 -79.5546875 83.828125 C-80.47765625 84.74851562 -81.400625 85.66890625 -82.3515625 86.6171875 C-83.61734131 87.87958252 -83.61734131 87.87958252 -84.90869141 89.16748047 C-87 91 -87 91 -89 91 C-91.45593511 88.63852394 -91.97976829 87.15029269 -92.4375 83.75 C-90.79937741 69.7089492 -76.0573038 58.65236528 -66 50 C-64.68673827 48.85503978 -63.37420461 47.70924378 -62.0625 46.5625 C-61.11310547 45.73685547 -61.11310547 45.73685547 -60.14453125 44.89453125 C-56.55619086 41.72450377 -53.03919515 38.47605953 -49.515625 35.234375 C-47.40830854 33.36265914 -45.28563587 31.64480338 -43 30 C-53.30889806 32.82503456 -63.31916579 36.63322226 -73.1875 40.72265625 C-73.85950439 40.99940186 -74.53150879 41.27614746 -75.22387695 41.5612793 C-77.08371844 42.33199317 -78.93850896 43.11486294 -80.79296875 43.8984375 C-83.79667931 44.93016268 -85.86410077 45.24803723 -89 45 C-91.69206932 36.41902904 -91.69206932 36.41902904 -91 33 C-88.55676875 30.98665375 -86.31789326 29.42448851 -83.625 27.8125 C-82.86203613 27.34054199 -82.09907227 26.86858398 -81.31298828 26.38232422 C-78.88883308 24.89773336 -76.44729074 23.4460821 -74 22 C-72.84661133 21.30704834 -72.84661133 21.30704834 -71.66992188 20.60009766 C-56.46375944 11.51483908 -41.57965975 6.84405077 -24.2722168 3.45703125 C-19.63997686 2.52530748 -15.02787356 1.49460331 -10.4375 0.375 C-6.93751127 -0.1634598 -3.53970921 -0.05999507 0 0 Z " fill="#904A03" transform="translate(217,76)"/>
<path d="M0 0 C0.495 0.165 0.99 0.33 1.5 0.5 C1.12886922 3.15501251 0.78996163 4.25082418 -1.27734375 6.02734375 C-1.99019531 6.49269531 -2.70304687 6.95804687 -3.4375 7.4375 C-6.76287918 9.77537839 -8.53423632 11.39550434 -9.5 15.5 C-6.15465913 16.63796431 -3.04469374 17.42910613 0.5 17.5 C2.9067932 16.27977268 4.66987055 14.81955236 6.703125 13.0546875 C9.2575745 10.84453337 11.13839818 9.92020023 14.5 9.5 C17.35744357 10.53907039 19.91303399 11.91105134 22.5 13.5 C22.5 14.82 22.5 16.14 22.5 17.5 C21.81292969 17.75394531 21.12585938 18.00789063 20.41796875 18.26953125 C19.51691406 18.61371094 18.61585938 18.95789063 17.6875 19.3125 C16.79417969 19.64894531 15.90085937 19.98539062 14.98046875 20.33203125 C12.55044922 21.47624517 11.12113516 22.3729401 9.5 24.5 C9.57533247 27.1272914 9.57533247 27.1272914 10.5 29.5 C12.93387753 30.71693876 14.91838846 30.81959896 17.625 31.0625 C18.53507812 31.14628906 19.44515625 31.23007812 20.3828125 31.31640625 C21.08148438 31.37699219 21.78015625 31.43757813 22.5 31.5 C21.90051642 35.06692728 21.62480381 35.40639715 18.5 37.75 C14.25669543 39.94150092 10.18227444 40.52094706 5.5 39.5 C2.37552878 37.12268494 0.84015904 35.26535785 -0.75 31.6875 C-1.3275 30.965625 -1.905 30.24375 -2.5 29.5 C-4.75376816 29.34096394 -6.91448875 29.51089505 -9.16796875 29.66015625 C-11.96821905 29.46784425 -12.94392068 28.72489911 -15.0625 26.9375 C-17.98092302 24.55579846 -18.27812848 24.49284285 -22.375 24.625 C-23.7548079 24.89300115 -25.13001493 25.1856191 -26.5 25.5 C-37.2263901 27.7346646 -44.28716798 23.45002797 -53.125 17.75 C-55.26005865 16.34742271 -57.38196121 14.92830281 -59.5 13.5 C-59.17 12.84 -58.84 12.18 -58.5 11.5 C-56.14257812 10.86157227 -56.14257812 10.86157227 -53.03125 10.31640625 C-51.90203125 10.11080078 -50.7728125 9.90519531 -49.609375 9.69335938 C-48.41828125 9.48517578 -47.2271875 9.27699219 -46 9.0625 C-35.50415333 7.2188489 -35.50415333 7.2188489 -25.34204102 4.08447266 C-22.70376201 3.24735669 -20.23748886 3.28942393 -17.5 3.5 C-17.5 4.16 -17.5 4.82 -17.5 5.5 C-16.88125 4.8503125 -16.88125 4.8503125 -16.25 4.1875 C-10.82872431 -1.0401587 -7.41488891 -1.48297778 0 0 Z " fill="#A3561E" transform="translate(254.5,252.5)"/>
<path d="M0 0 C6.83774806 -0.49239522 10.66127438 2.07106457 15.96704102 6.13525391 C16.73725586 6.69083984 17.5074707 7.24642578 18.30102539 7.81884766 C22.33687477 10.7911236 22.33687477 10.7911236 23.90454102 12.26025391 C23.90454102 12.92025391 23.90454102 13.58025391 23.90454102 14.26025391 C17.25893691 16.81625549 11.07227746 18.361694 4.21704102 15.88525391 C-2.65882413 12.82207228 -8.87267165 8.45660041 -15.09545898 4.26025391 C-14.76545898 3.60025391 -14.43545898 2.94025391 -14.09545898 2.26025391 C-11.68920898 1.62744141 -11.68920898 1.62744141 -8.59545898 1.13525391 C-7.59514648 0.96767578 -6.59483398 0.80009766 -5.56420898 0.62744141 C-3.70808817 0.43096015 -1.85225995 0.23004883 0 0 Z " fill="#8E4A16" transform="translate(210.095458984375,261.73974609375)"/>
<path d="M0 0 C3.36046048 1.21548571 4.8814778 2.13662225 6.9375 5.0625 C7.5 8 7.5 8 6.9375 11.0625 C4.875 14 4.875 14 1.9375 16.0625 C-1.91460127 16.12891554 -4.06098005 15.93479157 -7 13.375 C-8.4238395 10.2760552 -8.61403827 8.44067188 -8.0625 5.0625 C-5.55061375 1.59018665 -4.37084277 0.08920087 0 0 Z " fill="#DFD2C8" transform="translate(75.0625,169.9375)"/>
<path d="M0 0 C2.5 0.5 2.5 0.5 4 1 C3.62750557 3.65903716 3.27214211 4.76075419 1.22265625 6.5625 C0.50980469 7.036875 -0.20304688 7.51125 -0.9375 8 C-4.00686234 10.04995525 -5.58451942 11.56134561 -7 15 C-10.33717549 13.6190998 -12.22301036 12.1798762 -14 9 C-14 5.95561641 -12.77843875 4.70458501 -10.9375 2.25 C-6.89647901 -0.84525012 -5.00869315 -0.4770184 0 0 Z " fill="#8E4A16" transform="translate(252,252)"/>
<path d="M0 0 C3.41378167 0.66610374 4.55523131 1.67495518 6.5625 4.5 C7.0625 7.5 7.0625 7.5 6.5625 10.5 C4.75 12.875 4.75 12.875 2.5625 14.5 C1.5725 14.5 0.5825 14.5 -0.4375 14.5 C-0.1075 11.86 0.2225 9.22 0.5625 6.5 C-1.4175 5.84 -3.3975 5.18 -5.4375 4.5 C-3.83983668 1.80919861 -3.13576973 0.64323482 0 0 Z " fill="#F6F3F0" transform="translate(75.4375,170.5)"/>
<path d="M0 0 C0.33 0.66 0.66 1.32 1 2 C-2.13754315 9.32901006 -6.91770251 15.41802702 -12.25 21.25 C-12.76908936 21.82274658 -13.28817871 22.39549316 -13.82299805 22.9855957 C-15.14944491 24.389069 -16.56920036 25.70307635 -18 27 C-18.99 27 -19.98 27 -21 27 C-20.23816406 26.05640625 -19.47632813 25.1128125 -18.69140625 24.140625 C-12.30291781 16.20482722 -6.04676842 8.19978445 0 0 Z " fill="#EA2579" transform="translate(73,203)"/>
<path d="M0 0 C2.5 0.125 2.5 0.125 3.5 1.125 C3.625 3.625 3.625 3.625 3.5 6.125 C2.5 7.125 2.5 7.125 0 7.25 C-2.5 7.125 -2.5 7.125 -3.5 6.125 C-3.625 3.625 -3.625 3.625 -3.5 1.125 C-2.5 0.125 -2.5 0.125 0 0 Z " fill="#0B0B0B" transform="translate(73.5,175.875)"/>
<path d="M0 0 C4 2 4 2 6 5 C1.375 9 1.375 9 -2 9 C-1.34 6.03 -0.68 3.06 0 0 Z " fill="#914B05" transform="translate(113,122)"/>
<path d="M0 0 C4.29 0.33 8.58 0.66 13 1 C13 1.66 13 2.32 13 3 C9.90826248 4.54586876 7.40570448 4.29359521 4 4 C2.68 2.68 1.36 1.36 0 0 Z " fill="#8E4A16" transform="translate(239,278)"/>
<path d="M0 0 C1.65 0.99 3.3 1.98 5 3 C4.67 3.99 4.34 4.98 4 6 C1.9375 6.6875 1.9375 6.6875 0 7 C0 4.69 0 2.38 0 0 Z " fill="#904A04" transform="translate(121,118)"/>
<path d="M0 0 C0.2475 0.639375 0.495 1.27875 0.75 1.9375 C1.81562433 4.18741541 1.81562433 4.18741541 4.125 4.75 C4.74375 4.8325 5.3625 4.915 6 5 C6 5.66 6 6.32 6 7 C6.66 7.33 7.32 7.66 8 8 C4.625 7.6875 4.625 7.6875 1 7 C-1 4 -1 4 -0.625 1.8125 C-0.41875 1.214375 -0.2125 0.61625 0 0 Z " fill="#C9B9AE" transform="translate(69,178)"/>
</svg>
