<svg width="800px" height="800px" viewBox="0 0 24 24" xmlns="http://www.w3.org/2000/svg">
    <path fill="currentColor" d="M12 2C6.477 2 2 6.477 2 12s4.477 10 10 10c.39 0 .774-.022 1.153-.065A9.006 9.006 0 0 1 4 12c0-4.067 2.709-7.51 6.417-8.65A9.943 9.943 0 0 0 12 2m8.847 11.065A9.943 9.943 0 0 0 22 12c0-4.067-2.709-7.51-6.417-8.65C16.357 5.03 18.17 7.55 19.2 10H11v2h8.847zM13.153 21.935C14.731 20.98 16 19.356 16 17.5a3.5 3.5 0 0 0-3.5-3.5h-5a3.5 3.5 0 0 0-3.5 3.5c0 1.933 1.567 3.5 3.5 3.5h.5v.5a.5.5 0 0 0 .5.5H12a.5.5 0 0 0 .5-.5v-.5h.653zM12 16h-.5a1.5 1.5 0 0 1 0-3h5a1.5 1.5 0 1 1 0 3H12z"/>
</svg>
