<svg width="800px" height="800px" viewBox="0 -3 28 28" xmlns="http://www.w3.org/2000/svg">
  <g fill="currentColor">
    <path d="M14 0C6.268 0 0 6.268 0 14s6.268 14 14 14s14-6.268 14-14S21.732 0 14 0zm0 24.667C8.112 24.667 3.333 19.888 3.333 14S8.112 3.333 14 3.333S24.667 8.112 24.667 14S19.888 24.667 14 24.667z"/>
    <path d="m17.478 8.17l-5.69 5.69l-2.613-2.613a1.455 1.455 0 0 0-2.057 0a1.455 1.455 0 0 0 0 2.057l3.64 3.64c.277.277.646.425.92.425c.036 0 .07-.002.106-.007c.31-.035.63-.207.86-.464l6.717-6.717a1.455 1.455 0 1 0-2.057-2.058z"/>
  </g>
</svg>