<?xml version="1.0" encoding="UTF-8"?>
<svg version="1.1" xmlns="http://www.w3.org/2000/svg" width="320" height="177">
<path d="M0 0 C105.6 0 211.2 0 320 0 C320 58.41 320 116.82 320 177 C214.4 177 108.8 177 0 177 C0 118.59 0 60.18 0 0 Z " fill="#FEFEFE" transform="translate(0,0)"/>
<path d="M0 0 C22 0 22 0 30 5 C34.31440379 10.39300473 33.59816056 17.42842779 33 24 C31.85672586 29.12257715 29.34403075 32.06484409 25 35 C26.55317921 42.41290078 28.54142805 49.65770287 30.625 56.9375 C31.2654036 59.17510067 31.90354612 61.41335012 32.5390625 63.65234375 C32.81959473 64.63195068 33.10012695 65.61155762 33.38916016 66.62084961 C34 69 34 69 34 71 C32.02 71 30.04 71 28 71 C25.37994086 64.3329572 23.30780631 57.56485015 21.3125 50.6875 C20.99216797 49.60404297 20.67183594 48.52058594 20.34179688 47.40429688 C19.88836914 45.8487207 19.88836914 45.8487207 19.42578125 44.26171875 C19.15161377 43.32287842 18.87744629 42.38403809 18.5949707 41.41674805 C18 39 18 39 18 36 C14.04 36 10.08 36 6 36 C6 47.55 6 59.1 6 71 C4.02 71 2.04 71 0 71 C0 47.57 0 24.14 0 0 Z " fill="#27B7C0" transform="translate(36,45)"/>
<path d="M0 0 C2.91801983 1.30335452 4.54329863 2.19378328 6.12866211 4.99243164 C7.37980219 9.31095074 7.2457841 13.42183626 7.1953125 17.89453125 C7.1924826 18.84188644 7.18965271 19.78924164 7.18673706 20.76530457 C7.17557187 23.78116666 7.15047389 26.79672816 7.125 29.8125 C7.11496547 31.86132383 7.10584045 33.91015232 7.09765625 35.95898438 C7.07564449 40.97277148 7.04113971 45.98633483 7 51 C5.35 51 3.7 51 2 51 C2 49.02 2 47.04 2 45 C1.34 45 0.68 45 0 45 C-0.268125 45.61875 -0.53625 46.2375 -0.8125 46.875 C-2 49 -2 49 -5 51 C-8.09232836 51.60225122 -10.90545436 51.59072763 -14 51 C-17.5936283 48.28644394 -18.62414081 46.77654307 -19.54296875 42.43359375 C-19.91683175 37.36175416 -19.42579821 33.74286978 -16.25 29.6875 C-11.65836628 25.09586628 -5.89262618 22.55443893 0 20 C0.05389087 18.04196493 0.09274217 16.08351091 0.125 14.125 C0.14820313 13.03445312 0.17140625 11.94390625 0.1953125 10.8203125 C0.30060534 7.8628949 0.30060534 7.8628949 -2 6 C-5.5 5.66666667 -5.5 5.66666667 -9 6 C-11.76223278 8.76223278 -11.57856291 11.20706617 -12 15 C-14.31 15 -16.62 15 -19 15 C-18.80250436 9.37137423 -18.01485788 5.47422998 -14.078125 1.2890625 C-9.82696347 -1.3479362 -4.77160043 -0.88624611 0 0 Z " fill="#2BB8C1" transform="translate(201,65)"/>
<path d="M0 0 C2.31 0 4.62 0 7 0 C7.33 7.92 7.66 15.84 8 24 C9.98 22.68 11.96 21.36 14 20 C16.4140625 19.3984375 16.4140625 19.3984375 18.625 19.375 C19.35976562 19.34148437 20.09453125 19.30796875 20.8515625 19.2734375 C23.56984524 20.1927113 24.64522151 21.66147918 26.15841675 24.04562378 C27.85985909 27.9968175 27.48222724 32.19967499 27.390625 36.4296875 C27.38496521 37.42001984 27.37930542 38.41035217 27.37347412 39.43069458 C27.35116674 42.57929775 27.30098002 45.72674349 27.25 48.875 C27.22992775 51.01560851 27.21167825 53.15623494 27.1953125 55.296875 C27.15132069 60.5316418 27.08446528 65.76573819 27 71 C24.69 71 22.38 71 20 71 C19.9845388 70.17647789 19.9845388 70.17647789 19.96876526 69.33631897 C19.86092053 63.64278719 19.74630551 57.94942079 19.62768555 52.25610352 C19.58426577 50.12885993 19.54259607 48.0015799 19.50268555 45.87426758 C19.44515293 42.82361849 19.38141033 39.77315411 19.31640625 36.72265625 C19.29969376 35.76537125 19.28298126 34.80808624 19.26576233 33.8217926 C19.24581711 32.94095505 19.22587189 32.06011749 19.20532227 31.15258789 C19.18200584 29.9834359 19.18200584 29.9834359 19.15821838 28.79066467 C19.19110881 26.97706647 19.19110881 26.97706647 18 26 C14.93912082 25.72792185 12.68535444 25.70726105 9.83886719 26.9230957 C6.83146542 30.31979869 7.39659149 34.09429114 7.390625 38.48046875 C7.37408875 39.40845779 7.35755249 40.33644684 7.34051514 41.29255676 C7.29191573 44.25760435 7.27063778 47.22213866 7.25 50.1875 C7.2218503 52.19729162 7.19192429 54.2070592 7.16015625 56.21679688 C7.08615355 61.14448901 7.03665194 66.0718942 7 71 C4.69 71 2.38 71 0 71 C0 47.57 0 24.14 0 0 Z " fill="#34BBC4" transform="translate(147,45)"/>
<path d="M0 0 C5.43594385 6.83876806 4.09590432 15.12127302 3.9375 23.4375 C-2.6625 23.4375 -9.2625 23.4375 -16.0625 23.4375 C-15.93875 25.995 -15.815 28.5525 -15.6875 31.1875 C-15.65350098 31.98639648 -15.61950195 32.78529297 -15.58447266 33.60839844 C-15.35795528 38.86355855 -15.35795528 38.86355855 -13.0625 43.4375 C-9.20340895 44.34964879 -6.84646692 44.69882231 -3.0625 43.4375 C-2.7325 39.8075 -2.4025 36.1775 -2.0625 32.4375 C-0.0825 32.4375 1.8975 32.4375 3.9375 32.4375 C4.28399648 38.21244139 4.23476646 42.43053982 0.9375 47.4375 C-3.93772448 50.68764965 -9.36809194 50.14483551 -15.0625 49.4375 C-18.59701765 46.94254636 -20.48476607 44.41493413 -22.0625 40.4375 C-22.46441762 35.7722159 -22.43410951 31.10148857 -22.43310547 26.42114258 C-22.43746627 24.14262444 -22.47376972 21.86606474 -22.51171875 19.58789062 C-22.51759021 18.12500657 -22.5215574 16.66211338 -22.5234375 15.19921875 C-22.53780853 14.52606125 -22.55217957 13.85290375 -22.56698608 13.15934753 C-22.51587897 7.7835228 -20.99038468 4.78368033 -18.0625 0.4375 C-13.09577281 -3.23930009 -5.26428839 -2.68586142 0 0 Z " fill="#2DB8C2" transform="translate(100.0625,66.5625)"/>
<path d="M0 0 C4.33162946 2.88775297 5.89308625 5.96857388 7 11 C7.07522969 13.33212027 7.09325876 15.6685311 7 18 C5.02 18 3.04 18 1 18 C0.86722656 17.21753906 0.73445313 16.43507813 0.59765625 15.62890625 C0.33275391 14.11103516 0.33275391 14.11103516 0.0625 12.5625 C-0.11152344 11.55316406 -0.28554687 10.54382813 -0.46484375 9.50390625 C-0.74751097 7.0712562 -0.74751097 7.0712562 -2 6 C-6.03083011 5.67539739 -6.03083011 5.67539739 -10 6 C-12.39550595 9.59325892 -12.30623576 12.21888327 -12.30078125 16.37109375 C-12.30506638 17.0898317 -12.3093515 17.80856964 -12.31376648 18.54908752 C-12.3195045 20.06795194 -12.32001391 21.58684384 -12.31567383 23.10571289 C-12.31251596 25.42577164 -12.33596998 27.74455221 -12.36132812 30.06445312 C-12.36360145 31.54166506 -12.36430446 33.01888042 -12.36328125 34.49609375 C-12.372491 35.18787216 -12.38170074 35.87965057 -12.39118958 36.59239197 C-12.36197829 39.64399156 -12.14225994 41.74026962 -10.66479492 44.43774414 C-9.00569363 46.2843117 -9.00569363 46.2843117 -6 46.5 C-2.96288598 46.29977849 -2.96288598 46.29977849 -1.35546875 44.296875 C0.20915688 41.64557855 0.48650164 39.80517511 0.6875 36.75 C0.75324219 35.85796875 0.81898438 34.9659375 0.88671875 34.046875 C0.92410156 33.37140625 0.96148437 32.6959375 1 32 C2.98 32 4.96 32 7 32 C7.3103969 37.79407555 7.03086568 42.89955066 4 48 C0.84640647 51.08981299 -1.59136021 51.43201937 -5.9375 51.4375 C-9.58825538 51.32202599 -11.73294713 51.12535135 -15.0625 49.5625 C-20.57981888 42.26540084 -20.46552085 33.74316714 -20.375 24.9375 C-20.38660156 23.80505859 -20.39820312 22.67261719 -20.41015625 21.50585938 C-20.3833429 13.83277258 -19.83067316 7.90843493 -15.21484375 1.53515625 C-10.73923596 -1.5669846 -5.184727 -0.75665432 0 0 Z " fill="#30B9C3" transform="translate(132,65)"/>
<path d="M0 0 C2.31 0 4.62 0 7 0 C7 4.95 7 9.9 7 15 C9.64 15 12.28 15 15 15 C15 16.65 15 18.3 15 20 C12.36 20 9.72 20 7 20 C7.33 33.2 7.66 46.4 8 60 C11.465 60.495 11.465 60.495 15 61 C15 62.65 15 64.3 15 66 C5.8853167 66.62619962 5.8853167 66.62619962 2.4375 64.1875 C-0.50169914 59.71480565 -0.12940273 55.32772467 -0.09765625 50.17578125 C-0.0962413 49.31438034 -0.09482635 48.45297943 -0.09336853 47.56547546 C-0.0877714 44.81444831 -0.07521946 42.06350256 -0.0625 39.3125 C-0.05748463 37.4472668 -0.05292179 35.58203233 -0.04882812 33.71679688 C-0.03780292 29.14449989 -0.02054027 24.57226375 0 20 C-1.98 20 -3.96 20 -6 20 C-6 18.35 -6 16.7 -6 15 C-4.02 15 -2.04 15 0 15 C0 10.05 0 5.1 0 0 Z " fill="#36BBC5" transform="translate(246,50)"/>
<path d="M0 0 C4.15200287 0.03231131 5.369362 0.09534759 8.8125 2.625 C11.67125651 6.68258988 12.75 8.3171734 12.75 13.375 C11.1 13.705 9.45 14.035 7.75 14.375 C7.2859375 12.6734375 7.2859375 12.6734375 6.8125 10.9375 C6.12075469 7.58724901 6.12075469 7.58724901 4.75 6.375 C2.87678052 6.21446185 2.87678052 6.21446185 0.75 6.25 C0.028125 6.24742188 -0.69375 6.24484375 -1.4375 6.2421875 C-3.27089415 6.17804724 -3.27089415 6.17804724 -4.25 7.375 C-4.81909364 10.86069857 -4.92048509 13.33043329 -2.96875 16.37109375 C0.08447027 19.93087102 3.43751018 23.02118925 7 26.0625 C11.91306762 30.31858765 13.89404731 33.21276037 14.375 39.8125 C14.23923259 43.83121522 13.8052506 46.1741181 10.9375 49.0625 C6.94008291 51.85744203 3.1325559 52.17471476 -1.65625 51.8984375 C-5.83775436 51.05457969 -7.45698449 49.5977102 -10.25 46.375 C-11.97912603 43.3678243 -12.33400886 42.00506645 -11.875 38.5625 C-11.66875 37.840625 -11.4625 37.11875 -11.25 36.375 C-9.93 36.375 -8.61 36.375 -7.25 36.375 C-7.04246094 37.01308594 -6.83492188 37.65117188 -6.62109375 38.30859375 C-5.67219033 40.85356067 -4.72124564 43.08877864 -3.25 45.375 C0.56615227 46.73791152 2.46941639 46.93320311 6.1875 45.3125 C7.96054481 43.41726505 7.96054481 43.41726505 8.3125 40.625 C7.13985314 33.84970703 2.90416166 30.3664782 -2.3125 26.375 C-7.27042896 22.52540092 -10.5081479 19.54521717 -11.65234375 13.11328125 C-11.95412496 8.66016831 -11.70608955 6.93634099 -8.8125 3.375 C-7.966875 2.715 -7.12125 2.055 -6.25 1.375 C-4.53055699 -0.34444301 -2.34584777 0.08154016 0 0 Z " fill="#2DB8C2" transform="translate(278.25,64.625)"/>
<path d="M0 0 C15.17241379 0 15.17241379 0 19 3 C21.70195729 7.17575217 21.5432477 12.18484989 21 17 C19.86580856 21.10950186 18.64752506 23.56831662 15 26 C12.3886146 26.14269866 9.91622711 26.18772704 7.3125 26.125 C4.899375 26.08375 2.48625 26.0425 0 26 C0 17.42 0 8.84 0 0 Z " fill="#F7FCFC" transform="translate(42,50)"/>
<path d="M0 0 C2.31 0 4.62 0 7 0 C7.33 1.65 7.66 3.3 8 5 C8.886875 4.175 9.77375 3.35 10.6875 2.5 C13.01307407 0.53900524 13.74787194 0.02740522 16.875 -0.3125 C17.926875 -0.1578125 17.926875 -0.1578125 19 0 C19 1.98 19 3.96 19 6 C16.02148438 6.63476562 16.02148438 6.63476562 13.04296875 7.26953125 C10.62418137 8.13437492 9.62399361 9.02112801 8 11 C7.53252587 12.90699025 7.53252587 12.90699025 7.56762695 15.01245117 C7.54783279 15.81305466 7.52803864 16.61365814 7.50764465 17.43852234 C7.50125473 18.29798965 7.49486481 19.15745697 7.48828125 20.04296875 C7.47033005 20.9265657 7.45237885 21.81016266 7.43388367 22.72053528 C7.37970004 25.5428083 7.34585939 28.36491144 7.3125 31.1875 C7.27933401 33.10093514 7.24484502 35.01434784 7.20898438 36.92773438 C7.12396901 41.61836715 7.05719638 46.30894884 7 51 C4.69 51 2.38 51 0 51 C0 34.17 0 17.34 0 0 Z " fill="#33BAC3" transform="translate(218,65)"/>
<path d="M0 0 C0.16276553 2.56506424 0.28113984 5.11975422 0.375 7.6875 C0.45041016 8.7693457 0.45041016 8.7693457 0.52734375 9.87304688 C0.67175452 15.14404011 0.67175452 15.14404011 -1.26782227 17.61547852 C-3.64399177 19.6642533 -5.60486128 20.91729655 -8.6875 21.5625 C-11 21 -11 21 -12.8125 19.4375 C-14.48995891 15.99429486 -14.52311636 13.79259358 -14 10 C-10.98866507 5.34611874 -5.99673125 0 0 0 Z " fill="#F6FBFC" transform="translate(202,90)"/>
<path d="M0 0 C6.95596196 -0.66247257 6.95596196 -0.66247257 9.7421875 1.10546875 C12.46604384 5.20817163 11.1385346 11.33600185 11 16 C6.71 16 2.42 16 -2 16 C-2.25 3.375 -2.25 3.375 0 0 Z " fill="#FBFDFE" transform="translate(87,70)"/>
</svg>
