<svg xmlns="http://www.w3.org/2000/svg" width="24" height="24" viewBox="0 0 24 24" fill="none" stroke="currentColor" stroke-width="2" stroke-linecap="round" stroke-linejoin="round">
    <path d="M14 10.5c-1.31-1.31-3.44-1.31-4.75 0a3.34 3.34 0 0 0 0 4.75l4.75-4.75Z"/>
    <path d="M11.63 15.82c.42.42.42 1.1 0 1.52a1.07 1.07 0 0 1-1.52 0l-5.9-5.9a1.07 1.07 0 0 1 0-1.52c.42-.42 1.1-.42 1.52 0Z"/>
    <path d="M18.88 12.37a1.07 1.07 0 0 1 0-1.52c.42-.42 1.1-.42 1.52 0l2.48 2.48a1.07 1.07 0 0 1 0 1.52c-.42.42-1.1.42-1.52 0Z"/>
    <path d="m2.44 13.44 3.03-3.03"/>
    <path d="M15.47 3.97a5.5 5.5 0 0 1 7.78 7.78l-2.48-2.48a1.07 1.07 0 0 0-1.52 0c-.42.42-.42 1.1 0 1.52l2.48 2.48a5.5 5.5 0 0 1-7.78 7.78l-6.95-6.95a5.5 5.5 0 0 1 7.78-7.78Z"/>
</svg>
