<?xml version="1.0" encoding="UTF-8"?>
<svg version="1.1" xmlns="http://www.w3.org/2000/svg" width="1364" height="480">
<path d="M0 0 C0.83885742 -0.01804688 1.67771484 -0.03609375 2.54199219 -0.0546875 C8.32682923 0.00012343 12.97806752 1.11029222 17.75 4.5 C21.82010827 9.25252592 22.47322144 14.39703269 22.75 20.5 C23.41 20.5 24.07 20.5 24.75 20.5 C24.98976563 19.91992188 25.22953125 19.33984375 25.4765625 18.7421875 C30.55547476 9.79956285 43.05232107 4.24577361 52.47265625 1.359375 C65.23248207 -1.61428759 79.55957347 -0.76106706 90.93359375 5.75 C96.63566849 9.54419718 100.13046064 14.77660338 103.75 20.5 C104.2965625 19.7678125 104.843125 19.035625 105.40625 18.28125 C113.05076419 9.20975983 124.18505182 2.98829213 135.75 0.5 C149.91919243 -0.59086381 163.49838875 -0.63233686 174.96875 8.74609375 C183.55338647 17.19894852 186.47398921 28.29416886 186.87025452 40.07518005 C186.86803391 41.33870804 186.86581329 42.60223602 186.86352539 43.90405273 C186.86367142 44.607332 186.86381744 45.31061127 186.8639679 46.03520203 C186.86327726 48.33469851 186.8555251 50.63411161 186.84765625 52.93359375 C186.84578905 54.53784643 186.84436657 56.14209969 186.84336853 57.74635315 C186.83956715 61.94995727 186.8297574 66.15352634 186.81866455 70.3571167 C186.80839906 74.6540886 186.80385994 78.95106622 186.79882812 83.24804688 C186.78813281 91.66538059 186.77108524 100.08268592 186.75 108.5 C188.17204036 109.13664603 189.5945837 109.77216864 191.01733398 110.40722656 C191.80945786 110.76125549 192.60158173 111.11528442 193.41770935 111.4800415 C196.5172385 112.83552912 199.64888646 114.05115698 202.8125 115.25 C203.93785156 115.67796875 205.06320312 116.1059375 206.22265625 116.546875 C207.05667969 116.86140625 207.89070312 117.1759375 208.75 117.5 C208.75 121.46 208.75 125.42 208.75 129.5 C186.64 129.5 164.53 129.5 141.75 129.5 C141.75 125.54 141.75 121.58 141.75 117.5 C148.02 114.86 154.29 112.22 160.75 109.5 C160.81813227 101.10191185 160.87301968 92.70404334 160.90543652 84.3057518 C160.92100523 80.40490085 160.94207974 76.50425093 160.97631836 72.60351562 C161.00922949 68.82983715 161.02691889 65.05635043 161.03463173 61.28253937 C161.04011891 59.85222613 161.05083163 58.42192181 161.06719017 56.99169159 C161.2979615 40.049869 161.2979615 40.049869 153.75 25.5 C144.9346282 20.60257122 134.39983389 21.47687611 124.9375 24.125 C119.97516299 25.81945654 115.85934467 28.01591738 111.65234375 31.1328125 C109.75727444 32.49477196 107.8604946 33.51290898 105.75 34.5 C106.08 35.16 106.41 35.82 106.75 36.5 C106.87120299 38.80724017 106.9275357 41.11796828 106.95532227 43.42822266 C106.96522186 44.14052536 106.97512146 44.85282806 106.98532104 45.5867157 C107.01695858 47.94579726 107.0417023 50.30489897 107.06640625 52.6640625 C107.08697384 54.29788747 107.10797026 55.93170708 107.12937927 57.56552124 C107.18462013 61.86942216 107.2340205 66.17337126 107.28222656 70.47735596 C107.3324269 74.86776018 107.38812061 79.25809429 107.44335938 83.6484375 C107.5509656 92.26556737 107.65189755 100.88275668 107.75 109.5 C114.68 112.14 121.61 114.78 128.75 117.5 C128.75 121.46 128.75 125.42 128.75 129.5 C106.64 129.5 84.53 129.5 61.75 129.5 C61.75 125.54 61.75 121.58 61.75 117.5 C68.02 114.86 74.29 112.22 80.75 109.5 C80.81812437 100.97152815 80.87301524 92.44327243 80.90543652 83.91460037 C80.92100714 79.95321692 80.94208529 75.99203134 80.97631836 72.03076172 C81.00922247 68.19872885 81.02691747 64.36688476 81.03463173 60.53472137 C81.04012014 59.08207991 81.05083537 57.62944727 81.06719017 56.17688751 C81.17431105 46.25674291 80.96131938 36.32794999 76.0625 27.4375 C69.91942977 22.29060332 63.29527839 21.89016635 55.53515625 22.09765625 C48.95358731 22.7972451 42.61380645 24.39143204 36.75 27.5 C35.76969818 28.01780029 34.78939636 28.53560059 33.77938843 29.0690918 C28.92632417 32.1005985 25.37082833 34.36794457 23.69284058 40.13050842 C23.20966846 44.53885015 23.39788428 48.92602093 23.578125 53.34765625 C23.60054206 54.97140699 23.61760685 56.5952396 23.62957764 58.21910095 C23.67512851 62.46773354 23.79272921 66.71134355 23.92602539 70.95800781 C24.04938923 75.30139206 24.10371478 79.64559854 24.1640625 83.99023438 C24.29228435 92.4960378 24.50309959 100.99681319 24.75 109.5 C34.65 113.46 34.65 113.46 44.75 117.5 C44.75 121.46 44.75 125.42 44.75 129.5 C22.64 129.5 0.53 129.5 -22.25 129.5 C-22.25 125.54 -22.25 121.58 -22.25 117.5 C-15.65 114.86 -9.05 112.22 -2.25 109.5 C-1.92 80.46 -1.59 51.42 -1.25 21.5 C-8.18 21.5 -15.11 21.5 -22.25 21.5 C-22.25 15.89 -22.25 10.28 -22.25 4.5 C-14.58534122 1.27277525 -8.26023027 0.0732344 0 0 Z " fill="#525252" transform="translate(796.25,222.5)"/>
<path d="M0 0 C6.20435814 1.73722028 8.91301321 5.70270532 12.109375 10.97265625 C15.16889406 16.7033708 15.3094957 23.71122704 13.54785156 29.90380859 C12.34207779 33.39731557 10.95912398 36.80188941 9.53515625 40.2109375 C7.83764405 44.62164786 6.65958154 47.94723123 7.78515625 52.609375 C9.93457829 56.24396621 12.54443992 56.81012721 16.45947266 58.02099609 C20.61389261 58.98890345 24.52871889 59.28762472 28.77734375 59.4609375 C29.60269623 59.4994986 30.42804871 59.53805969 31.27841187 59.57778931 C37.22827635 59.8389926 43.17832753 59.98404506 49.1328125 60.0859375 C49.96460526 60.10035889 50.79639801 60.11478027 51.65339661 60.12963867 C55.03434959 60.18607658 58.41513473 60.24135518 61.79638672 60.27636719 C76.58605375 60.44104384 90.72973574 61.88963568 104.9375 66.25 C105.59041016 66.43304688 106.24332031 66.61609375 106.91601562 66.8046875 C111.38261455 68.18883232 113.65537818 69.91382441 116.125 73.875 C116.57678153 77.10201096 116.74321206 78.93141317 114.9375 81.6875 C111.73783411 83.78383282 108.99967887 84.04395762 105.26733398 83.32299805 C104.16719971 83.03465088 103.06706543 82.74630371 101.93359375 82.44921875 C90.53484178 79.83991399 78.80440598 80.55654728 67.1875 80.6875 C64.84701385 80.70257899 62.50651827 80.71626168 60.16601562 80.72851562 C54.48546804 80.76125468 48.80527925 80.81119723 43.125 80.875 C43.44734619 81.65439941 43.76969238 82.43379883 44.10180664 83.23681641 C45.07777116 85.75322599 45.48037673 87.57374762 45.5625 90.25 C45.60246094 90.95898438 45.64242187 91.66796875 45.68359375 92.3984375 C45.08975213 95.03127377 44.34737946 96.05322048 42.72265625 98.15234375 C39.84497238 101.95654881 38.97678321 105.4319545 38.125 110.0625 C33.99118042 129.63465247 33.99118042 129.63465247 26.125 134.875 C13.77074404 140.0114162 1.07340949 141.04094007 -12.125 141.125 C-13.14311768 141.1343457 -14.16123535 141.14369141 -15.21020508 141.15332031 C-19.82903944 141.13372823 -24.11089876 140.95026513 -28.609375 139.859375 C-38.44106116 137.48673552 -46.51470304 140.21049282 -55.9375 143.0625 C-57.26730392 143.45470696 -58.59738104 143.84598884 -59.92773438 144.23632812 C-68.00360406 146.62329382 -75.99400104 149.21591566 -83.95874023 151.95043945 C-86.875 152.875 -86.875 152.875 -88.875 152.875 C-88.875 132.085 -88.875 111.295 -88.875 89.875 C-83.8214028 87.70917263 -80.38698154 86.39399626 -75.19921875 85.4453125 C-73.33813477 85.08759766 -73.33813477 85.08759766 -71.43945312 84.72265625 C-68.86754456 84.24325768 -66.29462623 83.76924311 -63.72070312 83.30078125 C-50.61901101 80.76321892 -41.10488435 76.49917408 -32.875 65.75 C-32.40932617 65.14816895 -31.94365234 64.54633789 -31.46386719 63.92626953 C-9.32665572 36.05652731 -9.32665572 36.05652731 -5.875 1.875 C-2.875 -0.125 -2.875 -0.125 0 0 Z " fill="#25629D" transform="translate(135.875,204.125)"/>
<path d="M0 0 C0 18.81 0 37.62 0 57 C-6.93 57 -13.86 57 -21 57 C-30.96228671 59.21384149 -33.72155382 60.9703125 -39.26953125 68.671875 C-41.22873922 71.30773945 -43.32309591 73.79962586 -45.4375 76.3125 C-48.44561468 79.9494012 -51.09761486 83.60127197 -53.5625 87.625 C-55.82255318 91.31135124 -58.20119445 94.50137171 -61.125 97.6875 C-72.02363392 109.61312057 -76.290903 123.79034877 -78.45703125 139.4921875 C-79 143 -79 143 -80 144 C-83.56883171 144.06997709 -86.03952479 143.89311156 -88.7265625 141.39453125 C-93.73584501 135.01571584 -95.50676005 128.65554206 -95.3125 120.59375 C-94.61882039 114.8362092 -91.89806903 109.8552792 -89.3984375 104.69140625 C-88.85445313 103.55574219 -88.31046875 102.42007813 -87.75 101.25 C-87.22921875 100.20328125 -86.7084375 99.1565625 -86.171875 98.078125 C-84.90277902 94.74463289 -84.54615999 92.53205918 -85 89 C-88.05912349 84.55580106 -94.04112741 83.31352883 -99 82 C-103.66723353 81.32774204 -108.2889633 81.11638437 -113 81 C-114.12792969 80.96003906 -115.25585938 80.92007813 -116.41796875 80.87890625 C-124.20452042 80.73199018 -131.81519464 81.27908758 -139.5625 82 C-151.78403467 83.11856779 -163.25900399 83.41371649 -175.4375 81.6875 C-176.27885498 81.56995361 -177.12020996 81.45240723 -177.98706055 81.33129883 C-183.83440164 80.41810765 -189.4905986 79.27414502 -194 75.1875 C-195.40005714 72.124875 -194.91899155 70.18112459 -194 67 C-191.50008405 65.75004202 -189.90930994 65.93175071 -187.1171875 66.0078125 C-176.42836103 66.21051818 -166.57368992 66.13145309 -156.11328125 63.80078125 C-147.89173416 62.05191317 -139.36457178 61.67956046 -131 61 C-130.94392578 59.82244141 -130.94392578 59.82244141 -130.88671875 58.62109375 C-130.82097656 57.57050781 -130.75523437 56.51992187 -130.6875 55.4375 C-130.62949219 54.40496094 -130.57148438 53.37242187 -130.51171875 52.30859375 C-129.92354334 48.50565806 -128.52439127 45.52467119 -127 42 C-126.50476419 39.55264418 -126.06776385 37.09283477 -125.6875 34.625 C-123.81956892 24.22160836 -118.21376692 16.59950059 -110 10 C-106.09015009 8.11358575 -102.73534858 7.67574541 -98.41796875 7.47265625 C-97.10965088 7.4044165 -95.80133301 7.33617676 -94.45336914 7.26586914 C-93.75921906 7.23300812 -93.06506897 7.20014709 -92.34988403 7.16629028 C-88.63042285 6.98776329 -84.91290574 6.77603694 -81.1953125 6.5625 C-80.4304805 6.51871719 -79.6656485 6.47493439 -78.87763977 6.42982483 C-71.0904126 5.97007615 -63.32742126 5.30408626 -55.5625 4.5625 C-54.90303375 4.49994019 -54.2435675 4.43738037 -53.56411743 4.3729248 C-43.30507523 3.39214345 -33.06415373 2.25757211 -22.84594727 0.91430664 C-15.05231002 -0.05720662 -8.03071501 0 0 0 Z " fill="#24629D" transform="translate(333,123)"/>
<path d="M0 0 C5.44087848 4.44466129 7.0404061 10.32334817 8 17 C8.10919813 19.12248131 8.1749641 21.24748694 8.20532227 23.37255859 C8.2352401 25.23380875 8.2352401 25.23380875 8.26576233 27.13265991 C8.28274121 28.47125121 8.29962021 29.80984377 8.31640625 31.1484375 C8.33700178 32.52992335 8.3579989 33.91140327 8.37937927 35.2928772 C8.43433178 38.91281298 8.48385824 42.53280308 8.53222656 46.15283203 C8.58263861 49.85323875 8.63822138 53.55356747 8.69335938 57.25390625 C8.80061241 64.50253795 8.902129 71.75123491 9 79 C9.4663385 78.59021408 9.932677 78.18042816 10.41314697 77.75822449 C11.03252136 77.21950211 11.65189575 76.68077972 12.29003906 76.12573242 C12.90075256 75.5921965 13.51146606 75.05866058 14.14068604 74.50895691 C27.77091026 63.44712367 45.13889922 61.52413156 62 63 C70.74803532 64.64761203 78.25257374 69.26856684 83.78515625 76.25390625 C91.34029413 87.81865047 91.46108602 100.48732753 91.51171875 113.796875 C91.52860031 115.48367591 91.54675511 117.1704645 91.56611633 118.85723877 C91.61324556 123.25634918 91.64329311 127.65540965 91.66955566 132.0546875 C91.69955025 136.55999611 91.74601469 141.06513321 91.79101562 145.5703125 C91.876626 154.38013742 91.94263132 163.18994587 92 172 C98.93 174.64 105.86 177.28 113 180 C113 183.96 113 187.92 113 192 C90.89 192 68.78 192 46 192 C46 188.04 46 184.08 46 180 C52.27 177.36 58.54 174.72 65 172 C65.06812437 163.47152815 65.12301524 154.94327243 65.15543652 146.41460037 C65.17100714 142.45321692 65.19208529 138.49203134 65.22631836 134.53076172 C65.25922247 130.69872885 65.27691747 126.86688476 65.28463173 123.03472137 C65.29012014 121.58207991 65.30083537 120.12944727 65.31719017 118.67688751 C65.42431105 108.75674291 65.21131938 98.82794999 60.3125 89.9375 C53.49662644 84.22690324 45.570872 84.20944641 37.00976562 84.79296875 C26.41520533 85.88434231 16.64705901 89.35294099 9 97 C8.90507278 99.34253782 8.87440209 101.65546104 8.88647461 103.99829102 C8.88632858 104.72995483 8.88618256 105.46161865 8.8860321 106.2154541 C8.88673133 108.64496784 8.89452415 111.07440583 8.90234375 113.50390625 C8.9042079 115.18399514 8.90563181 116.86408457 8.90663147 118.54417419 C8.91045693 122.97473643 8.92028744 127.4052661 8.93133545 131.83581543 C8.94154897 136.35342976 8.94612896 140.87104934 8.95117188 145.38867188 C8.96190969 154.25913123 8.97950671 163.12955781 9 172 C15.6 174.64 22.2 177.28 29 180 C29 183.96 29 187.92 29 192 C6.89 192 -15.22 192 -38 192 C-38 188.04 -38 184.08 -38 180 C-31.4 177.36 -24.8 174.72 -18 172 C-17.505 95.77 -17.505 95.77 -17 18 C-23.93 18 -30.86 18 -38 18 C-38 12.72 -38 7.44 -38 2 C-26.0230618 -3.13297351 -12.31591673 -5.95788029 0 0 Z " fill="#525252" transform="translate(488,160)"/>
<path d="M0 0 C0.90322998 -0.00966797 1.80645996 -0.01933594 2.73706055 -0.02929688 C9.54934275 0.05670242 13.9184317 1.2309317 18.875 6.1875 C22.71280382 11.73099441 23.37345772 17.10757162 23.39624023 23.74291992 C23.40146698 24.43667725 23.40669373 25.13043457 23.41207886 25.84521484 C23.42225701 27.34016367 23.42808837 28.83514732 23.42996025 30.33012962 C23.43365519 32.70749926 23.45046845 35.08446322 23.47071838 37.46174622 C23.52581625 44.21701454 23.5566853 50.97234225 23.58129883 57.7277832 C23.59730403 61.87275353 23.62765812 66.01743626 23.66606331 70.16225624 C23.67760206 71.72927069 23.68364267 73.29633686 23.68374443 74.86339378 C23.40970979 92.32939205 23.40970979 92.32939205 31.40234375 107.16796875 C36.94056821 111.24942669 44.54045513 111.03782754 51.125 110.4375 C61.67543535 108.75677469 72.1304744 104.81865108 79.125 96.4375 C79.62438164 93.74342825 79.81834305 91.6722105 79.78442383 88.98510742 C79.79490753 88.2528595 79.80539124 87.52061157 79.81619263 86.76617432 C79.8448784 84.35800465 79.83865939 81.95127821 79.83203125 79.54296875 C79.84515034 77.86857812 79.86045522 76.19420332 79.87785339 74.51985168 C79.91769214 70.12215827 79.92789307 65.72487895 79.93188477 61.32702637 C79.94121839 56.83572843 79.97863333 52.34467358 80.01367188 47.85351562 C80.07823653 39.04813117 80.10888929 30.24310657 80.125 21.4375 C73.195 21.4375 66.265 21.4375 59.125 21.4375 C59.125 15.8275 59.125 10.2175 59.125 4.4375 C66.78965878 1.21027525 73.11476973 0.0107344 81.375 -0.0625 C82.21385742 -0.08054688 83.05271484 -0.09859375 83.91699219 -0.1171875 C89.76029951 -0.06182257 94.2505342 1.14356921 99.125 4.4375 C107.81668629 13.81537205 105.38572787 30.32526323 105.3203125 42.19921875 C105.31657626 44.20131793 105.31373218 46.20341896 105.31173706 48.20552063 C105.30414872 53.44153 105.2845421 58.67742609 105.2623291 63.91339111 C105.2417666 69.26971912 105.23271322 74.62606566 105.22265625 79.98242188 C105.20129113 90.46750535 105.16614878 100.95247548 105.125 111.4375 C112.055 111.4375 118.985 111.4375 126.125 111.4375 C126.125 116.7175 126.125 121.9975 126.125 127.4375 C115.28724842 132.45198207 102.08691478 135.19710495 90.3125 131.25 C83.52255374 127.38905017 81.69014256 121.4643533 79.125 114.4375 C78.279375 115.4275 77.43375 116.4175 76.5625 117.4375 C66.40702863 127.57237204 51.83761107 132.62784893 37.75 132.875 C26.23412139 132.76181246 16.6689641 130.37033431 8.28515625 122.0546875 C-2.19294652 109.35969862 -2.17432561 94.59508157 -2.0703125 78.95703125 C-2.06657445 77.29123608 -2.06373123 75.62543868 -2.06173706 73.9596405 C-2.05416286 69.61137642 -2.03456905 65.26324956 -2.0123291 60.91503906 C-1.99173551 56.46356054 -1.98270667 52.01205948 -1.97265625 47.56054688 C-1.95131621 38.85279511 -1.91618605 30.14518053 -1.875 21.4375 C-8.805 21.4375 -15.735 21.4375 -22.875 21.4375 C-22.875 15.8275 -22.875 10.2175 -22.875 4.4375 C-14.98497055 1.07108743 -8.51897137 0.02957206 0 0 Z " fill="#545454" transform="translate(631.875,222.5625)"/>
<path d="M0 0 C14.37713276 10.75839867 25.38134933 24.35352782 28.06542969 42.54931641 C30.19408872 62.50212673 28.25176999 81.72084744 16.109375 98.28125 C5.0347579 111.88376883 -9.12771052 120.58773099 -26.703125 122.71875 C-46.63303442 124.04056026 -64.79749956 121.18121934 -80.52050781 107.85913086 C-86.45847976 102.55869979 -90.95188823 96.74705034 -94.703125 89.71875 C-95.29867188 88.63013672 -95.29867188 88.63013672 -95.90625 87.51953125 C-103.84266356 71.49863671 -104.36348712 49.50860792 -98.703125 32.71875 C-92.59040736 16.80817374 -82.24768453 3.87579103 -66.7265625 -3.7421875 C-45.79950227 -12.90771008 -19.45560887 -12.79630651 0 0 Z M-67.51953125 26.84765625 C-75.70458001 37.98670757 -77.50667319 51.888682 -76.015625 65.28125 C-74.05990811 77.98054322 -69.33989258 87.76910222 -58.890625 95.59375 C-48.92708361 102.05132344 -38.0944799 103.4151972 -26.45703125 101.0625 C-15.10377455 97.70714261 -7.30396098 90.82715401 -1.51953125 80.6328125 C4.71371675 67.98365721 4.66637064 52.60652857 0.609375 39.28125 C-3.78150202 27.62489302 -11.1346051 19.00803033 -22.37109375 13.6640625 C-39.45232883 6.74001076 -56.15398781 13.5267505 -67.51953125 26.84765625 Z " fill="#535353" transform="translate(1269.703125,232.28125)"/>
<path d="M0 0 C1.62615234 -0.00386719 1.62615234 -0.00386719 3.28515625 -0.0078125 C5.9375 0.125 5.9375 0.125 6.9375 1.125 C6.9375 7.395 6.9375 13.665 6.9375 20.125 C20.7975 20.125 34.6575 20.125 48.9375 20.125 C48.9375 27.055 48.9375 33.985 48.9375 41.125 C35.0775 41.125 21.2175 41.125 6.9375 41.125 C7.00539069 48.71705252 7.07617894 56.30821888 7.1730423 63.89981842 C7.21739072 67.43636335 7.25688643 70.97279834 7.28393555 74.50952148 C7.31533028 78.58345231 7.37010204 82.65679685 7.42578125 86.73046875 C7.43217117 87.9757988 7.4385611 89.22112885 7.44514465 90.50419617 C7.61721151 100.93785598 8.38475113 112.57002231 14.9375 121.125 C23.14049647 127.35391087 33.11936693 126.84000902 42.9375 126.125 C47.04108954 125.39660227 50.97393122 124.40800492 54.9375 123.125 C60.15122791 132.46121044 60.15122791 132.46121044 59.9375 138.125 C54.89183118 144.01161362 46.43687685 147.50731496 38.9375 149.125 C23.97070885 149.90327314 11.5910449 148.87255229 -1.0625 140.125 C-1.97 139.526875 -2.8775 138.92875 -3.8125 138.3125 C-15.14575643 127.29405625 -18.06090852 112.09903616 -18.28955078 96.8659668 C-18.28923947 94.26869592 -18.27826305 91.67140913 -18.2578125 89.07421875 C-18.25407001 87.68032538 -18.25122891 86.28642932 -18.24923706 84.89253235 C-18.24169763 81.27092888 -18.2221359 77.64949268 -18.1998291 74.0279541 C-18.17915845 70.31358094 -18.17019057 66.59918005 -18.16015625 62.88476562 C-18.13887797 55.63142629 -18.10377845 48.37825814 -18.0625 41.125 C-22.3525 41.125 -26.6425 41.125 -31.0625 41.125 C-32.69287941 35.25720937 -33.33138563 29.90640357 -31.0625 24.125 C-24.16930436 14.68750875 -12.07232434 -0.02877789 0 0 Z " fill="#545454" transform="translate(381.0625,205.875)"/>
<path d="M0 0 C0.90322998 -0.00966797 1.80645996 -0.01933594 2.73706055 -0.02929688 C9.07754716 0.0507464 13.60526201 0.98975453 18.3125 5.5625 C22.54455996 12.2754227 23.57090957 19.09525126 23.55737305 26.90454102 C23.57266052 28.25250511 23.57266052 28.25250511 23.58825684 29.62770081 C23.61818708 32.56566769 23.62762205 35.50330747 23.63671875 38.44140625 C23.65358026 40.4912167 23.67173247 42.5410169 23.69111633 44.59080505 C23.73846253 49.96156614 23.76837126 55.33228565 23.79455566 60.70318604 C23.82443898 66.19348353 23.87094253 71.68363804 23.91601562 77.17382812 C24.00187381 87.92832676 24.06775888 98.68281094 24.125 109.4375 C34.025 113.3975 34.025 113.3975 44.125 117.4375 C44.125 121.3975 44.125 125.3575 44.125 129.4375 C22.015 129.4375 -0.095 129.4375 -22.875 129.4375 C-22.875 125.4775 -22.875 121.5175 -22.875 117.4375 C-16.275 114.7975 -9.675 112.1575 -2.875 109.4375 C-2.545 80.3975 -2.215 51.3575 -1.875 21.4375 C-8.805 21.4375 -15.735 21.4375 -22.875 21.4375 C-22.875 15.8275 -22.875 10.2175 -22.875 4.4375 C-14.98497055 1.07108743 -8.51897137 0.02957206 0 0 Z " fill="#535353" transform="translate(1106.875,222.5625)"/>
<path d="M0 0 C5.64856776 3.90020155 9.38886717 8.32050145 11.625 14.8125 C12.69195351 21.02454042 11.01291217 26.31679352 7.48828125 31.4765625 C4.07168661 35.85239034 0.19688601 38.993105 -5.375 39.8125 C-12.26855671 40.34277359 -17.32489205 38.68415715 -23.125 35.125 C-27.85914571 30.25935024 -29.62879056 25.60410758 -29.9375 18.8125 C-29.68065121 11.54734854 -27.04069942 7.34491445 -21.875 2.4375 C-15.10987231 -1.959833 -7.61548482 -2.67952244 0 0 Z " fill="#535353" transform="translate(1125.375,161.1875)"/>
<path d="M0 0 C3.97498482 2.09388922 6.87053324 4.37460929 9.07421875 8.2734375 C10.22310526 13.00368058 10.50631194 16.92632344 9.01171875 21.5859375 C6.31532402 25.32609793 3.24807645 28.18650865 -0.92578125 30.2734375 C-5.85099275 30.81379344 -9.79519843 30.81779219 -14.30078125 28.6484375 C-19.00225447 24.39472363 -21.16469282 21.22024969 -21.48828125 14.8359375 C-21.2738209 9.4004769 -19.92482979 5.97704182 -15.92578125 2.2734375 C-11.01734256 -1.10793138 -5.62973844 -2.12399868 0 0 Z " fill="#565656" transform="translate(1046.92578125,324.7265625)"/>
</svg>
